<svg xmlns="http://www.w3.org/2000/svg" className="object" viewBox="0 0 320 1080" width="100%" height="100%">
<path className="object-stroke-1 object-fill-1" fillRule="evenodd" clipRule="evenodd" d="M138.669 40.3334C138.669 28.5513 148.221 19.0001 160.003 19.0001C171.785 19.0001 181.336 28.5513 181.336 40.3334C181.336 50.7483 173.873 59.42 164.003 61.2923L164.003 120.333L156.003 120.333L156.003 61.2923C146.132 59.42 138.669 50.7483 138.669 40.3334Z" stroke-width="8"/>
<path className="object-fill-1" d="M60 180C60 124.772 104.772 80 160 80V80C215.228 80 260 124.772 260 180V1080H60V180Z"/>
<line className="object-stroke-2" x1="104" y1="156" x2="216" y2="156" stroke-width="8" stroke-linecap="round"/>
<path className="object-fill-2" d="M124 156H140V176C140 180.418 136.418 184 132 184V184C127.582 184 124 180.418 124 176V156Z"/>
<path className="object-fill-2" d="M180 156H196V176C196 180.418 192.418 184 188 184V184C183.582 184 180 180.418 180 176V156Z"/>
<rect className="object-fill-2" x="160" y="144" width="104" height="48" rx="4"/>
<rect className="object-fill-1" x="180" y="156" width="16" height="28"/>
<path className="object-fill-1" d="M216 160L220 160L220 152L216 152L216 160ZM164 160L216 160L216 152L164 152L164 160Z"/>
</svg>
