<svg width="100%" height="100%" viewBox="0 0 40 40" fill="none" xmlns="http://www.w3.org/2000/svg">
<path d="M35.0001 20C35.0001 19.558 34.8245 19.1341 34.5119 18.8215C34.1993 18.5089 33.7754 18.3333 33.3334 18.3333H10.6901L19.5134 9.51334C19.6683 9.35838 19.7913 9.17441 19.8751 8.97195C19.959 8.76948 20.0022 8.55248 20.0022 8.33334C20.0022 8.11419 19.959 7.89719 19.8751 7.69473C19.7913 7.49226 19.6683 7.3083 19.5134 7.15334C19.3584 6.99838 19.1745 6.87546 18.972 6.79159C18.7695 6.70773 18.5525 6.66457 18.3334 6.66457C18.1142 6.66457 17.8972 6.70773 17.6948 6.79159C17.4923 6.87546 17.3083 6.99838 17.1534 7.15334L5.48672 18.82C5.33151 18.9748 5.20836 19.1587 5.12434 19.3612C5.04032 19.5637 4.99707 19.7808 4.99707 20C4.99707 20.2192 5.04032 20.4363 5.12434 20.6388C5.20836 20.8413 5.33151 21.0252 5.48672 21.18L17.1534 32.8467C17.3083 33.0016 17.4923 33.1246 17.6948 33.2084C17.8972 33.2923 18.1142 33.3354 18.3334 33.3354C18.5525 33.3354 18.7695 33.2923 18.972 33.2084C19.1745 33.1246 19.3584 33.0016 19.5134 32.8467C19.6683 32.6917 19.7913 32.5077 19.8751 32.3053C19.959 32.1028 20.0022 31.8858 20.0022 31.6667C20.0022 31.4475 19.959 31.2305 19.8751 31.0281C19.7913 30.8256 19.6683 30.6416 19.5134 30.4867L10.6901 21.6667H33.3334C33.7754 21.6667 34.1993 21.4911 34.5119 21.1785C34.8245 20.866 35.0001 20.442 35.0001 20Z" fill="black"/>
</svg>
