<svg width="100%" height="100%" viewBox="0 0 40 40" fill="none" xmlns="http://www.w3.org/2000/svg">
<path fill-rule="evenodd" clip-rule="evenodd" d="M4.49219 2.5H34.5C35.875 2.5 37 3.63281 37 5.02344V34.9766C37 36.3672 35.875 37.5 34.5 37.5H4.49219C3.11719 37.5 2 36.3672 2 34.9766V5.02344C2 3.63281 3.11719 2.5 4.49219 2.5ZM5.49219 34.9766C4.9399 34.9766 4.49219 34.5288 4.49219 33.9766V6.02344C4.49219 5.47115 4.9399 5.02344 5.49219 5.02344H33.5C34.0523 5.02344 34.5 5.47115 34.5 6.02344V33.9766C34.5 34.5288 34.0523 34.9766 33.5 34.9766H5.49219Z" fill="black"/>
<path d="M9.98438 13.5156C8.32031 13.5156 6.97656 12.1641 6.97656 10.5078C6.97656 8.85156 8.32031 7.5 9.98438 7.5C11.6406 7.5 12.9922 8.85156 12.9922 10.5078C12.9922 12.1719 11.6484 13.5156 9.98438 13.5156Z" fill="black"/>
<path d="M12.5781 32.5H7.39062V15.7969H12.5859V32.5H12.5781Z" fill="black"/>
<path d="M32.0234 32.5H26.8359V24.375C26.8359 22.4375 26.7969 19.9453 24.1406 19.9453C21.4375 19.9453 21.0234 22.0547 21.0234 24.2344V32.5H15.8359V15.7969H20.8125V18.0781H20.8828C21.5781 16.7656 23.2734 15.3828 25.7969 15.3828C31.0469 15.3828 32.0234 18.8438 32.0234 23.3438V32.5Z" fill="black"/>
</svg>
