<svg width="100%" height="100%" viewBox="0 0 40 40" fill="none" xmlns="http://www.w3.org/2000/svg">
<g clip-path="url(#clip0_1535_6557)">
<path d="M19.5078 11.0156C14.5391 11.0156 10.5312 15.0234 10.5312 19.9922C10.5312 24.9609 14.5391 28.9687 19.5078 28.9687C24.4766 28.9687 28.4844 24.9609 28.4844 19.9922C28.4844 15.0234 24.4766 11.0156 19.5078 11.0156ZM19.5078 25.8281C16.2969 25.8281 13.6719 23.2109 13.6719 19.9922C13.6719 16.7734 16.2891 14.1562 19.5078 14.1562C22.7266 14.1562 25.3438 16.7734 25.3438 19.9922C25.3438 23.2109 22.7188 25.8281 19.5078 25.8281V25.8281ZM30.9453 10.6484C30.9453 11.8125 30.0078 12.7422 28.8516 12.7422C27.6875 12.7422 26.7578 11.8047 26.7578 10.6484C26.7578 9.49219 27.6953 8.55469 28.8516 8.55469C30.0078 8.55469 30.9453 9.49219 30.9453 10.6484ZM36.8906 12.7734C36.7578 9.96875 36.1172 7.48437 34.0625 5.4375C32.0156 3.39062 29.5313 2.75 26.7266 2.60937C23.8359 2.44531 15.1719 2.44531 12.2813 2.60937C9.48438 2.74219 7 3.38281 4.94531 5.42969C2.89063 7.47656 2.25781 9.96094 2.11719 12.7656C1.95313 15.6562 1.95313 24.3203 2.11719 27.2109C2.25 30.0156 2.89063 32.5 4.94531 34.5469C7 36.5938 9.47656 37.2344 12.2813 37.375C15.1719 37.5391 23.8359 37.5391 26.7266 37.375C29.5313 37.2422 32.0156 36.6016 34.0625 34.5469C36.1094 32.5 36.75 30.0156 36.8906 27.2109C37.0547 24.3203 37.0547 15.6641 36.8906 12.7734V12.7734ZM33.1562 30.3125C32.5469 31.8437 31.3672 33.0234 29.8281 33.6406C27.5234 34.5547 22.0547 34.3437 19.5078 34.3437C16.9609 34.3437 11.4844 34.5469 9.1875 33.6406C7.65625 33.0312 6.47656 31.8516 5.85938 30.3125C4.94531 28.0078 5.15625 22.5391 5.15625 19.9922C5.15625 17.4453 4.95313 11.9687 5.85938 9.67187C6.46875 8.14062 7.64844 6.96094 9.1875 6.34375C11.4922 5.42969 16.9609 5.64062 19.5078 5.64062C22.0547 5.64062 27.5313 5.4375 29.8281 6.34375C31.3594 6.95312 32.5391 8.13281 33.1562 9.67187C34.0703 11.9766 33.8594 17.4453 33.8594 19.9922C33.8594 22.5391 34.0703 28.0156 33.1562 30.3125Z" fill="black"/>
</g>
<defs>
<clipPath id="clip0_1535_6557">
<rect width="35" height="40" fill="white" transform="translate(2)"/>
</clipPath>
</defs>
</svg>
