<svg xmlns="http://www.w3.org/2000/svg" className="object" viewBox="0 0 340 1080" width="100%" height="100%">
<path className="object-fill-1" d="M166.153 13.5263C167.255 9.6521 172.745 9.6521 173.847 13.5263L188.934 66.5657C189.826 69.7014 193.893 70.5104 195.917 67.9547L230.152 24.7261C232.653 21.5685 237.726 23.6697 237.261 27.6707L230.902 82.446C230.526 85.6844 233.974 87.9882 236.822 86.4016L284.994 59.5648C288.513 57.6045 292.395 61.4872 290.435 65.0058L263.598 113.178C262.012 116.026 264.316 119.474 267.554 119.098L322.329 112.739C326.33 112.274 328.432 117.347 325.274 119.848L282.045 154.083C279.49 156.107 280.299 160.174 283.434 161.066L336.474 176.153C340.348 177.255 340.348 182.745 336.474 183.847L283.434 198.934C280.299 199.826 279.49 203.893 282.045 205.917L325.274 240.152C328.432 242.653 326.33 247.726 322.329 247.261L267.554 240.902C264.316 240.526 262.012 243.974 263.598 246.822L290.435 294.994C292.395 298.513 288.513 302.395 284.994 300.435L236.822 273.598C233.974 272.012 230.526 274.316 230.902 277.554L237.261 332.329C237.726 336.33 232.653 338.432 230.152 335.274L195.917 292.045C193.893 289.49 189.826 290.299 188.934 293.434L173.847 346.474C172.745 350.348 167.255 350.348 166.153 346.474L151.066 293.434C150.174 290.299 146.107 289.49 144.083 292.045L109.848 335.274C107.347 338.432 102.274 336.33 102.739 332.329L109.098 277.554C109.474 274.316 106.026 272.012 103.178 273.598L55.0058 300.435C51.4872 302.395 47.6045 298.513 49.5648 294.994L76.4016 246.822C77.9882 243.974 75.6844 240.526 72.446 240.902L17.6707 247.261C13.6697 247.726 11.5684 242.653 14.726 240.152L57.9547 205.917C60.5104 203.893 59.7014 199.826 56.5657 198.934L3.52631 183.847C-0.347898 182.745 -0.347898 177.255 3.52631 176.153L56.5657 161.066C59.7014 160.174 60.5104 156.107 57.9547 154.083L14.726 119.848C11.5684 117.347 13.6697 112.274 17.6707 112.739L72.446 119.098C75.6844 119.474 77.9882 116.026 76.4016 113.178L49.5648 65.0058C47.6045 61.4872 51.4872 57.6045 55.0058 59.5648L103.178 86.4016C106.026 87.9882 109.474 85.6844 109.098 82.446L102.739 27.6707C102.274 23.6697 107.347 21.5684 109.848 24.726L144.083 67.9547C146.107 70.5104 150.174 69.7014 151.066 66.5657L166.153 13.5263Z"/>
<path className="object-fill-1" d="M70 180C70 124.772 114.772 80 170 80V80C225.228 80 270 124.772 270 180V1080H70V180Z"/>
<line className="object-stroke-2" x1="114" y1="156" x2="226" y2="156" stroke-width="8" stroke-linecap="round"/>
<path className="object-fill-2" d="M134 156H150V176C150 180.418 146.418 184 142 184V184C137.582 184 134 180.418 134 176V156Z"/>
<path className="object-fill-2" d="M190 156H206V176C206 180.418 202.418 184 198 184V184C193.582 184 190 180.418 190 176V156Z"/>
<path className="object-fill-2" d="M136.6 128.684H120.373C111.609 128.684 103.928 121.868 102.846 113.213L100.142 97.0393C99.5467 92.4414 100.845 88.114 103.658 84.9766C106.471 81.8392 110.582 80 114.963 80H147.419C151.909 80 155.966 81.8933 158.562 85.1929C159.157 86.0043 159.698 86.8698 160.131 87.8435C162.457 87.3566 177.564 87.3566 179.836 87.8435C180.269 86.8698 180.81 86.0043 181.459 85.1929C184.001 81.8933 188.058 80 192.602 80H225.058C229.44 80 233.551 81.8392 236.363 84.9766C239.122 88.114 240.42 92.4414 239.879 96.8229L237.121 113.429C236.093 121.868 228.358 128.684 219.649 128.684H203.421C194.982 128.684 186.76 122.247 184.705 114.079L179.836 99.4194C177.781 97.9048 162.186 97.9048 160.131 99.4194L155.154 114.457C153.207 122.301 145.039 128.684 136.6 128.684Z"/>
</svg>
