<svg xmlns="http://www.w3.org/2000/svg" width="120" height="100" viewBox="0 0 120 100">
<path className="hintblob-fill-blob" fill-rule="evenodd" clip-rule="evenodd" d="M0 31.005C0 59.0619 23.1241 81.4242 51.181 81.4242C52.9437 81.4242 54.7126 81.3763 56.4819 81.2807C59.5166 81.1167 62.4561 82.5127 64.0825 85.0801L71.9309 97.4692C74.0292 100.782 79.1455 99.4106 79.3065 95.4929L79.8345 82.6503C79.9728 79.2868 82.2187 76.4062 85.3524 75.1764C105.001 67.4653 120 52.6601 120 31.005C120 2.6901 79.4959 0.213867 51.181 0.213867C29.2963 0.213867 0 9.12035 0 31.005Z" />
<path className="hintblob-fill-text" d="M21.1436 66.875C21.4182 66.3732 21.6399 65.9088 21.8087 65.4818C21.9867 65.0539 22.1498 64.5619 22.2979 64.0055C22.9914 64.329 23.7845 64.5594 24.6772 64.6968C25.5699 64.8341 26.3928 64.8699 27.1459 64.804C27.9176 64.7365 28.4559 64.6238 28.7606 64.466C29.0645 64.2989 29.2096 64.1363 29.1957 63.9782C29.1461 63.411 28.2566 63.2031 26.5272 63.3544C24.6305 63.5204 23.2373 63.4455 22.3477 63.1298C21.4574 62.8049 20.9735 62.2007 20.8963 61.3174C20.7864 60.0622 21.2262 59.0915 22.2155 58.4054C23.2048 57.7192 24.5316 57.3033 26.1959 57.1577C27.1628 57.0731 28.164 57.112 29.1995 57.2744C30.2434 57.4266 31.1932 57.6808 32.0488 58.0369C31.8328 58.6742 31.6147 59.4475 31.3945 60.3568C31.355 60.5476 31.3207 60.6912 31.2916 60.7874C30.7841 60.4477 30.0405 60.1942 29.0608 60.0269C28.0804 59.8504 27.2229 59.7942 26.4884 59.8585C25.6051 59.9358 25.0153 60.0483 24.7191 60.196C24.422 60.3344 24.2832 60.5152 24.3027 60.7383C24.3223 60.9615 24.5473 61.1245 24.9779 61.2273C25.417 61.3201 26.0364 61.3315 26.836 61.2615C28.8071 61.0891 30.2589 61.1916 31.1914 61.5691C32.123 61.9373 32.6295 62.5863 32.7108 63.5161C32.8247 64.8178 32.4327 65.7984 31.5347 66.4578C30.636 67.1079 29.2243 67.5172 27.2996 67.6856C26.2676 67.7759 25.2072 67.7562 24.1184 67.6266C23.0288 67.4877 22.0372 67.2372 21.1436 66.875ZM44.9251 58.7514C43.4613 58.8326 42.0409 58.9288 40.664 59.0399L41.301 66.3201L37.8143 66.6251L37.1773 59.3449C35.7928 59.4754 34.382 59.627 32.9449 59.7996L32.6886 56.8707L44.6689 55.8226L44.9251 58.7514ZM54.0462 54.9881L57.5049 54.6855L57.9906 60.2363C58.0916 61.6047 57.7209 62.7755 56.8785 63.7486C56.0454 64.7209 54.5456 65.3019 52.3792 65.4914C50.1849 65.6834 48.6463 65.3917 47.7634 64.6164C46.8797 63.8317 46.3865 62.7459 46.2839 61.3589L45.7897 55.7105L49.2485 55.4079L49.7231 60.8332C49.7589 61.2423 49.8161 61.5745 49.8947 61.83C49.9817 62.0754 50.1977 62.2954 50.5427 62.49C50.8969 62.6839 51.4413 62.7487 52.1758 62.6844C52.9754 62.6145 53.5514 62.4517 53.9038 62.196C54.2554 61.931 54.4515 61.6562 54.4922 61.3716C54.5422 61.0861 54.5481 60.7249 54.5098 60.2879L54.0462 54.9881ZM63.0703 54.0581C64.8183 53.9052 66.2178 53.9982 67.2686 54.3373C68.3187 54.667 69.0766 55.1909 69.5423 55.9091C70.0165 56.6171 70.3011 57.515 70.3963 58.6029C70.4866 59.6349 70.3331 60.5572 69.9357 61.3696C69.5383 62.182 68.8935 62.8427 68.0011 63.3517C67.1079 63.8515 65.9826 64.1607 64.6251 64.2795C63.7976 64.3519 62.9562 64.4255 62.1008 64.5003C61.2454 64.5752 60.3803 64.6462 59.5054 64.7133C59.4196 62.8752 59.3075 61.1658 59.1692 59.5851C59.0293 57.9859 58.8461 56.3202 58.6196 54.588C59.7179 54.3982 61.2015 54.2216 63.0703 54.0581ZM64.7728 61.4699C65.6375 61.3943 66.1957 61.1346 66.4473 60.691C66.6989 60.2474 66.7926 59.6583 66.7283 58.9238C66.6665 58.2172 66.4631 57.6588 66.118 57.2486C65.7822 56.8376 65.196 56.6688 64.3592 56.742C63.4573 56.8209 62.7856 56.9078 62.3442 57.0026L62.7505 61.6468L64.7728 61.4699ZM79.4152 55.5793C78.3039 55.6203 77.4828 55.6594 76.9521 55.6965L77.3694 60.4662C77.9078 60.4098 78.7232 60.3056 79.8154 60.1539L80.0583 62.9293L71.9552 63.6382L71.7124 60.8628C72.7865 60.825 73.6029 60.7864 74.1616 60.7469L73.7443 55.9771C73.1872 56.0352 72.3765 56.1389 71.3122 56.2883L71.0694 53.5129L79.1724 52.8039L79.4152 55.5793ZM84.244 59.9913C87.7755 59.6636 90.3326 59.3883 91.9152 59.1655C91.8835 59.5524 91.8762 59.9513 91.8934 60.362C91.9191 60.7626 91.9588 61.2697 92.0124 61.8834L81.1758 62.8315C81.0924 61.0212 80.982 59.3304 80.8445 57.7591C80.707 56.1877 80.5222 54.5034 80.29 52.7062L91.1266 51.7581L91.3474 54.2824L83.8023 54.9426L83.9194 56.2814C84.3665 56.2517 85.0271 56.1986 85.9011 56.1221C87.3794 55.9928 88.9065 55.8311 90.4822 55.637L90.6921 58.0358C89.1066 58.1183 87.5746 58.2243 86.0963 58.3536C85.2223 58.4301 84.5626 58.4925 84.1171 58.5408L84.244 59.9913ZM93.1653 60.5739C93.44 60.0721 93.6617 59.6077 93.8304 59.1807C94.0085 58.7529 94.1716 58.2608 94.3196 57.7044C95.0131 58.0279 95.8062 58.2583 96.6989 58.3957C97.5916 58.5331 98.4145 58.5688 99.1677 58.5029C99.9394 58.4354 100.478 58.3227 100.782 58.1649C101.086 57.9978 101.231 57.8352 101.217 57.6771C101.168 57.11 100.278 56.902 98.549 57.0533C96.6522 57.2193 95.2591 57.1444 94.3695 56.8287C93.4791 56.5038 92.9953 55.8996 92.918 55.0163C92.8082 53.7611 93.2479 52.7905 94.2372 52.1043C95.2265 51.4181 96.5533 51.0022 98.2176 50.8566C99.1846 50.772 100.186 50.8109 101.221 50.9733C102.265 51.1256 103.215 51.3797 104.071 51.7359C103.855 52.3731 103.636 53.1464 103.416 54.0557C103.377 54.2465 103.342 54.3901 103.313 54.4863C102.806 54.1466 102.062 53.8931 101.083 53.7258C100.102 53.5493 99.2447 53.4931 98.5101 53.5574C97.6268 53.6347 97.0371 53.7472 96.7408 53.8949C96.4438 54.0333 96.305 54.2141 96.3245 54.4372C96.344 54.6604 96.5691 54.8234 96.9997 54.9263C97.4388 55.019 98.0581 55.0304 98.8577 54.9605C100.829 54.788 102.281 54.8905 103.213 55.268C104.145 55.6362 104.651 56.2852 104.733 57.215C104.846 58.5167 104.454 59.4973 103.557 60.1567C102.658 60.8068 101.246 61.2161 99.3214 61.3845C98.2893 61.4748 97.2289 61.4551 96.1402 61.3255C95.0506 61.1866 94.059 60.9361 93.1653 60.5739Z" />
<path className="hintblob-fill-text" d="M21.2993 50.6987C16.7854 50.9353 13.4098 50.1509 11.1722 48.3455C8.93467 46.5401 7.72273 43.8599 7.53641 40.3047C7.34905 36.7297 8.26948 33.8475 10.2977 31.6584C12.3259 29.4692 15.5969 28.2564 20.1107 28.0198C26.422 27.6891 30.7598 29.6347 33.124 33.8568C31.3589 34.5701 29.3005 35.6093 26.9487 36.9742C26.3109 35.8861 25.3487 35.1054 24.0622 34.6321C22.7956 34.1577 21.5132 33.9546 20.215 34.0226C18.2976 34.1231 16.8963 34.7072 16.011 35.775C15.1246 36.8228 14.7201 38.0857 14.7976 39.5637C14.8813 41.1615 15.4492 42.4436 16.5012 43.4098C17.5721 44.3551 19.1462 44.7733 21.2233 44.6644C22.8811 44.5775 24.1851 44.2388 25.1355 43.6483C26.0849 43.0377 26.7578 42.1213 27.1544 40.8988C28.8382 41.6918 30.9871 42.5705 33.6012 43.5351C32.7292 46.0041 31.15 47.7792 28.8634 48.8603C26.5769 49.9415 24.0555 50.5543 21.2993 50.6987ZM53.4702 48.7123C53.031 47.5937 52.4469 46.1924 51.7177 44.5082L42.1609 45.0091L40.8874 49.3717L33.3678 49.7658L40.6164 27.576L51.6412 26.9982L61.2295 48.3056L53.4702 48.7123ZM49.7652 39.9241C48.8963 37.8668 48.0075 35.8105 47.0986 33.7552L46.2776 31.8456C45.6738 33.6997 44.7891 36.4999 43.6236 40.246L49.7652 39.9241ZM60.8944 45.7397C61.5201 44.6855 62.0296 43.7075 62.4229 42.8056C62.8362 41.9028 63.2222 40.8611 63.581 39.6807C65.0419 40.4253 66.7232 40.9781 68.6247 41.3391C70.5262 41.7 72.2858 41.8381 73.9036 41.7533C75.5613 41.6665 76.7224 41.4654 77.3868 41.1502C78.0502 40.815 78.3729 40.4777 78.3551 40.1382C78.2913 38.9198 76.4019 38.408 72.687 38.6027C68.6126 38.8162 65.6347 38.5517 63.7532 37.8092C61.8708 37.0466 60.8798 35.7167 60.7804 33.8193C60.639 31.123 61.6534 29.0771 63.8233 27.6816C65.9932 26.2861 68.8658 25.4947 72.4409 25.3074C74.518 25.1985 76.6592 25.3567 78.8645 25.7818C81.0887 26.186 83.1037 26.8014 84.9094 27.628C84.3993 28.9765 83.8744 30.6163 83.3347 32.5471C83.2358 32.9529 83.1516 33.2577 83.0822 33.4616C82.0207 32.6961 80.4472 32.0976 78.3618 31.6662C76.2753 31.2148 74.4431 31.0304 72.8653 31.1131C70.9679 31.2125 69.6964 31.4094 69.051 31.7035C68.4044 31.9778 68.0937 32.3545 68.1188 32.8339C68.144 33.3132 68.6138 33.6791 69.5282 33.9316C70.4616 34.1631 71.7871 34.2338 73.5048 34.1438C77.739 33.9219 80.8404 34.25 82.809 35.1282C84.7767 35.9864 85.8128 37.4141 85.9175 39.4114C86.064 42.2075 85.1511 44.2782 83.1788 45.6232C81.2055 46.9483 78.1516 47.7192 74.0173 47.9359C71.8003 48.0521 69.5309 47.9307 67.2089 47.5717C64.8859 47.1927 62.781 46.5821 60.8944 45.7397ZM94.8901 41.044C102.478 40.6063 107.974 40.2081 111.38 39.8494C111.283 40.6756 111.238 41.5291 111.244 42.41C111.269 43.2699 111.316 44.3589 111.385 45.6771L88.1071 46.897C88.0638 43.014 87.9537 39.3848 87.7768 36.0094C87.5999 32.634 87.3301 29.0132 86.9672 25.1469L110.245 23.9269L110.529 29.3495L94.3217 30.1989L94.4724 33.075C95.4321 33.0447 96.8507 32.9804 98.7281 32.882C101.904 32.7155 105.186 32.4834 108.575 32.1857L108.845 37.3386C105.444 37.3967 102.155 37.509 98.9794 37.6754C97.1019 37.7738 95.6844 37.8581 94.7268 37.9283L94.8901 41.044Z" />
<path className="hintblob-fill-blob" d="M11.1722 48.3455L11.0466 48.5011L11.1722 48.3455ZM10.2977 31.6584L10.4444 31.7943L10.2977 31.6584ZM33.124 33.8568L33.199 34.0422L33.4094 33.9571L33.2985 33.759L33.124 33.8568ZM26.9487 36.9742L26.7762 37.0754L26.8769 37.2472L27.0491 37.1472L26.9487 36.9742ZM24.0622 34.6321L23.992 34.8194L23.9931 34.8198L24.0622 34.6321ZM16.011 35.775L16.1637 35.9042L16.1649 35.9027L16.011 35.775ZM16.5012 43.4098L16.3659 43.5571L16.3689 43.5598L16.5012 43.4098ZM25.1355 43.6483L25.2411 43.8182L25.2437 43.8165L25.1355 43.6483ZM27.1544 40.8988L27.2396 40.7179L27.0342 40.6212L26.9642 40.8371L27.1544 40.8988ZM33.6012 43.535L33.7898 43.6017L33.8555 43.4157L33.6704 43.3474L33.6012 43.535ZM28.8634 48.8603L28.7779 48.6795L28.8634 48.8603ZM21.2888 50.499C16.7973 50.7344 13.4802 49.9507 11.2978 48.1898L11.0466 48.5011C13.3393 50.351 16.7736 51.1362 21.3097 50.8984L21.2888 50.499ZM11.2978 48.1898C9.11467 46.4284 7.92025 43.8072 7.73614 40.2943L7.33669 40.3152C7.52521 43.9125 8.75466 46.6519 11.0466 48.5011L11.2978 48.1898ZM7.73614 40.2943C7.551 36.7616 8.4601 33.9361 10.4444 31.7943L10.151 31.5225C8.07885 33.759 7.14711 36.6977 7.33669 40.3152L7.73614 40.2943ZM10.4444 31.7943C12.4227 29.659 15.6331 28.4548 20.1212 28.2195L20.1002 27.8201C15.5607 28.058 12.2291 29.2794 10.151 31.5225L10.4444 31.7943ZM20.1212 28.2195C26.384 27.8913 30.6343 29.8199 32.9495 33.9545L33.2985 33.759C30.8853 29.4495 26.4601 27.4868 20.1002 27.8201L20.1212 28.2195ZM33.0491 33.6713C31.2724 34.3894 29.2051 35.4334 26.8483 36.8012L27.0491 37.1472C29.3959 35.7852 31.4455 34.7509 33.199 34.0422L33.0491 33.6713ZM27.1213 36.8731C26.4579 35.7414 25.4572 34.9322 24.1312 34.4444L23.9931 34.8198C25.2402 35.2786 26.1639 36.0308 26.7762 37.0754L27.1213 36.8731ZM24.1323 34.4448C22.8411 33.9612 21.5313 33.7533 20.2045 33.8229L20.2255 34.2223C21.4951 34.1558 22.7501 34.3543 23.992 34.8194L24.1323 34.4448ZM20.2045 33.8229C18.2535 33.9251 16.79 34.522 15.857 35.6474L16.1649 35.9027C17.0026 34.8924 18.3418 34.321 20.2255 34.2223L20.2045 33.8229ZM15.8583 35.6458C14.9363 36.7357 14.518 38.0497 14.5979 39.5742L14.9973 39.5532C14.9223 38.1217 15.3129 36.9099 16.1637 35.9042L15.8583 35.6458ZM14.5979 39.5742C14.684 41.2174 15.2706 42.5511 16.3659 43.5571L16.6365 43.2625C15.6278 42.3361 15.0787 41.1056 14.9973 39.5532L14.5979 39.5742ZM16.3689 43.5598C17.4939 44.5527 19.1281 44.9745 21.2338 44.8641L21.2129 44.4647C19.1642 44.572 17.6504 44.1574 16.6336 43.2599L16.3689 43.5598ZM21.2338 44.8641C22.9101 44.7763 24.2514 44.4331 25.2411 43.8181L25.03 43.4784C24.1188 44.0446 22.852 44.3788 21.2129 44.4647L21.2338 44.8641ZM25.2437 43.8165C26.2372 43.1776 26.9359 42.2205 27.3446 40.9606L26.9642 40.8371C26.5797 42.0221 25.9325 42.8979 25.0273 43.48L25.2437 43.8165ZM27.0692 41.0798C28.7601 41.8761 30.9149 42.757 33.532 43.7227L33.6704 43.3474C31.0594 42.384 28.9163 41.5075 27.2396 40.7179L27.0692 41.0798ZM33.4126 43.4684C32.5577 45.8892 31.0144 47.622 28.7779 48.6795L28.9489 49.0411C31.2855 47.9363 32.9007 46.119 33.7898 43.6017L33.4126 43.4684ZM28.7779 48.6795C26.517 49.7485 24.0214 50.3558 21.2888 50.499L21.3097 50.8984C24.0896 50.7527 26.6367 50.1344 28.9489 49.0411L28.7779 48.6795ZM53.4702 48.7123L53.284 48.7854L53.3367 48.9196L53.4806 48.912L53.4702 48.7123ZM51.7177 44.5082L51.9013 44.4288L51.8461 44.3012L51.7073 44.3085L51.7177 44.5082ZM42.1609 45.0091L42.1504 44.8094L42.0086 44.8168L41.9689 44.9531L42.1609 45.0091ZM40.8874 49.3717L40.8979 49.5714L41.0396 49.564L41.0794 49.4278L40.8874 49.3717ZM33.3678 49.7658L33.1776 49.7037L33.0871 49.9808L33.3782 49.9655L33.3678 49.7658ZM40.6164 27.576L40.6059 27.3763L40.4689 27.3835L40.4263 27.5139L40.6164 27.576ZM51.6412 26.9982L51.8236 26.9162L51.7675 26.7914L51.6308 26.7985L51.6412 26.9982ZM61.2295 48.3056L61.24 48.5054L61.5318 48.4901L61.4119 48.2236L61.2295 48.3056ZM49.7652 39.9241L49.7756 40.1239L50.0603 40.109L49.9494 39.8463L49.7652 39.9241ZM47.0986 33.7552L46.9149 33.8342L46.9157 33.8361L47.0986 33.7552ZM46.2776 31.8456L46.4613 31.7666L46.2517 31.2791L46.0874 31.7837L46.2776 31.8456ZM43.6236 40.246L43.4326 40.1866L43.3473 40.4608L43.634 40.4457L43.6236 40.246ZM53.6563 48.6392C53.216 47.5177 52.6309 46.1141 51.9013 44.4288L51.5342 44.5877C52.2629 46.2707 52.846 47.6698 53.284 48.7854L53.6563 48.6392ZM51.7073 44.3085L42.1504 44.8094L42.1713 45.2088L51.7282 44.708L51.7073 44.3085ZM41.9689 44.9531L40.6954 49.3157L41.0794 49.4278L42.3528 45.0651L41.9689 44.9531ZM40.877 49.172L33.3573 49.5661L33.3782 49.9655L40.8979 49.5714L40.877 49.172ZM33.5579 49.8279L40.8065 27.6381L40.4263 27.5139L33.1776 49.7037L33.5579 49.8279ZM40.6268 27.7758L51.6517 27.198L51.6308 26.7985L40.6059 27.3763L40.6268 27.7758ZM51.4588 27.0803L61.0471 48.3877L61.4119 48.2236L51.8236 26.9162L51.4588 27.0803ZM61.2191 48.1059L53.4597 48.5126L53.4806 48.912L61.24 48.5054L61.2191 48.1059ZM49.9494 39.8463C49.0801 37.788 48.1908 35.7306 47.2816 33.6744L46.9157 33.8361C47.8241 35.8904 48.7125 37.9456 49.5809 40.002L49.9494 39.8463ZM47.2824 33.6762L46.4613 31.7666L46.0938 31.9246L46.9149 33.8342L47.2824 33.6762ZM46.0874 31.7837C45.4832 33.6391 44.5982 36.4403 43.4326 40.1866L43.8146 40.3054C44.98 36.5595 45.8644 33.7604 46.4677 31.9075L46.0874 31.7837ZM43.634 40.4457L49.7756 40.1239L49.7547 39.7244L43.6131 40.0463L43.634 40.4457ZM60.8944 45.7397L60.7224 45.6376L60.6078 45.8307L60.8128 45.9223L60.8944 45.7397ZM62.4229 42.8056L62.241 42.7224L62.2396 42.7257L62.4229 42.8056ZM63.581 39.6807L63.6718 39.5026L63.459 39.3941L63.3896 39.6226L63.581 39.6807ZM68.6247 41.3391L68.5874 41.5355L68.6247 41.3391ZM77.3868 41.1502L77.4725 41.331L77.477 41.3287L77.3868 41.1502ZM63.7532 37.8092L63.6782 37.9945L63.6798 37.9952L63.7532 37.8092ZM63.8233 27.6816L63.9315 27.8498L63.8233 27.6816ZM78.8645 25.7818L78.8266 25.9782L78.8287 25.9786L78.8645 25.7818ZM84.9094 27.628L85.0965 27.6987L85.1626 27.5239L84.9926 27.4461L84.9094 27.628ZM83.3347 32.5471L83.142 32.4933L83.1404 32.4998L83.3347 32.5471ZM83.0822 33.4616L82.9652 33.6238L83.1844 33.7819L83.2715 33.5261L83.0822 33.4616ZM78.3618 31.6662L78.3195 31.8617L78.3212 31.862L78.3618 31.6662ZM69.051 31.7035L69.1291 31.8877L69.1339 31.8855L69.051 31.7035ZM69.5282 33.9316L69.475 34.1245L69.4801 34.1257L69.5282 33.9316ZM82.809 35.1282L82.7276 35.3108L82.7291 35.3115L82.809 35.1282ZM83.1788 45.6232L83.2903 45.7893L83.2915 45.7885L83.1788 45.6232ZM67.2089 47.5717L67.1767 47.7691L67.1784 47.7693L67.2089 47.5717ZM61.0664 45.8417C61.6953 44.7821 62.2089 43.7966 62.6062 42.8856L62.2396 42.7257C61.8503 43.6183 61.3448 44.5889 60.7224 45.6376L61.0664 45.8417ZM62.6048 42.8889C63.0226 41.9762 63.4116 40.9259 63.7723 39.7389L63.3896 39.6226C63.0329 40.7964 62.6499 41.8293 62.2411 42.7224L62.6048 42.8889ZM63.4901 39.8589C64.9707 40.6135 66.6705 41.1717 68.5874 41.5355L68.662 41.1426C66.7758 40.7845 65.1131 40.2371 63.6718 39.5026L63.4901 39.8589ZM68.5874 41.5355C70.5016 41.899 72.2775 42.0388 73.914 41.9531L73.8931 41.5536C72.2941 41.6374 70.5507 41.5011 68.662 41.1426L68.5874 41.5355ZM73.914 41.9531C75.5732 41.8661 76.7694 41.6645 77.4725 41.3309L77.3011 40.9695C76.6753 41.2664 75.5494 41.4668 73.8931 41.5536L73.914 41.9531ZM77.477 41.3287C77.8184 41.1562 78.0873 40.9759 78.2709 40.7841C78.4557 40.5909 78.5676 40.3706 78.5549 40.1277L78.1554 40.1486C78.1605 40.2452 78.1198 40.3634 77.9819 40.5076C77.8427 40.6531 77.6185 40.809 77.2966 40.9717L77.477 41.3287ZM78.5549 40.1277C78.5159 39.384 77.9119 38.9101 76.9425 38.6475C75.9665 38.3831 74.5397 38.3053 72.6765 38.403L72.6975 38.8024C74.5492 38.7054 75.9246 38.7862 76.8379 39.0336C77.758 39.2828 78.1305 39.674 78.1554 40.1486L78.5549 40.1277ZM72.6765 38.403C68.6075 38.6162 65.666 38.3491 63.8267 37.6231L63.6798 37.9952C65.6034 38.7544 68.6177 39.0162 72.6975 38.8024L72.6765 38.403ZM63.8283 37.6238C62.9134 37.2532 62.2277 36.75 61.7585 36.1203C61.2899 35.4914 61.028 34.724 60.9801 33.8088L60.5806 33.8298C60.6321 34.812 60.9154 35.6582 61.4378 36.3593C61.9596 37.0596 62.7106 37.6026 63.6782 37.9945L63.8283 37.6238ZM60.9801 33.8088C60.8423 31.1801 61.8253 29.2043 63.9315 27.8498L63.7151 27.5134C61.4814 28.9499 60.4358 31.0659 60.5806 33.8298L60.9801 33.8088ZM63.9315 27.8498C66.063 26.4791 68.8982 25.6933 72.4513 25.5071L72.4304 25.1076C68.8334 25.2961 65.9235 26.0932 63.7151 27.5134L63.9315 27.8498ZM72.4513 25.5071C74.511 25.3991 76.636 25.5559 78.8266 25.9782L78.9024 25.5854C76.6824 25.1574 74.5249 24.9979 72.4304 25.1076L72.4513 25.5071ZM78.8287 25.9786C81.0388 26.3802 83.0375 26.991 84.8262 27.8098L84.9926 27.4461C83.1698 26.6117 81.1386 25.9918 78.9002 25.585L78.8287 25.9786ZM84.7223 27.5572C84.2095 28.913 83.6828 30.5587 83.1421 32.4933L83.5273 32.601C84.066 30.6738 84.5891 29.0401 85.0965 27.6987L84.7223 27.5572ZM83.1404 32.4998C83.0418 32.904 82.9594 33.2019 82.8929 33.3972L83.2715 33.5261C83.3439 33.3135 83.4297 33.0017 83.529 32.5945L83.1404 32.4998ZM83.1992 33.2994C82.1049 32.5103 80.5001 31.9043 78.4023 31.4703L78.3212 31.862C80.3943 32.2909 81.9365 32.882 82.9652 33.6238L83.1992 33.2994ZM78.4041 31.4707C76.3059 31.0168 74.4553 30.8295 72.8548 30.9134L72.8757 31.3128C74.4309 31.2313 76.2447 31.4128 78.3195 31.8617L78.4041 31.4707ZM72.8548 30.9134C71.9022 30.9633 71.1028 31.0378 70.4581 31.1376C69.8164 31.237 69.3158 31.3631 68.968 31.5215L69.1339 31.8855C69.4316 31.7498 69.8895 31.6304 70.5192 31.5329C71.146 31.4359 71.9309 31.3623 72.8757 31.3128L72.8548 30.9134ZM68.9729 31.5194C68.6321 31.6639 68.3615 31.8429 68.1787 32.0645C67.9921 32.2908 67.9039 32.5537 67.9191 32.8443L68.3186 32.8234C68.3087 32.6347 68.3632 32.4696 68.4873 32.319C68.6152 32.1639 68.8233 32.0173 69.1291 31.8877L68.9729 31.5194ZM67.9191 32.8443C67.9354 33.1555 68.0984 33.4163 68.3671 33.6256C68.6314 33.8314 69.0057 33.9948 69.475 34.1244L69.5814 33.7388C69.1362 33.6159 68.8185 33.4701 68.6129 33.31C68.4118 33.1534 68.3274 32.9916 68.3186 32.8234L67.9191 32.8443ZM69.4801 34.1257C70.4421 34.3643 71.7908 34.4339 73.5152 34.3435L73.4943 33.9441C71.7835 34.0337 70.4812 33.9619 69.5764 33.7375L69.4801 34.1257ZM73.5152 34.3435C77.7427 34.122 80.8042 34.4529 82.7276 35.3108L82.8905 34.9455C80.8766 34.0472 77.7352 33.7218 73.4943 33.9441L73.5152 34.3435ZM82.7291 35.3115C83.6873 35.7294 84.407 36.2808 84.9 36.9601C85.3924 37.6387 85.6672 38.4565 85.7177 39.4218L86.1172 39.4009C86.0631 38.369 85.7674 37.4743 85.2237 36.7252C84.6806 35.9768 83.8984 35.3851 82.889 34.9449L82.7291 35.3115ZM85.7177 39.4218C85.8614 42.1625 84.9699 44.1597 83.0661 45.458L83.2915 45.7885C85.3324 44.3966 86.2666 42.2526 86.1172 39.4009L85.7177 39.4218ZM83.0673 45.4572C81.1388 46.7522 78.1284 47.5201 74.0068 47.7361L74.0278 48.1356C78.1748 47.9183 81.2721 47.1444 83.2903 45.7893L83.0673 45.4572ZM74.0068 47.7361C71.8044 47.8516 69.5487 47.731 67.2395 47.374L67.1784 47.7693C69.5131 48.1303 71.7963 48.2525 74.0278 48.1356L74.0068 47.7361ZM67.2411 47.3743C64.9328 46.9978 62.8448 46.3915 60.9759 45.557L60.8128 45.9223C62.7173 46.7726 64.839 47.3877 67.1767 47.7691L67.2411 47.3743ZM94.8901 41.044L94.6903 41.0545L94.7009 41.2553L94.9016 41.2437L94.8901 41.044ZM111.38 39.8494L111.579 39.8727L111.608 39.6243L111.359 39.6505L111.38 39.8494ZM111.244 42.41L111.044 42.4114L111.044 42.4158L111.244 42.41ZM111.385 45.6771L111.396 45.8768L111.595 45.8663L111.585 45.6666L111.385 45.6771ZM88.1071 46.897L87.9071 46.8993L87.9094 47.1077L88.1175 47.0968L88.1071 46.897ZM86.9672 25.1469L86.9567 24.9472L86.7486 24.9581L86.7681 25.1656L86.9672 25.1469ZM110.245 23.9269L110.445 23.9165L110.435 23.7167L110.235 23.7272L110.245 23.9269ZM110.529 29.3495L110.54 29.5492L110.74 29.5388L110.729 29.339L110.529 29.3495ZM94.3217 30.1989L94.3112 29.9992L94.1115 30.0096L94.122 30.2094L94.3217 30.1989ZM94.4724 33.075L94.2727 33.0854L94.2829 33.281L94.4787 33.2749L94.4724 33.075ZM108.575 32.1857L108.775 32.1752L108.764 31.9683L108.558 31.9864L108.575 32.1857ZM108.845 37.3386L108.849 37.5386L109.056 37.535L109.045 37.3281L108.845 37.3386ZM94.7268 37.9283L94.7121 37.7288L94.5168 37.7432L94.527 37.9388L94.7268 37.9283ZM94.9016 41.2437C102.489 40.806 107.99 40.4075 111.401 40.0483L111.359 39.6505C107.958 40.0087 102.466 40.4067 94.8785 40.8444L94.9016 41.2437ZM111.181 39.8261C111.084 40.6609 111.038 41.5227 111.044 42.4114L111.444 42.4086C111.438 41.5355 111.483 40.6902 111.579 39.8727L111.181 39.8261ZM111.044 42.4158C111.069 43.2778 111.116 44.3685 111.185 45.6876L111.585 45.6666C111.516 44.3493 111.469 43.2619 111.444 42.4042L111.044 42.4158ZM111.375 45.4774L88.0966 46.6973L88.1175 47.0968L111.396 45.8768L111.375 45.4774ZM88.3071 46.8948C88.2638 43.0094 88.1536 39.3774 87.9765 35.9989L87.5771 36.0199C87.7538 39.3921 87.8638 43.0186 87.9071 46.8993L88.3071 46.8948ZM87.9765 35.9989C87.7995 32.6205 87.5294 28.9969 87.1663 25.1282L86.7681 25.1656C87.1307 29.0295 87.4004 32.6476 87.5771 36.0199L87.9765 35.9989ZM86.9777 25.3466L110.256 24.1267L110.235 23.7272L86.9567 24.9472L86.9777 25.3466ZM110.046 23.9374L110.33 29.36L110.729 29.339L110.445 23.9165L110.046 23.9374ZM110.519 29.1498L94.3112 29.9992L94.3322 30.3986L110.54 29.5492L110.519 29.1498ZM94.122 30.2094L94.2727 33.0854L94.6721 33.0645L94.5214 30.1884L94.122 30.2094ZM94.4787 33.2749C95.4406 33.2445 96.8609 33.1801 98.7386 33.0817L98.7177 32.6822C96.8406 32.7806 95.4237 32.8449 94.4661 32.8751L94.4787 33.2749ZM98.7386 33.0817C101.917 32.9151 105.201 32.6829 108.593 32.3849L108.558 31.9864C105.171 32.284 101.891 32.5159 98.7177 32.6822L98.7386 33.0817ZM108.375 32.1961L108.646 37.3491L109.045 37.3281L108.775 32.1752L108.375 32.1961ZM108.842 37.1386C105.438 37.1968 102.147 37.3091 98.9689 37.4757L98.9898 37.8751C102.163 37.7088 105.449 37.5966 108.849 37.5386L108.842 37.1386ZM98.9689 37.4757C97.0911 37.5741 95.6719 37.6585 94.7121 37.7288L94.7414 38.1278C95.6969 38.0577 97.1128 37.9735 98.9898 37.8751L98.9689 37.4757ZM94.527 37.9388L94.6903 41.0545L95.0898 41.0336L94.9265 37.9178L94.527 37.9388Z" />
<path className="hintblob-fill-text" d="M23.175 22.2139C23.023 21.7579 22.819 21.1859 22.563 20.4979H18.735L18.135 22.2139H15.123L18.483 13.5019H22.899L26.283 22.2139H23.175ZM21.879 18.6259C21.575 17.7859 21.263 16.9459 20.943 16.1059L20.655 15.3259C20.375 16.0539 19.963 17.1539 19.419 18.6259H21.879ZM26.4429 21.1819C26.7149 20.7739 26.9389 20.3939 27.1149 20.0419C27.2989 19.6899 27.4749 19.2819 27.6429 18.8179C28.2109 19.1459 28.8709 19.4019 29.6229 19.5859C30.3749 19.7699 31.0749 19.8619 31.7229 19.8619C32.3869 19.8619 32.8549 19.8059 33.1269 19.6939C33.3989 19.5739 33.5349 19.4459 33.5349 19.3099C33.5349 18.8219 32.7909 18.5779 31.3029 18.5779C29.6709 18.5779 28.4869 18.4099 27.7509 18.0739C27.0149 17.7299 26.6469 17.1779 26.6469 16.4179C26.6469 15.3379 27.0949 14.5419 27.9909 14.0299C28.8869 13.5179 30.0509 13.2619 31.4829 13.2619C32.3149 13.2619 33.1669 13.3699 34.0389 13.5859C34.9189 13.7939 35.7109 14.0819 36.4149 14.4499C36.1829 14.9779 35.9389 15.6219 35.6829 16.3819C35.6349 16.5419 35.5949 16.6619 35.5629 16.7419C35.1549 16.4139 34.5389 16.1419 33.7149 15.9259C32.8909 15.7019 32.1629 15.5899 31.5309 15.5899C30.7709 15.5899 30.2589 15.6419 29.9949 15.7459C29.7309 15.8419 29.5989 15.9859 29.5989 16.1779C29.5989 16.3699 29.7789 16.5259 30.1389 16.6459C30.5069 16.7579 31.0349 16.8139 31.7229 16.8139C33.4189 16.8139 34.6509 17.0099 35.4189 17.4019C36.1869 17.7859 36.5709 18.3779 36.5709 19.1779C36.5709 20.2979 36.1629 21.1059 35.3469 21.6019C34.5309 22.0899 33.2949 22.3339 31.6389 22.3339C30.7509 22.3339 29.8469 22.2379 28.9269 22.0459C28.0069 21.8459 27.1789 21.5579 26.4429 21.1819ZM43.7928 22.2139C43.4168 21.5339 42.7928 20.4939 41.9208 19.0939L40.5168 20.4859V22.2139H37.5288C37.5928 20.6619 37.6248 19.2099 37.6248 17.8579C37.6248 16.5059 37.5928 15.0539 37.5288 13.5019H40.5168V17.0179C41.9888 15.5619 43.0368 14.3899 43.6608 13.5019H47.5488L43.7688 17.2459C44.3288 18.0299 44.9568 18.8819 45.6528 19.8019C46.3568 20.7219 46.9928 21.5259 47.5608 22.2139H43.7928ZM62.1434 13.5019L63.0794 22.2139H59.9714L59.7794 15.9979L58.5794 22.2139H55.4354L54.2114 16.0459L54.0314 22.2139H50.9234L51.8594 13.5019H55.9394L56.9834 19.1779L57.8954 13.5019H62.1434ZM74.7166 13.5019L74.4886 13.8499C73.6326 15.1779 72.8966 16.3539 72.2806 17.3779C71.6726 18.3939 71.1646 19.3299 70.7566 20.1859V22.2139H67.6246V19.9819C67.3286 19.3819 66.9806 18.7659 66.5806 18.1339C66.1806 17.4939 65.6126 16.6179 64.8766 15.5059C64.3006 14.6579 63.8606 13.9899 63.5566 13.5019H66.9166C67.1566 13.9899 67.5486 14.7139 68.0926 15.6739C68.6366 16.6499 69.0086 17.3379 69.2086 17.7379C69.4886 17.1539 69.8646 16.4379 70.3366 15.5899C70.8886 14.5979 71.2606 13.9019 71.4526 13.5019H74.7166Z" />
</svg>
