<svg width="93" height="61" viewBox="0 0 93 61" fill="none" xmlns="http://www.w3.org/2000/svg">
<path fill-rule="evenodd" clip-rule="evenodd" d="M75.2042 2.13458C75.1237 0.17572 72.5655 -0.509733 71.5164 1.14642L67.4567 7.55479C65.8004 10.1693 62.7855 11.5495 59.6932 11.4206C58.8166 11.384 57.9435 11.366 57.0768 11.366C56.7379 11.366 56.3972 11.3659 56.0548 11.3658C32.3861 11.3609 0.888672 11.3543 0.888672 34.777C0.888672 58.8785 32.9637 60.3657 57.0768 60.3657C74.2683 60.3657 92.8887 51.9602 92.8887 34.777C92.8887 26.1936 87.8446 20.2496 80.6728 16.4991C77.7751 14.9837 75.6184 12.2114 75.4841 8.94419L75.2042 2.13458Z" fill="#FD6041"/>
<path d="M23.5579 29.2977C23.4739 31.3257 23.4319 33.5037 23.4319 35.8317C23.4319 38.1597 23.4739 40.3377 23.5579 42.3657H19.3279V37.4697H12.7039V42.3657H8.47391C8.56991 40.0377 8.61791 37.8597 8.61791 35.8317C8.61791 33.8037 8.56991 31.6257 8.47391 29.2977H12.7039V34.1937H19.3279V29.2977H23.5579ZM33.0073 42.5457C30.2593 42.5457 28.2373 41.9517 26.9413 40.7637C25.6453 39.5637 24.9973 37.8837 24.9973 35.7237C24.9973 33.5877 25.6393 31.9197 26.9233 30.7197C28.2193 29.5197 30.2473 28.9197 33.0073 28.9197C35.7793 28.9197 37.8073 29.5197 39.0913 30.7197C40.3873 31.9197 41.0353 33.5877 41.0353 35.7237C41.0353 37.8957 40.3933 39.5757 39.1093 40.7637C37.8253 41.9517 35.7913 42.5457 33.0073 42.5457ZM33.0073 38.8737C34.3393 38.8737 35.2993 38.6217 35.8873 38.1177C36.4753 37.6017 36.7693 36.8037 36.7693 35.7237C36.7693 34.6677 36.4753 33.8817 35.8873 33.3657C35.2993 32.8497 34.3393 32.5917 33.0073 32.5917C31.6873 32.5917 30.7333 32.8497 30.1453 33.3657C29.5573 33.8817 29.2633 34.6677 29.2633 35.7237C29.2633 36.7917 29.5573 37.5837 30.1453 38.0997C30.7333 38.6157 31.6873 38.8737 33.0073 38.8737ZM58.9484 29.2977L60.3524 42.3657H55.6904L55.4024 33.0417L53.6024 42.3657H48.8864L47.0504 33.1137L46.7804 42.3657H42.1184L43.5224 29.2977H49.6424L51.2084 37.8117L52.5764 29.2977H58.9484ZM66.0364 39.0717C70.5964 39.0477 73.9024 38.9817 75.9544 38.8737C75.8704 39.3657 75.8164 39.8757 75.7924 40.4037C75.7804 40.9197 75.7744 41.5737 75.7744 42.3657H61.7884C61.8844 40.0377 61.9324 37.8597 61.9324 35.8317C61.9324 33.8037 61.8844 31.6257 61.7884 29.2977H75.7744V32.5557H66.0364V34.2837C66.6124 34.2957 67.4644 34.3017 68.5924 34.3017C70.5004 34.3017 72.4744 34.2657 74.5144 34.1937V37.2897C72.4744 37.2177 70.5004 37.1817 68.5924 37.1817C67.4644 37.1817 66.6124 37.1877 66.0364 37.1997V39.0717ZM83.5897 28.1097C84.7297 28.1097 85.7797 28.3017 86.7397 28.6857C87.7117 29.0697 88.4797 29.6037 89.0437 30.2877C89.6077 30.9717 89.8897 31.7577 89.8897 32.6457C89.8897 33.3657 89.7157 33.9837 89.3677 34.4997C89.0197 35.0157 88.5757 35.4357 88.0357 35.7597L87.0817 36.2997C86.5657 36.5877 86.2237 36.7857 86.0557 36.8937C85.7797 37.0617 85.5877 37.2477 85.4797 37.4517C85.3717 37.6557 85.3177 37.8957 85.3177 38.1717H81.1957C81.1957 37.2597 81.4117 36.4977 81.8437 35.8857C82.2757 35.2617 83.0017 34.7217 84.0217 34.2657C84.4777 34.0617 84.8077 33.8397 85.0117 33.5997C85.2277 33.3477 85.3357 33.0657 85.3357 32.7537C85.3357 32.4057 85.1677 32.1057 84.8317 31.8537C84.5077 31.6017 84.0937 31.4757 83.5897 31.4757C82.9057 31.4757 82.3717 31.6437 81.9877 31.9797C81.6157 32.3157 81.4297 32.7897 81.4297 33.4017C81.4297 33.6417 81.4657 33.9177 81.5377 34.2297C80.5777 33.9537 79.1437 33.8157 77.2357 33.8157C77.2237 33.7077 77.2177 33.5577 77.2177 33.3657C77.2177 32.3577 77.4817 31.4577 78.0097 30.6657C78.5497 29.8617 79.2997 29.2377 80.2597 28.7937C81.2317 28.3377 82.3417 28.1097 83.5897 28.1097ZM85.3357 42.7257H81.1597V39.5217H85.3357V42.7257Z" fill="#FAF5EF"/>
<rect x="3.33887" y="27.3657" width="16" height="16" fill="#FD6041"/>
<path d="M20.5889 35.8657H6.58887M6.58887 35.8657L12.589 29.3657M6.58887 35.8657L12.589 42.3657" stroke="#FAF5EF" stroke-width="3.5" stroke-linecap="round" stroke-linejoin="round"/>
</svg>
