<svg width="65" height="47" viewBox="0 0 65 47" fill="none" xmlns="http://www.w3.org/2000/svg">
<path fill-rule="evenodd" clip-rule="evenodd" d="M39.8658 2.13452C39.7853 0.175663 37.2272 -0.509791 36.178 1.14636L30.9294 9.43151C30.0812 10.7704 28.5225 11.4816 26.9564 11.238C26.9323 11.2342 26.9083 11.2305 26.8842 11.2268C14.9323 9.36753 3.15593 7.53561 0.510254 18.1761C-3.186 33.0419 22.1412 35.2574 37.6846 33.095C37.7959 33.0795 37.9078 33.0639 38.0202 33.0483C49.6851 31.4266 67.2827 28.98 63.6656 18.1761C61.3316 11.205 54.1869 11.7415 46.4844 12.3198C45.7168 12.3774 44.9437 12.4354 44.1692 12.4865C42.0142 12.6286 40.2276 10.9357 40.1389 8.77781L39.8658 2.13452Z" fill="#FD6041"/>
<path d="M12.4197 24.2368C15.9663 24.2182 18.5377 24.1668 20.1337 24.0828C20.0683 24.4655 20.0263 24.8622 20.0077 25.2728C19.9983 25.6742 19.9937 26.1828 19.9937 26.7988H9.11566C9.19033 24.9882 9.22766 23.2942 9.22766 21.7168C9.22766 20.1395 9.19033 18.4455 9.11566 16.6348H19.9937V19.1688H12.4197V20.5128C12.8677 20.5222 13.5303 20.5268 14.4077 20.5268C15.8917 20.5268 17.427 20.4988 19.0137 20.4428V22.8508C17.427 22.7948 15.8917 22.7668 14.4077 22.7668C13.5303 22.7668 12.8677 22.7715 12.4197 22.7808V24.2368ZM32.1063 26.7988C32.181 25.5762 32.2183 24.3115 32.2183 23.0048C32.2183 22.5848 32.111 22.2582 31.8963 22.0248C31.691 21.7822 31.4156 21.6608 31.0703 21.6608C30.753 21.6608 30.4776 21.8008 30.2443 22.0808C30.0203 22.3608 29.9083 22.7668 29.9083 23.2988V23.2848C29.9083 24.9368 29.9316 26.1082 29.9783 26.7988H26.8283C26.8843 25.4268 26.9123 24.1622 26.9123 23.0048C26.9123 22.5942 26.8096 22.2675 26.6043 22.0248C26.4083 21.7822 26.1563 21.6608 25.8483 21.6608C25.5216 21.6608 25.2463 21.8008 25.0223 22.0808C24.8076 22.3515 24.6816 22.7248 24.6443 23.2008C24.6256 23.9102 24.6163 24.4142 24.6163 24.7128C24.6163 25.3475 24.635 26.0428 24.6723 26.7988H21.3263C21.401 25.4548 21.4383 24.1855 21.4383 22.9908C21.4383 21.7962 21.401 20.5175 21.3263 19.1548C21.9423 19.1828 22.4136 19.1968 22.7403 19.1968C23.0856 19.1968 23.557 19.1828 24.1543 19.1548L24.5743 21.2268C24.789 20.4708 25.1296 19.9155 25.5963 19.5608C26.063 19.1968 26.5996 19.0148 27.2063 19.0148C27.9343 19.0148 28.527 19.2155 28.9843 19.6168C29.451 20.0182 29.7403 20.5408 29.8523 21.1848C30.067 20.5222 30.4263 19.9948 30.9303 19.6028C31.4343 19.2108 32.0083 19.0148 32.6523 19.0148C33.4923 19.0148 34.1503 19.2995 34.6263 19.8688C35.1023 20.4288 35.3403 21.1988 35.3403 22.1788V24.5028C35.3403 25.5575 35.3496 26.3228 35.3683 26.7988H32.1063ZM45.5975 24.4748C45.5975 24.7922 45.6348 25.0162 45.7095 25.1468C45.7841 25.2775 45.9335 25.3708 46.1575 25.4268L46.1015 26.7428C45.8028 26.7895 45.5415 26.8222 45.3175 26.8408C45.1028 26.8595 44.8135 26.8688 44.4495 26.8688C43.6468 26.8688 43.1148 26.6915 42.8535 26.3368C42.5921 25.9728 42.4615 25.5108 42.4615 24.9508V24.6008C42.1908 25.3662 41.7941 25.9355 41.2715 26.3088C40.7581 26.6822 40.1001 26.8688 39.2975 26.8688C38.3641 26.8688 37.6595 26.6822 37.1835 26.3088C36.7168 25.9355 36.4835 25.3802 36.4835 24.6428C36.4835 24.0362 36.6841 23.5602 37.0855 23.2148C37.4868 22.8695 38.1075 22.6315 38.9475 22.5008C38.2381 21.9968 37.5288 21.5582 36.8195 21.1848C37.3795 20.4755 38.0188 19.9388 38.7375 19.5748C39.4561 19.2015 40.3288 19.0148 41.3555 19.0148C42.7928 19.0148 43.8568 19.3275 44.5475 19.9528C45.2475 20.5688 45.5975 21.5208 45.5975 22.8088V24.4748ZM41.6495 21.4788C41.1735 21.4788 40.7535 21.5582 40.3895 21.7168C40.0255 21.8755 39.6988 22.1135 39.4095 22.4308C39.9695 22.3655 40.6695 22.3328 41.5095 22.3328C41.8548 22.3328 42.0975 22.2908 42.2375 22.2068C42.3775 22.1228 42.4475 22.0155 42.4475 21.8848C42.4475 21.7728 42.3775 21.6795 42.2375 21.6048C42.0975 21.5208 41.9015 21.4788 41.6495 21.4788ZM40.1795 24.5868C40.7021 24.5868 41.1735 24.4888 41.5935 24.2928C42.0135 24.0875 42.3028 23.8215 42.4615 23.4948V23.1308C42.2375 23.2428 41.9901 23.3315 41.7195 23.3968C41.4488 23.4528 41.1221 23.5088 40.7395 23.5648L40.2355 23.6488C39.7128 23.7515 39.4515 23.9288 39.4515 24.1808C39.4515 24.4515 39.6941 24.5868 40.1795 24.5868ZM48.8764 18.3288C48.2884 18.3288 47.8498 18.1842 47.5604 17.8948C47.2804 17.6055 47.1404 17.2275 47.1404 16.7608C47.1404 16.3035 47.2804 15.9255 47.5604 15.6268C47.8498 15.3282 48.2884 15.1788 48.8764 15.1788C49.4364 15.1788 49.8658 15.3328 50.1644 15.6408C50.4631 15.9395 50.6124 16.3128 50.6124 16.7608C50.6124 17.2275 50.4678 17.6055 50.1784 17.8948C49.8891 18.1842 49.4551 18.3288 48.8764 18.3288ZM47.2524 26.7988C47.3178 25.2962 47.3504 24.0548 47.3504 23.0748C47.3504 21.9082 47.3131 20.6015 47.2384 19.1548H50.5984C50.5238 20.5455 50.4864 21.8522 50.4864 23.0748C50.4864 24.1015 50.5191 25.3428 50.5844 26.7988H47.2524ZM55.1576 21.1988C55.1483 21.7588 55.1436 22.6175 55.1436 23.7748C55.1436 25.1655 55.153 26.1735 55.1716 26.7988H51.8676L51.8816 25.2168C51.9003 23.4808 51.9096 22.1415 51.9096 21.1988C51.9096 20.3028 51.9003 19.0335 51.8816 17.3908L51.8676 15.8788H55.1716C55.153 17.2042 55.1436 18.2868 55.1436 19.1268C55.1436 20.0602 55.1483 20.7508 55.1576 21.1988Z" fill="#FAF5EF"/>
<rect x="42" y="24.2139" width="1" height="1" fill="#FAF5EF"/>
<path d="M31.3705 37.736C31.232 37.8742 31.1374 38.0502 31.0985 38.242L30.7885 39.746L30.0045 37.153L34.0695 35.036L31.3705 37.736ZM39.6725 43.04L34.9095 39.35C34.7102 39.1962 34.4603 39.1232 34.2095 39.1454C33.9588 39.1676 33.7256 39.2835 33.5565 39.47L32.6905 40.425L32.9965 38.938L40.0795 31.855C40.2476 31.6859 40.3497 31.4624 40.3675 31.2246C40.3852 30.9869 40.3175 30.7506 40.1765 30.5584C40.0354 30.3662 39.8304 30.2307 39.5982 30.1764C39.3661 30.122 39.1222 30.1524 38.9105 30.262L28.7455 35.554L25.0205 34.191L42.9995 27L39.6725 43.04Z" fill="#FAF5EF"/>
<path d="M44.2654 25.4736C43.9807 25.2367 43.6371 25.0815 43.2712 25.0245C42.9052 24.9674 42.5307 25.0106 42.1874 25.1496L24.2664 32.3846C23.8832 32.5423 23.5571 32.8127 23.3312 33.1601C23.1054 33.5074 22.9905 33.9152 23.0017 34.3294C23.013 34.7436 23.15 35.1446 23.3944 35.4791C23.6388 35.8136 23.9792 36.066 24.3704 36.2026L27.9954 37.4636L30.0154 44.1456C30.0431 44.2347 30.0831 44.3195 30.1344 44.3976C30.1424 44.4096 30.1534 44.4176 30.1614 44.4306C30.2203 44.5126 30.2915 44.5851 30.3724 44.6456C30.395 44.6632 30.4183 44.6799 30.4424 44.6956C30.5371 44.7584 30.642 44.8044 30.7524 44.8316L30.7654 44.8326L30.7714 44.8356C30.8382 44.849 30.9062 44.8557 30.9744 44.8556L30.9924 44.8526C31.0948 44.8509 31.1963 44.8333 31.2934 44.8006C31.3164 44.7926 31.3354 44.7806 31.3574 44.7706C31.43 44.7408 31.4988 44.7025 31.5624 44.6566C31.613 44.6135 31.6637 44.5705 31.7144 44.5276L34.4164 41.5446L38.4464 44.6666C38.8011 44.9428 39.2378 45.0931 39.6874 45.0936C40.1586 45.093 40.6154 44.9304 40.981 44.6331C41.3466 44.3358 41.5988 43.9218 41.6954 43.4606L44.9584 27.4436C45.0322 27.0832 45.0067 26.7096 44.8846 26.3626C44.7626 26.0156 44.5485 25.7083 44.2654 25.4736ZM31.3704 37.7816C31.2319 37.9198 31.1373 38.0958 31.0984 38.2876L30.7884 39.7916L30.0044 37.1986L34.0694 35.0816L31.3704 37.7816ZM39.6724 43.0856L34.9094 39.3956C34.7101 39.2418 34.4602 39.1687 34.2094 39.191C33.9587 39.2132 33.7255 39.3291 33.5564 39.5156L32.6904 40.4706L32.9964 38.9836L40.0794 31.9006C40.2474 31.7315 40.3496 31.5079 40.3673 31.2702C40.3851 31.0324 40.3174 30.7962 40.1763 30.604C40.0353 30.4118 39.8302 30.2763 39.5981 30.2219C39.366 30.1676 39.1221 30.198 38.9104 30.3076L28.7454 35.5996L25.0204 34.2366L42.9994 27.0456L39.6724 43.0856Z" fill="#FD6041"/>
</svg>
