<svg width="101" height="52" viewBox="0 0 101 52" fill="none" xmlns="http://www.w3.org/2000/svg">
<path fillRule="evenodd" clipRule="evenodd" d="M36.0554 1.61732C35.4707 -0.253948 32.8223 -0.253951 32.2375 1.61732L27.9298 15.4019C27.3946 17.1145 25.783 18.2526 23.9888 18.2367C12.2831 18.1325 2.28802 19.8574 0.435874 30.979C-2.724 49.9532 20.4902 51.4832 45.7878 51.4832C47.5644 51.4832 49.348 51.4899 51.1295 51.4965C77.2286 51.5932 102.898 51.6883 99.9085 30.979C97.4438 13.9024 77.8682 15.8326 59.0229 17.6907C54.4859 18.1381 49.9912 18.5812 45.7878 18.754C45.31 18.7737 44.8283 18.7884 44.3432 18.7989C42.6071 18.8364 41.0786 17.6913 40.5606 16.0338L36.0554 1.61732Z" fill="#FD6041"/>
<path d="M14.0378 31.1305C12.9271 31.0745 12.1058 31.0419 11.5738 31.0325V35.8205C12.1151 35.8112 12.9364 35.7785 14.0378 35.7225V38.5085H5.90375V35.7225C6.97708 35.7785 7.79375 35.8112 8.35375 35.8205V31.0325C7.79375 31.0419 6.97708 31.0745 5.90375 31.1305V28.3445H14.0378V31.1305ZM20.6196 38.5085C20.6756 37.1365 20.7036 35.8719 20.7036 34.7145C20.7036 34.3039 20.6009 33.9772 20.3956 33.7345C20.1996 33.4919 19.9476 33.3705 19.6396 33.3705C19.3316 33.3705 19.0703 33.5105 18.8556 33.7905C18.6409 34.0612 18.5149 34.4345 18.4776 34.9105C18.4589 35.6199 18.4496 36.1239 18.4496 36.4225C18.4496 37.0572 18.4683 37.7525 18.5056 38.5085H15.1596C15.2343 37.1645 15.2716 35.8952 15.2716 34.7005C15.2716 33.5059 15.2343 32.2272 15.1596 30.8645C15.7756 30.8925 16.2469 30.9065 16.5736 30.9065C16.9189 30.9065 17.3903 30.8925 17.9876 30.8645L18.3936 32.9225C18.6083 32.1759 18.9443 31.6252 19.4016 31.2705C19.8589 30.9065 20.3909 30.7245 20.9976 30.7245C21.5576 30.7245 22.0429 30.8505 22.4536 31.1025C22.8643 31.3452 23.1723 31.6765 23.3776 32.0965C23.5923 32.5165 23.6996 32.9879 23.6996 33.5105V35.5265C23.6996 36.7679 23.7229 37.7619 23.7696 38.5085H20.6196ZM29.416 38.6485C28.632 38.6485 27.834 38.5412 27.022 38.3265C26.2193 38.1025 25.4633 37.7665 24.754 37.3185L26.224 35.3165C26.6533 35.6245 27.1713 35.8672 27.778 36.0445C28.3847 36.2125 28.9073 36.2965 29.346 36.2965C29.766 36.2965 30.088 36.2405 30.312 36.1285C30.5453 36.0072 30.662 35.8532 30.662 35.6665C30.662 35.5172 30.606 35.4005 30.494 35.3165C30.382 35.2325 30.228 35.1905 30.032 35.1905C29.9107 35.1905 29.7707 35.1952 29.612 35.2045C29.4627 35.2139 29.3413 35.2232 29.248 35.2325C28.7627 35.2885 28.2633 35.3165 27.75 35.3165C26.9193 35.3165 26.2427 35.1625 25.72 34.8545C25.2067 34.5372 24.95 34.0239 24.95 33.3145C24.95 32.4932 25.3373 31.8585 26.112 31.4105C26.8867 30.9532 28.0253 30.7245 29.528 30.7245C30.2653 30.7245 31.0073 30.8319 31.754 31.0465C32.51 31.2519 33.1773 31.5645 33.756 31.9845L32.146 33.6085C31.614 33.3285 31.1147 33.1325 30.648 33.0205C30.1907 32.8992 29.7287 32.8385 29.262 32.8385C28.9353 32.8385 28.6553 32.9039 28.422 33.0345C28.1887 33.1652 28.072 33.3145 28.072 33.4825C28.072 33.6132 28.1187 33.7159 28.212 33.7905C28.3147 33.8652 28.4453 33.9025 28.604 33.9025C28.7627 33.9025 28.982 33.8885 29.262 33.8605C29.9433 33.8139 30.452 33.7905 30.788 33.7905C31.7587 33.7905 32.51 33.9539 33.042 34.2805C33.574 34.6072 33.84 35.1065 33.84 35.7785C33.84 36.7865 33.448 37.5192 32.664 37.9765C31.88 38.4245 30.7973 38.6485 29.416 38.6485ZM40.8883 33.3705C40.0297 33.3145 39.2457 33.2725 38.5363 33.2445L38.5223 34.7285C38.5223 35.2325 38.6297 35.6292 38.8443 35.9185C39.0683 36.1985 39.4603 36.3385 40.0203 36.3385C40.235 36.3385 40.4403 36.3199 40.6363 36.2825C40.599 36.6279 40.5803 36.9779 40.5803 37.3325C40.5803 37.5005 40.5897 37.8832 40.6083 38.4805C40.1977 38.5552 39.8523 38.6019 39.5723 38.6205C39.2923 38.6392 38.9283 38.6485 38.4803 38.6485C37.3883 38.6485 36.6137 38.3872 36.1563 37.8645C35.7083 37.3325 35.4843 36.5952 35.4843 35.6525L35.4983 33.2865C35.0597 33.3052 34.6023 33.3332 34.1263 33.3705V30.8925C34.6117 30.8925 35.0223 30.7385 35.3583 30.4305C35.6943 30.1225 35.895 29.7539 35.9603 29.3245H39.7683C39.2923 29.9779 38.765 30.5005 38.1863 30.8925H40.8883V33.3705ZM50.6981 36.1845C50.6981 36.5019 50.7354 36.7259 50.8101 36.8565C50.8847 36.9872 51.0341 37.0805 51.2581 37.1365L51.2021 38.4525C50.9034 38.4992 50.6421 38.5319 50.4181 38.5505C50.2034 38.5692 49.9141 38.5785 49.5501 38.5785C48.7474 38.5785 48.2154 38.4012 47.9541 38.0465C47.6927 37.6825 47.5621 37.2205 47.5621 36.6605V36.3105C47.2914 37.0759 46.8947 37.6452 46.3721 38.0185C45.8587 38.3919 45.2007 38.5785 44.3981 38.5785C43.4647 38.5785 42.7601 38.3919 42.2841 38.0185C41.8174 37.6452 41.5841 37.0899 41.5841 36.3525C41.5841 35.7459 41.7847 35.2699 42.1861 34.9245C42.5874 34.5792 43.2081 34.3412 44.0481 34.2105C43.3387 33.7065 42.6294 33.2679 41.9201 32.8945C42.4801 32.1852 43.1194 31.6485 43.8381 31.2845C44.5567 30.9112 45.4294 30.7245 46.4561 30.7245C47.8934 30.7245 48.9574 31.0372 49.6481 31.6625C50.3481 32.2785 50.6981 33.2305 50.6981 34.5185V36.1845ZM46.7501 33.1885C46.2741 33.1885 45.8541 33.2679 45.4901 33.4265C45.1261 33.5852 44.7994 33.8232 44.5101 34.1405C45.0701 34.0752 45.7701 34.0425 46.6101 34.0425C46.9554 34.0425 47.1981 34.0005 47.3381 33.9165C47.4781 33.8325 47.5481 33.7252 47.5481 33.5945C47.5481 33.4825 47.4781 33.3892 47.3381 33.3145C47.1981 33.2305 47.0021 33.1885 46.7501 33.1885ZM45.2801 36.2965C45.8027 36.2965 46.2741 36.1985 46.6941 36.0025C47.1141 35.7972 47.4034 35.5312 47.5621 35.2045V34.8405C47.3381 34.9525 47.0907 35.0412 46.8201 35.1065C46.5494 35.1625 46.2227 35.2185 45.8401 35.2745L45.3361 35.3585C44.8134 35.4612 44.5521 35.6385 44.5521 35.8905C44.5521 36.1612 44.7947 36.2965 45.2801 36.2965ZM58.709 30.8645H61.397C61.3503 32.3952 61.327 34.5699 61.327 37.3885C61.327 38.4992 61.103 39.4092 60.655 40.1185C60.2163 40.8279 59.633 41.3412 58.905 41.6585C58.177 41.9852 57.365 42.1485 56.469 42.1485C55.5823 42.1485 54.789 42.0179 54.089 41.7565C53.389 41.5045 52.857 41.1639 52.493 40.7345L53.123 38.5925C53.627 38.8819 54.103 39.0872 54.551 39.2085C54.999 39.3392 55.4657 39.4045 55.951 39.4045C57.5377 39.4045 58.331 38.7325 58.331 37.3885C58.331 37.1925 58.3357 37.0525 58.345 36.9685C58.345 36.9125 58.345 36.8379 58.345 36.7445C58.3543 36.6512 58.3543 36.5299 58.345 36.3805C57.869 37.7059 56.861 38.3685 55.321 38.3685C54.6957 38.3685 54.1357 38.2005 53.641 37.8645C53.1557 37.5285 52.7777 37.0759 52.507 36.5065C52.2363 35.9279 52.101 35.2932 52.101 34.6025C52.101 33.8932 52.2363 33.2445 52.507 32.6565C52.7777 32.0592 53.1557 31.5879 53.641 31.2425C54.1263 30.8972 54.6723 30.7245 55.279 30.7245C56.8563 30.7245 57.883 31.2799 58.359 32.3905L58.709 30.8645ZM56.777 36.1285C56.9917 36.1285 57.2157 36.0819 57.449 35.9885C57.6823 35.8859 57.883 35.7272 58.051 35.5125C58.219 35.2885 58.303 35.0132 58.303 34.6865C58.303 34.1079 58.1723 33.6972 57.911 33.4545C57.6497 33.2025 57.2623 33.0765 56.749 33.0765C56.301 33.0765 55.9463 33.2259 55.685 33.5245C55.4237 33.8232 55.293 34.2105 55.293 34.6865C55.293 35.1159 55.433 35.4659 55.713 35.7365C56.0023 35.9979 56.357 36.1285 56.777 36.1285ZM65.767 32.9365C66.159 31.5272 67.1343 30.8225 68.693 30.8225C68.9637 30.8225 69.225 30.8412 69.477 30.8785L69.029 34.0145C68.357 33.7625 67.8063 33.6365 67.377 33.6365C66.845 33.6365 66.453 33.7952 66.201 34.1125C65.949 34.4299 65.823 34.8545 65.823 35.3865V35.3725L65.809 36.2965C65.809 36.9592 65.8277 37.6965 65.865 38.5085H62.519C62.5937 37.1645 62.631 35.8952 62.631 34.7005C62.631 33.5059 62.5937 32.2272 62.519 30.8645C63.135 30.8925 63.6063 30.9065 63.933 30.9065C64.2783 30.9065 64.7497 30.8925 65.347 30.8645L65.767 32.9365ZM78.7391 36.1845C78.7391 36.5019 78.7764 36.7259 78.8511 36.8565C78.9257 36.9872 79.0751 37.0805 79.2991 37.1365L79.2431 38.4525C78.9444 38.4992 78.6831 38.5319 78.4591 38.5505C78.2444 38.5692 77.9551 38.5785 77.5911 38.5785C76.7884 38.5785 76.2564 38.4012 75.9951 38.0465C75.7337 37.6825 75.6031 37.2205 75.6031 36.6605V36.3105C75.3324 37.0759 74.9357 37.6452 74.4131 38.0185C73.8997 38.3919 73.2417 38.5785 72.4391 38.5785C71.5057 38.5785 70.8011 38.3919 70.3251 38.0185C69.8584 37.6452 69.6251 37.0899 69.6251 36.3525C69.6251 35.7459 69.8257 35.2699 70.2271 34.9245C70.6284 34.5792 71.2491 34.3412 72.0891 34.2105C71.3797 33.7065 70.6704 33.2679 69.9611 32.8945C70.5211 32.1852 71.1604 31.6485 71.8791 31.2845C72.5977 30.9112 73.4704 30.7245 74.4971 30.7245C75.9344 30.7245 76.9984 31.0372 77.6891 31.6625C78.3891 32.2785 78.7391 33.2305 78.7391 34.5185V36.1845ZM74.7911 33.1885C74.3151 33.1885 73.8951 33.2679 73.5311 33.4265C73.1671 33.5852 72.8404 33.8232 72.5511 34.1405C73.1111 34.0752 73.8111 34.0425 74.6511 34.0425C74.9964 34.0425 75.2391 34.0005 75.3791 33.9165C75.5191 33.8325 75.5891 33.7252 75.5891 33.5945C75.5891 33.4825 75.5191 33.3892 75.3791 33.3145C75.2391 33.2305 75.0431 33.1885 74.7911 33.1885ZM73.3211 36.2965C73.8437 36.2965 74.3151 36.1985 74.7351 36.0025C75.1551 35.7972 75.4444 35.5312 75.6031 35.2045V34.8405C75.3791 34.9525 75.1317 35.0412 74.8611 35.1065C74.5904 35.1625 74.2637 35.2185 73.8811 35.2745L73.3771 35.3585C72.8544 35.4612 72.5931 35.6385 72.5931 35.8905C72.5931 36.1612 72.8357 36.2965 73.3211 36.2965ZM90.992 38.5085C91.0667 37.2859 91.104 36.0212 91.104 34.7145C91.104 34.2945 90.9967 33.9679 90.782 33.7345C90.5767 33.4919 90.3014 33.3705 89.956 33.3705C89.6387 33.3705 89.3634 33.5105 89.13 33.7905C88.906 34.0705 88.794 34.4765 88.794 35.0085V34.9945C88.794 36.6465 88.8174 37.8179 88.864 38.5085H85.714C85.77 37.1365 85.798 35.8719 85.798 34.7145C85.798 34.3039 85.6954 33.9772 85.49 33.7345C85.294 33.4919 85.042 33.3705 84.734 33.3705C84.4074 33.3705 84.132 33.5105 83.908 33.7905C83.6934 34.0612 83.5674 34.4345 83.53 34.9105C83.5114 35.6199 83.502 36.1239 83.502 36.4225C83.502 37.0572 83.5207 37.7525 83.558 38.5085H80.212C80.2867 37.1645 80.324 35.8952 80.324 34.7005C80.324 33.5059 80.2867 32.2272 80.212 30.8645C80.828 30.8925 81.2994 30.9065 81.626 30.9065C81.9714 30.9065 82.4427 30.8925 83.04 30.8645L83.46 32.9365C83.6747 32.1805 84.0154 31.6252 84.482 31.2705C84.9487 30.9065 85.4854 30.7245 86.092 30.7245C86.82 30.7245 87.4127 30.9252 87.87 31.3265C88.3367 31.7279 88.626 32.2505 88.738 32.8945C88.9527 32.2319 89.312 31.7045 89.816 31.3125C90.32 30.9205 90.894 30.7245 91.538 30.7245C92.378 30.7245 93.036 31.0092 93.512 31.5785C93.988 32.1385 94.226 32.9085 94.226 33.8885V36.2125C94.226 37.2672 94.2354 38.0325 94.254 38.5085H90.992Z" fill="#FAF5EF"/>
</svg>
