<svg width="123" height="72" viewBox="0 0 123 72" fill="none" xmlns="http://www.w3.org/2000/svg">
<path fill-rule="evenodd" clip-rule="evenodd" d="M73.5549 0.000165604C41.9966 -0.00549067 0 -0.0130177 0 26.7558C0 50.6387 32.1518 55.0914 61.6579 55.8532C65.2665 55.9463 68.6096 57.7998 70.5414 60.8492L76.6888 70.5533C78.0877 72.7615 81.4986 71.8476 81.6059 69.2358L81.778 65.0508C81.9982 59.693 86.1865 55.4182 91.4357 54.3228C108.357 50.7915 122.667 41.6646 122.667 26.7558C122.667 7.66672 97.1989 0.000328836 74.9176 0.000328836C74.4656 0.000328836 74.0114 0.000247416 73.5549 0.000165604Z" fill="#FD6041"/>
<path d="M30.0298 14.1359C29.9178 16.8399 29.8618 19.7359 29.8618 22.8239C29.8618 25.9279 29.9178 28.8319 30.0298 31.5359H21.4378L15.6298 18.4319L16.0618 31.5359H9.89384C10.0218 28.4319 10.0858 25.5279 10.0858 22.8239C10.0858 20.1359 10.0218 17.2399 9.89384 14.1359H18.7258L24.5578 27.5999L24.1498 14.1359H30.0298ZM37.6125 27.1439C43.6925 27.1119 48.1005 27.0239 50.8365 26.8799C50.7245 27.5359 50.6525 28.2159 50.6205 28.9199C50.6045 29.6079 50.5965 30.4799 50.5965 31.5359H31.9485C32.0765 28.4319 32.1405 25.5279 32.1405 22.8239C32.1405 20.1199 32.0765 17.2159 31.9485 14.1119H50.5965V18.4559H37.6125V20.7599C38.3805 20.7759 39.5165 20.7839 41.0205 20.7839C43.5645 20.7839 46.1965 20.7359 48.9165 20.6399V24.7679C46.1965 24.6719 43.5645 24.6239 41.0205 24.6239C39.5165 24.6239 38.3805 24.6319 37.6125 24.6479V27.1439Z" fill="#FAF5EF"/>
<path d="M85.4003 22.6079L92.4083 31.5359H85.4723L82.0163 26.8319L78.5363 31.5359H71.6003L78.6083 22.6079L71.8403 14.1119H78.7763L82.0163 18.4319L85.2323 14.1119H92.1683L85.4003 22.6079ZM113.579 19.1519C111.067 19.0719 108.627 19.0239 106.259 19.0079V31.5359H100.259V19.0079C97.8752 19.0239 95.4432 19.0719 92.9632 19.1519V14.1119H113.579V19.1519Z" fill="#FAF5EF"/>
<rect x="38.6667" y="20.0002" width="21.3333" height="6.66667" fill="#FD6041"/>
<path d="M86.0683 24.0117L86.6944 23.3334L86.0683 22.6551L70.0676 5.32178L68.3328 3.4425V6.00008V40.6667V43.2243L70.0676 41.345L86.0683 24.0117Z" fill="#FD6041" stroke="#FD6041" stroke-width="2"/>
<path d="M36.0001 21.3336H34.0001V25.3336H36.0001V21.3336ZM82.6667 23.3336L84.1363 24.6902C84.8436 23.924 84.8436 22.7431 84.1363 21.977L82.6667 23.3336ZM73.1969 30.6437C72.4477 31.4553 72.4983 32.7206 73.3099 33.4698C74.1216 34.2191 75.3869 34.1685 76.1361 33.3568L73.1969 30.6437ZM76.1361 13.3103C75.3869 12.4987 74.1216 12.4481 73.3099 13.1973C72.4983 13.9465 72.4477 15.2119 73.1969 16.0235L76.1361 13.3103ZM36.0001 25.3336L82.6667 25.3336V21.3336L36.0001 21.3336V25.3336ZM81.1972 21.977L73.1969 30.6437L76.1361 33.3568L84.1363 24.6902L81.1972 21.977ZM84.1363 21.977L76.1361 13.3103L73.1969 16.0235L81.1972 24.6902L84.1363 21.977Z" fill="#FAF5EF"/>
<path d="M70.2237 46.7942C68.4182 46.8888 67.0679 46.5751 66.1729 45.8529C65.2779 45.1308 64.7931 44.0587 64.7186 42.6366C64.6437 41.2066 65.0118 40.0537 65.8231 39.1781C66.6344 38.3024 67.9428 37.8173 69.7483 37.7227C72.2729 37.5904 74.008 38.3686 74.9536 40.0574C74.2476 40.3428 73.4242 40.7584 72.4835 41.3044C72.2284 40.8692 71.8435 40.5569 71.3289 40.3676C70.8223 40.1778 70.3093 40.0965 69.79 40.1238C69.0231 40.164 68.4626 40.3976 68.1084 40.8247C67.7539 41.2439 67.5921 41.749 67.6231 42.3402C67.6566 42.9793 67.8837 43.4921 68.3045 43.8787C68.7329 44.2568 69.3625 44.424 70.1934 44.3805C70.8565 44.3457 71.3781 44.2103 71.7582 43.974C72.138 43.7298 72.4072 43.3632 72.5658 42.8743C73.2393 43.1914 74.0989 43.5429 75.1445 43.9287C74.7957 44.9164 74.164 45.6264 73.2494 46.0588C72.3348 46.4913 71.3262 46.7364 70.2237 46.7942ZM83.8111 45.962C83.6355 45.5145 83.4018 44.954 83.1101 44.2803L79.2874 44.4807L78.778 46.2257L75.7701 46.3834L78.6696 37.5075L83.0795 37.2763L86.9149 45.7993L83.8111 45.962ZM82.3291 42.4467C81.9816 41.6238 81.626 40.8012 81.2625 39.9791L80.9341 39.2153C80.6926 39.9569 80.3387 41.077 79.8725 42.5754L82.3291 42.4467ZM87.0205 44.7603C87.2707 44.3387 87.4745 43.9475 87.6319 43.5867C87.7972 43.2256 87.9516 42.8089 88.0951 42.3368C88.6795 42.6346 89.352 42.8557 90.1126 43.0001C90.8732 43.1445 91.577 43.1997 92.2241 43.1658C92.8872 43.1311 93.3517 43.0507 93.6174 42.9246C93.8828 42.7905 94.0119 42.6556 94.0048 42.5197C93.9792 42.0324 93.2235 41.8277 91.7375 41.9056C90.1078 41.991 88.9166 41.8852 88.164 41.5882C87.411 41.2831 87.0146 40.7512 86.9749 39.9922C86.9183 38.9137 87.3241 38.0953 88.192 37.5371C89.06 36.9789 90.209 36.6624 91.6391 36.5874C92.4699 36.5439 93.3264 36.6071 94.2085 36.7772C95.0982 36.9389 95.9042 37.185 96.6265 37.5157C96.4224 38.0551 96.2125 38.711 95.9966 39.4833C95.957 39.6456 95.9234 39.7676 95.8956 39.8491C95.471 39.5429 94.8416 39.3035 94.0074 39.131C93.1728 38.9504 92.44 38.8766 91.8088 38.9097C91.0499 38.9495 90.5413 39.0282 90.2831 39.1459C90.0245 39.2556 89.9002 39.4063 89.9103 39.598C89.9203 39.7898 90.1082 39.9361 90.474 40.0371C90.8474 40.1297 91.3776 40.158 92.0646 40.122C93.7583 40.0332 94.9989 40.1645 95.7863 40.5158C96.5734 40.859 96.9878 41.4301 97.0297 42.229C97.0883 43.3475 96.7232 44.1757 95.9342 44.7138C95.1449 45.2438 93.9234 45.5522 92.2696 45.6388C91.3829 45.6853 90.4751 45.6367 89.5463 45.4932C88.6171 45.3416 87.7751 45.0973 87.0205 44.7603ZM100.858 42.8695C103.893 42.6945 106.092 42.5352 107.454 42.3917C107.416 42.7222 107.398 43.0636 107.4 43.4159C107.41 43.7599 107.429 44.1955 107.456 44.7228L98.1452 45.2107C98.1279 43.6575 98.0839 42.2058 98.0131 40.8557C97.9424 39.5055 97.8344 38.0572 97.6893 36.5107L107 36.0227L107.114 38.1917L100.631 38.5315L100.691 39.6819C101.075 39.6698 101.643 39.6441 102.394 39.6047C103.664 39.5381 104.977 39.4453 106.332 39.3262L106.44 41.3874C105.08 41.4106 103.764 41.4555 102.494 41.5221C101.743 41.5614 101.176 41.5952 100.793 41.6232L100.858 42.8695Z" fill="#FAF5EF"/>
</svg>
