<svg width="104" height="81" viewBox="0 0 104 81" fill="none" xmlns="http://www.w3.org/2000/svg">
<path fillRule="evenodd" clipRule="evenodd" d="M63.1824 0.213867C83.9501 0.213867 104 13.4703 104 34.1396C104 53.8787 83.0154 64.2139 63.1824 64.2139C37.232 64.2139 4 59.9672 4 34.1396C4 7.59422 36.5108 0.213867 63.1824 0.213867Z" fill="#FD6041"/>
<path d="M33.9708 18.5659C33.9708 19.8419 33.6555 20.9199 33.0248 21.7999C32.4088 22.6799 31.3455 23.3179 29.8348 23.7139C30.0108 23.9485 30.1355 24.1319 30.2088 24.2639L33.7728 29.2139H27.7888C27.1435 28.0112 26.1241 26.3099 24.7308 24.1099H21.4968V29.2139H16.3048C16.4221 26.3685 16.4808 23.7065 16.4808 21.2279C16.4808 18.7492 16.4221 16.0872 16.3048 13.2419H21.4968V13.2639H26.0068C28.9695 13.2639 31.0375 13.7405 32.2108 14.6939C33.3841 15.6472 33.9708 16.9379 33.9708 18.5659ZM21.4968 17.4879V19.9959H24.4668C25.7135 19.9959 26.6521 19.9592 27.2828 19.8859C27.9281 19.7979 28.3755 19.6659 28.6248 19.4899C28.8741 19.3139 28.9988 19.0572 28.9988 18.7199C28.9988 18.3972 28.8815 18.1479 28.6468 17.9719C28.4121 17.7959 27.9721 17.6712 27.3268 17.5979C26.6815 17.5245 25.7281 17.4879 24.4668 17.4879H21.4968ZM40.9187 25.1879C46.492 25.1585 50.5327 25.0779 53.0407 24.9459C52.938 25.5472 52.872 26.1705 52.8427 26.8159C52.828 27.4465 52.8207 28.2459 52.8207 29.2139H35.7267C35.844 26.3685 35.9027 23.7065 35.9027 21.2279C35.9027 18.7492 35.844 16.0872 35.7267 13.2419H52.8207V17.2239H40.9187V19.3359C41.6227 19.3505 42.664 19.3579 44.0427 19.3579C46.3747 19.3579 48.7873 19.3139 51.2807 19.2259V23.0099C48.7873 22.9219 46.3747 22.8779 44.0427 22.8779C42.664 22.8779 41.6227 22.8852 40.9187 22.8999V25.1879ZM67.3763 29.2139C67.0976 28.3779 66.7236 27.3292 66.2543 26.0679H59.2363L58.1363 29.2139H52.6143L58.7743 13.2419H66.8703L73.0743 29.2139H67.3763ZM65.0003 22.6359C64.4429 21.0959 63.8709 19.5559 63.2843 18.0159L62.7563 16.5859C62.2429 17.9205 61.4876 19.9372 60.4903 22.6359H65.0003ZM80.8585 12.9999C83.6158 12.9999 85.7938 13.3372 87.3925 14.0119C88.9911 14.6719 90.1058 15.5959 90.7365 16.7839C91.3818 17.9572 91.7045 19.4019 91.7045 21.1179C91.7045 22.7459 91.3378 24.1685 90.6045 25.3859C89.8711 26.6032 88.7711 27.5492 87.3045 28.2239C85.8378 28.8839 84.0338 29.2139 81.8925 29.2139C80.5871 29.2139 79.2598 29.2139 77.9105 29.2139C76.5611 29.2139 75.1971 29.2065 73.8185 29.1919C73.9358 26.3025 73.9945 23.6112 73.9945 21.1179C73.9945 18.5952 73.9358 15.9625 73.8185 13.2199C75.5638 13.0732 77.9105 12.9999 80.8585 12.9999ZM82.5085 24.8359C83.8725 24.8359 84.7818 24.5059 85.2365 23.8459C85.6911 23.1859 85.9185 22.2765 85.9185 21.1179C85.9185 20.0032 85.6765 19.1012 85.1925 18.4119C84.7231 17.7225 83.8285 17.3779 82.5085 17.3779C81.0858 17.3779 80.0225 17.4219 79.3185 17.5099V24.8359H82.5085ZM33.7166 35.2419L35.4326 51.2139H29.7346L29.3826 39.8179L27.1826 51.2139H21.4186L19.1746 39.9059L18.8446 51.2139H13.1466L14.8626 35.2419H22.3426L24.2566 45.6479L25.9286 35.2419H33.7166ZM46.5479 51.4339C43.1893 51.4339 40.7179 50.7079 39.1339 49.2559C37.5499 47.7892 36.7579 45.7359 36.7579 43.0959C36.7579 40.4852 37.5426 38.4465 39.1119 36.9799C40.6959 35.5132 43.1746 34.7799 46.5479 34.7799C49.9359 34.7799 52.4146 35.5132 53.9839 36.9799C55.5679 38.4465 56.3599 40.4852 56.3599 43.0959C56.3599 45.7505 55.5753 47.8039 54.0059 49.2559C52.4366 50.7079 49.9506 51.4339 46.5479 51.4339ZM46.5479 46.9459C48.1759 46.9459 49.3493 46.6379 50.0679 46.0219C50.7866 45.3912 51.1459 44.4159 51.1459 43.0959C51.1459 41.8052 50.7866 40.8445 50.0679 40.2139C49.3493 39.5832 48.1759 39.2679 46.5479 39.2679C44.9346 39.2679 43.7686 39.5832 43.0499 40.2139C42.3313 40.8445 41.9719 41.8052 41.9719 43.0959C41.9719 44.4012 42.3313 45.3692 43.0499 45.9999C43.7686 46.6305 44.9346 46.9459 46.5479 46.9459ZM75.7794 40.5659C75.7794 41.8419 75.4641 42.9199 74.8334 43.7999C74.2174 44.6799 73.1541 45.3179 71.6434 45.7139C71.8194 45.9485 71.9441 46.1319 72.0174 46.2639L75.5814 51.2139H69.5974C68.9521 50.0112 67.9327 48.3099 66.5394 46.1099H63.3054V51.2139H58.1134C58.2307 48.3685 58.2894 45.7065 58.2894 43.2279C58.2894 40.7492 58.2307 38.0872 58.1134 35.2419H63.3054V35.2639H67.8154C70.7781 35.2639 72.8461 35.7405 74.0194 36.6939C75.1927 37.6472 75.7794 38.9379 75.7794 40.5659ZM63.3054 39.4879V41.9959H66.2754C67.5221 41.9959 68.4607 41.9592 69.0914 41.8859C69.7367 41.7979 70.1841 41.6659 70.4334 41.4899C70.6827 41.3139 70.8074 41.0572 70.8074 40.7199C70.8074 40.3972 70.6901 40.1479 70.4554 39.9719C70.2207 39.7959 69.7807 39.6712 69.1354 39.5979C68.4901 39.5245 67.5367 39.4879 66.2754 39.4879H63.3054ZM82.7273 47.1879C88.3006 47.1585 92.3413 47.0779 94.8493 46.9459C94.7466 47.5472 94.6806 48.1705 94.6513 48.8159C94.6366 49.4465 94.6293 50.2459 94.6293 51.2139H77.5353C77.6526 48.3685 77.7113 45.7065 77.7113 43.2279C77.7113 40.7492 77.6526 38.0872 77.5353 35.2419H94.6293V39.2239H82.7273V41.3359C83.4313 41.3505 84.4726 41.3579 85.8513 41.3579C88.1833 41.3579 90.5959 41.3139 93.0893 41.2259V45.0099C90.5959 44.9219 88.1833 44.8779 85.8513 44.8779C84.4726 44.8779 83.4313 44.8852 82.7273 44.8999V47.1879Z" fill="#FAF5EF"/>
<path d="M72.667 74.0255V56.6821L85.687 67.8421L80.0537 68.0671C79.379 68.0944 78.7168 68.2569 78.1061 68.5449C77.4954 68.8329 76.9488 69.2406 76.4987 69.7438L72.667 74.0255Z" fill="#FAF5EF"/>
<path d="M73.7953 54.3571C72.3703 53.1338 70.167 54.1471 70.167 56.0255V74.8155C70.167 76.8321 72.6587 77.7855 74.0037 76.2821L78.3603 71.4105C78.8203 70.8971 79.467 70.5938 80.1553 70.5655L86.5553 70.3088C88.5503 70.2288 89.4137 67.7438 87.897 66.4421L73.797 54.3571H73.7953ZM72.667 74.0255V56.6821L85.687 67.8421L80.0537 68.0671C79.379 68.0944 78.7168 68.2569 78.1061 68.5449C77.4954 68.8329 76.9488 69.2406 76.4987 69.7438L72.667 74.0255Z" fill="#FD6041"/>
<path d="M14.4 0.213867C14.8243 0.213867 15.2313 0.382438 15.5314 0.682496C15.8314 0.982554 16 1.38952 16 1.81387V7.1472C16 7.57155 15.8314 7.97851 15.5314 8.27857C15.2313 8.57863 14.8243 8.7472 14.4 8.7472C13.9757 8.7472 13.5687 8.57863 13.2686 8.27857C12.9686 7.97851 12.8 7.57155 12.8 7.1472V1.81387C12.8 1.38952 12.9686 0.982554 13.2686 0.682496C13.5687 0.382438 13.9757 0.213867 14.4 0.213867ZM4.20267 4.41653C4.50267 4.11691 4.90933 3.94861 5.33333 3.94861C5.75733 3.94861 6.164 4.11691 6.464 4.41653L10.1973 8.14987C10.3545 8.29634 10.4806 8.47299 10.5681 8.66925C10.6555 8.86552 10.7025 9.07739 10.7063 9.29222C10.7101 9.50705 10.6706 9.72045 10.5901 9.91967C10.5097 10.1189 10.3899 10.2999 10.2379 10.4518C10.086 10.6037 9.90504 10.7235 9.70581 10.804C9.50658 10.8845 9.29318 10.924 9.07835 10.9202C8.86352 10.9164 8.65165 10.8694 8.45539 10.7819C8.25912 10.6945 8.08248 10.5684 7.936 10.4112L4.20267 6.67787C3.90304 6.37787 3.73474 5.9712 3.73474 5.5472C3.73474 5.1232 3.90304 4.71653 4.20267 4.41653ZM0 14.6139C0 14.1895 0.168571 13.7826 0.468629 13.4825C0.768687 13.1824 1.17565 13.0139 1.6 13.0139H6.93333C7.35768 13.0139 7.76465 13.1824 8.0647 13.4825C8.36476 13.7826 8.53333 14.1895 8.53333 14.6139C8.53333 15.0382 8.36476 15.4452 8.0647 15.7452C7.76465 16.0453 7.35768 16.2139 6.93333 16.2139H1.6C1.17565 16.2139 0.768687 16.0453 0.468629 15.7452C0.168571 15.4452 0 15.0382 0 14.6139Z" fill="#FD6041"/>
</svg>
