<svg width="81" height="43" viewBox="0 0 81 43" fill="none" xmlns="http://www.w3.org/2000/svg">
<path fill-rule="evenodd" clip-rule="evenodd" d="M76.4054 2.65997C76.8346 0.747021 74.5411 -0.577171 73.099 0.751008L62.3879 10.6163C61.4989 11.435 60.2882 11.8032 59.0892 11.6511C49.3118 10.41 37.6158 10.4129 27.3946 10.4155C26.9372 10.4156 26.4826 10.4157 26.0314 10.4157C12.6633 10.4157 1.63708 12.7434 0.145994 24.0758C-1.47016 36.3588 10.5361 42.4152 26.0314 42.4152C50.2083 42.4152 80.146 38.8202 80.146 24.0758C80.146 21.1029 78.7268 18.7767 76.2718 16.9566C74.783 15.8528 73.8476 14.0598 74.2534 12.2513L76.4054 2.65997Z" fill="#FD6041"/>
<path d="M17.9592 23.639C17.9592 24.451 17.7586 25.137 17.3572 25.697C16.9652 26.257 16.2886 26.663 15.3272 26.915C15.4392 27.0644 15.5186 27.181 15.5652 27.265L17.8332 30.415H14.0252C13.6146 29.6497 12.9659 28.567 12.0792 27.167H10.0212V30.415H6.71723C6.79189 28.6044 6.82923 26.9104 6.82923 25.333C6.82923 23.7557 6.79189 22.0617 6.71723 20.251H10.0212V20.265H12.8912C14.7766 20.265 16.0926 20.5684 16.8392 21.175C17.5859 21.7817 17.9592 22.603 17.9592 23.639ZM10.0212 22.953V24.549H11.9112C12.7046 24.549 13.3019 24.5257 13.7032 24.479C14.1139 24.423 14.3986 24.339 14.5572 24.227C14.7159 24.115 14.7952 23.9517 14.7952 23.737C14.7952 23.5317 14.7206 23.373 14.5712 23.261C14.4219 23.149 14.1419 23.0697 13.7312 23.023C13.3206 22.9764 12.7139 22.953 11.9112 22.953H10.0212ZM25.7853 26.915H21.2213C21.296 27.3257 21.478 27.6617 21.7673 27.923C22.066 28.175 22.486 28.301 23.0273 28.301C23.4193 28.301 23.788 28.2264 24.1333 28.077C24.4787 27.9184 24.754 27.699 24.9593 27.419C25.5847 27.727 26.4153 28.0584 27.4513 28.413C27.162 29.0664 26.6347 29.589 25.8693 29.981C25.1133 30.3637 24.124 30.555 22.9013 30.555C21.3147 30.555 20.1387 30.191 19.3733 29.463C18.6173 28.7257 18.2393 27.7597 18.2393 26.565C18.2393 25.3984 18.6173 24.451 19.3733 23.723C20.1293 22.995 21.3053 22.631 22.9013 22.631C23.8533 22.631 24.6793 22.7897 25.3793 23.107C26.0793 23.4244 26.616 23.8677 26.9893 24.437C27.3627 24.997 27.5493 25.641 27.5493 26.369C27.5493 26.6117 27.54 26.7937 27.5213 26.915H25.7853ZM23.0973 24.745C22.6307 24.745 22.248 24.8337 21.9493 25.011C21.6507 25.1884 21.4407 25.431 21.3193 25.739H24.6233C24.5113 25.4404 24.3293 25.2024 24.0773 25.025C23.8253 24.8384 23.4987 24.745 23.0973 24.745ZM33.0459 30.555C32.2619 30.555 31.4639 30.4477 30.6519 30.233C29.8492 30.009 29.0932 29.673 28.3839 29.225L29.8539 27.223C30.2832 27.531 30.8012 27.7737 31.4079 27.951C32.0145 28.119 32.5372 28.203 32.9759 28.203C33.3959 28.203 33.7179 28.147 33.9419 28.035C34.1752 27.9137 34.2919 27.7597 34.2919 27.573C34.2919 27.4237 34.2359 27.307 34.1239 27.223C34.0119 27.139 33.8579 27.097 33.6619 27.097C33.5405 27.097 33.4005 27.1017 33.2419 27.111C33.0925 27.1204 32.9712 27.1297 32.8779 27.139C32.3925 27.195 31.8932 27.223 31.3799 27.223C30.5492 27.223 29.8725 27.069 29.3499 26.761C28.8365 26.4437 28.5799 25.9304 28.5799 25.221C28.5799 24.3997 28.9672 23.765 29.7419 23.317C30.5165 22.8597 31.6552 22.631 33.1579 22.631C33.8952 22.631 34.6372 22.7384 35.3839 22.953C36.1399 23.1584 36.8072 23.471 37.3859 23.891L35.7759 25.515C35.2439 25.235 34.7445 25.039 34.2779 24.927C33.8205 24.8057 33.3585 24.745 32.8919 24.745C32.5652 24.745 32.2852 24.8104 32.0519 24.941C31.8185 25.0717 31.7019 25.221 31.7019 25.389C31.7019 25.5197 31.7485 25.6224 31.8419 25.697C31.9445 25.7717 32.0752 25.809 32.2339 25.809C32.3925 25.809 32.6119 25.795 32.8919 25.767C33.5732 25.7204 34.0819 25.697 34.4179 25.697C35.3885 25.697 36.1399 25.8604 36.6719 26.187C37.2039 26.5137 37.4699 27.013 37.4699 27.685C37.4699 28.693 37.0779 29.4257 36.2939 29.883C35.5099 30.331 34.4272 30.555 33.0459 30.555ZM47.0596 22.771C46.9943 23.947 46.9616 25.2164 46.9616 26.579C46.9616 27.951 46.9943 29.2297 47.0596 30.415C46.4623 30.387 45.991 30.373 45.6456 30.373C45.319 30.373 44.8476 30.387 44.2316 30.415L43.8256 28.357C43.611 29.1037 43.275 29.659 42.8176 30.023C42.3603 30.3777 41.8283 30.555 41.2216 30.555C40.6616 30.555 40.1763 30.4337 39.7656 30.191C39.355 29.939 39.0423 29.603 38.8276 29.183C38.6223 28.763 38.5196 28.2917 38.5196 27.769V25.753C38.5196 24.5117 38.4963 23.5177 38.4496 22.771H41.5996C41.5436 24.143 41.5156 25.501 41.5156 26.845C41.5156 27.2557 41.6136 27.5824 41.8096 27.825C42.015 28.0677 42.2716 28.189 42.5796 28.189C42.869 28.189 43.121 28.063 43.3356 27.811C43.5596 27.5497 43.695 27.195 43.7416 26.747V26.425C43.7603 25.697 43.7696 25.193 43.7696 24.913C43.7696 24.269 43.751 23.555 43.7136 22.771H47.0596ZM59.034 30.415C59.1087 29.1924 59.146 27.9277 59.146 26.621C59.146 26.201 59.0387 25.8744 58.824 25.641C58.6187 25.3984 58.3434 25.277 57.998 25.277C57.6807 25.277 57.4054 25.417 57.172 25.697C56.948 25.977 56.836 26.383 56.836 26.915V26.901C56.836 28.553 56.8594 29.7244 56.906 30.415H53.756C53.812 29.043 53.84 27.7784 53.84 26.621C53.84 26.2104 53.7374 25.8837 53.532 25.641C53.336 25.3984 53.084 25.277 52.776 25.277C52.4494 25.277 52.174 25.417 51.95 25.697C51.7354 25.9677 51.6094 26.341 51.572 26.817C51.5534 27.5264 51.544 28.0304 51.544 28.329C51.544 28.9637 51.5627 29.659 51.6 30.415H48.254C48.3287 29.071 48.366 27.8017 48.366 26.607C48.366 25.4124 48.3287 24.1337 48.254 22.771C48.87 22.799 49.3414 22.813 49.668 22.813C50.0134 22.813 50.4847 22.799 51.082 22.771L51.502 24.843C51.7167 24.087 52.0574 23.5317 52.524 23.177C52.9907 22.813 53.5274 22.631 54.134 22.631C54.862 22.631 55.4547 22.8317 55.912 23.233C56.3787 23.6344 56.668 24.157 56.78 24.801C56.9947 24.1384 57.354 23.611 57.858 23.219C58.362 22.827 58.936 22.631 59.58 22.631C60.42 22.631 61.078 22.9157 61.554 23.485C62.03 24.045 62.268 24.815 62.268 25.795V28.119C62.268 29.1737 62.2774 29.939 62.296 30.415H59.034ZM70.9572 26.915H66.3932C66.4679 27.3257 66.6499 27.6617 66.9392 27.923C67.2379 28.175 67.6579 28.301 68.1992 28.301C68.5912 28.301 68.9599 28.2264 69.3052 28.077C69.6505 27.9184 69.9259 27.699 70.1312 27.419C70.7565 27.727 71.5872 28.0584 72.6232 28.413C72.3339 29.0664 71.8065 29.589 71.0412 29.981C70.2852 30.3637 69.2959 30.555 68.0732 30.555C66.4865 30.555 65.3105 30.191 64.5452 29.463C63.7892 28.7257 63.4112 27.7597 63.4112 26.565C63.4112 25.3984 63.7892 24.451 64.5452 23.723C65.3012 22.995 66.4772 22.631 68.0732 22.631C69.0252 22.631 69.8512 22.7897 70.5512 23.107C71.2512 23.4244 71.7879 23.8677 72.1612 24.437C72.5345 24.997 72.7212 25.641 72.7212 26.369C72.7212 26.6117 72.7119 26.7937 72.6932 26.915H70.9572ZM68.2692 24.745C67.8025 24.745 67.4199 24.8337 67.1212 25.011C66.8225 25.1884 66.6125 25.431 66.4912 25.739H69.7952C69.6832 25.4404 69.5012 25.2024 69.2492 25.025C68.9972 24.8384 68.6705 24.745 68.2692 24.745Z" fill="#FAF5EF"/>
</svg>
