<svg width="45" height="144" viewBox="0 0 45 144" fill="none" xmlns="http://www.w3.org/2000/svg">
<path fill-rule="evenodd" clip-rule="evenodd" d="M28.2932 130C28.5916 130 28.8777 130.119 29.0887 130.33C29.2997 130.541 29.4182 130.827 29.4182 131.125L29.4182 140.161L33.1233 136.456C33.2263 136.345 33.3505 136.257 33.4886 136.195C33.6266 136.134 33.7755 136.101 33.9266 136.098C34.0777 136.095 34.2277 136.123 34.3678 136.18C34.5079 136.236 34.6351 136.32 34.742 136.427C34.8488 136.534 34.933 136.661 34.9896 136.801C35.0462 136.941 35.074 137.091 35.0713 137.243C35.0686 137.394 35.0356 137.543 34.9741 137.681C34.9126 137.819 34.8239 137.943 34.7134 138.046L29.0882 143.671C28.8773 143.882 28.5913 144 28.2932 144C27.995 144 27.7091 143.882 27.4982 143.671L21.873 138.046C21.7624 137.943 21.6738 137.819 21.6123 137.681C21.5508 137.543 21.5177 137.394 21.5151 137.243C21.5124 137.091 21.5402 136.941 21.5968 136.801C21.6534 136.661 21.7376 136.534 21.8444 136.427C21.9512 136.32 22.0785 136.236 22.2186 136.18C22.3587 136.123 22.5087 136.095 22.6598 136.098C22.8108 136.101 22.9598 136.134 23.0978 136.195C23.2358 136.257 23.36 136.345 23.463 136.456L27.1681 140.161L27.1682 131.125C27.1682 130.827 27.2867 130.541 27.4977 130.33C27.7087 130.119 27.9948 130 28.2932 130Z" fill="#FD6041"/>
<path fill-rule="evenodd" clip-rule="evenodd" d="M27.5021 0.329021C27.713 0.118338 27.999 0 28.2971 0C28.5953 0 28.8812 0.118338 29.0921 0.329021L34.7173 5.95421C34.9161 6.16748 35.0242 6.44956 35.0191 6.74102C35.014 7.03248 34.8959 7.31057 34.6898 7.5167C34.4836 7.72282 34.2056 7.8409 33.9141 7.84604C33.6226 7.85118 33.3405 7.74299 33.1273 7.54427L29.4222 3.83914V11.875C29.4222 12.1733 29.3036 12.4595 29.0926 12.6705C28.8817 12.8815 28.5955 13 28.2971 13C27.9987 13 27.7126 12.8815 27.5016 12.6705C27.2906 12.4595 27.1721 12.1733 27.1721 11.875V3.83914L23.467 7.54427C23.2537 7.74299 22.9716 7.85118 22.6801 7.84604C22.3887 7.8409 22.1106 7.72282 21.9045 7.5167C21.6983 7.31057 21.5803 7.03248 21.5751 6.74102C21.57 6.44956 21.6782 6.16748 21.8769 5.95421L27.5021 0.329021Z" fill="#FD6041"/>
<path fill-rule="evenodd" clip-rule="evenodd" d="M44.0064 69.1747C43.8715 65.0078 43.7402 60.9491 43.7401 57.1904C43.74 39.4768 42.9899 14.5324 26.4283 16.0676C12.3088 17.3765 12.6895 41.0858 12.9742 58.8138V58.8138C12.99 59.7943 12.3581 60.6677 11.4222 60.9602L1.40345 64.091C-0.467815 64.6758 -0.467818 67.3242 1.40345 67.909L9.92286 70.5713C11.6652 71.1157 12.821 72.771 12.6962 74.5921C12.5292 77.0287 12.322 79.4487 12.1186 81.824C10.6024 99.5298 9.29847 114.758 26.4283 115.95C45.5633 117.282 44.7338 91.6533 44.0064 69.1747Z" fill="#FD6041"/>
<path d="M28.2949 100.667C30.4167 100.667 32.4515 101.51 33.9518 103.01C35.4521 104.51 36.2949 106.545 36.2949 108.667V119.333C36.2949 121.455 35.4521 123.49 33.9518 124.99C32.4515 126.491 30.4167 127.333 28.2949 127.333C26.1732 127.333 24.1384 126.491 22.6381 124.99C21.1378 123.49 20.2949 121.455 20.2949 119.333V108.667C20.2949 106.545 21.1378 104.51 22.6381 103.01C24.1384 101.51 26.1732 100.667 28.2949 100.667Z" fill="#FAF5EF"/>
<path d="M28.2949 103.333C26.8804 103.333 25.5239 103.895 24.5237 104.896C23.5235 105.896 22.9616 107.252 22.9616 108.667V119.333C22.9616 120.748 23.5235 122.104 24.5237 123.105C25.5239 124.105 26.8804 124.667 28.2949 124.667C29.7094 124.667 31.066 124.105 32.0662 123.105C33.0664 122.104 33.6283 120.748 33.6283 119.333V108.667C33.6283 107.252 33.0664 105.896 32.0662 104.896C31.066 103.895 29.7094 103.333 28.2949 103.333ZM28.2949 100.667C30.4167 100.667 32.4515 101.51 33.9518 103.01C35.4521 104.51 36.2949 106.545 36.2949 108.667V119.333C36.2949 121.455 35.4521 123.49 33.9518 124.99C32.4515 126.491 30.4167 127.333 28.2949 127.333C26.1732 127.333 24.1384 126.491 22.6381 124.99C21.1378 123.49 20.2949 121.455 20.2949 119.333V108.667C20.2949 106.545 21.1378 104.51 22.6381 103.01C24.1384 101.51 26.1732 100.667 28.2949 100.667V100.667ZM29.6283 111.333C29.6283 111.687 29.4878 112.026 29.2377 112.276C28.9877 112.526 28.6485 112.667 28.2949 112.667C27.9413 112.667 27.6022 112.526 27.3521 112.276C27.1021 112.026 26.9616 111.687 26.9616 111.333V107.333C26.9616 106.98 27.1021 106.641 27.3521 106.391C27.6022 106.141 27.9413 106 28.2949 106C28.6485 106 28.9877 106.141 29.2377 106.391C29.4878 106.641 29.6283 106.98 29.6283 107.333V111.333Z" fill="#FD6041"/>
<path d="M21.8881 31.796C22.2055 31.32 22.4668 30.8767 22.6721 30.466C22.8868 30.0553 23.0921 29.5793 23.2881 29.038C23.9508 29.4207 24.7208 29.7193 25.5981 29.934C26.4755 30.1487 27.2921 30.256 28.0481 30.256C28.8228 30.256 29.3688 30.1907 29.6861 30.06C30.0035 29.92 30.1621 29.7707 30.1621 29.612C30.1621 29.0427 29.2941 28.758 27.5581 28.758C25.6541 28.758 24.2728 28.562 23.4141 28.17C22.5555 27.7687 22.1261 27.1247 22.1261 26.238C22.1261 24.978 22.6488 24.0493 23.6941 23.452C24.7395 22.8547 26.0975 22.556 27.7681 22.556C28.7388 22.556 29.7328 22.682 30.7501 22.934C31.7768 23.1767 32.7008 23.5127 33.5221 23.942C33.2515 24.558 32.9668 25.3093 32.6681 26.196C32.6121 26.3827 32.5655 26.5227 32.5281 26.616C32.0521 26.2333 31.3335 25.916 30.3721 25.664C29.4108 25.4027 28.5615 25.272 27.8241 25.272C26.9375 25.272 26.3401 25.3327 26.0321 25.454C25.7241 25.566 25.5701 25.734 25.5701 25.958C25.5701 26.182 25.7801 26.364 26.2001 26.504C26.6295 26.6347 27.2455 26.7 28.0481 26.7C30.0268 26.7 31.4641 26.9287 32.3601 27.386C33.2561 27.834 33.7041 28.5247 33.7041 29.458C33.7041 30.7647 33.2281 31.7073 32.2761 32.286C31.3241 32.8553 29.8821 33.14 27.9501 33.14C26.9141 33.14 25.8595 33.028 24.7861 32.804C23.7128 32.5707 22.7468 32.2347 21.8881 31.796ZM27.9114 46.14C25.8021 46.14 24.2481 45.692 23.2494 44.796C22.2507 43.9 21.7514 42.6213 21.7514 40.96C21.7514 39.2893 22.2507 37.9687 23.2494 36.998C24.2481 36.0273 25.8021 35.542 27.9114 35.542C30.8607 35.542 32.8347 36.5547 33.8334 38.58C32.9934 38.8693 32.0087 39.3033 30.8794 39.882C30.6087 39.3593 30.1794 38.972 29.5914 38.72C29.0127 38.468 28.4201 38.342 27.8134 38.342C26.9174 38.342 26.2501 38.58 25.8114 39.056C25.3727 39.5227 25.1534 40.1013 25.1534 40.792C25.1534 41.5387 25.3867 42.15 25.8534 42.626C26.3294 43.0927 27.0527 43.326 28.0234 43.326C28.7981 43.326 29.4141 43.2 29.8714 42.948C30.3287 42.6867 30.6647 42.276 30.8794 41.716C31.6447 42.1267 32.6247 42.5887 33.8194 43.102C33.3527 44.2313 32.5734 45.02 31.4814 45.468C30.3894 45.916 29.1994 46.14 27.9114 46.14ZM33.4172 52.224C33.4172 53.036 33.2166 53.722 32.8152 54.282C32.4232 54.842 31.7466 55.248 30.7852 55.5C30.8972 55.6493 30.9766 55.766 31.0232 55.85L33.2912 59H29.4832C29.0726 58.2347 28.4239 57.152 27.5372 55.752H25.4792V59H22.1752C22.2499 57.1893 22.2872 55.4953 22.2872 53.918C22.2872 52.3407 22.2499 50.6467 22.1752 48.836H25.4792V48.85H28.3492C30.2346 48.85 31.5506 49.1533 32.2972 49.76C33.0439 50.3667 33.4172 51.188 33.4172 52.224ZM25.4792 51.538L25.4792 53.134H27.3692C28.1626 53.134 28.7599 53.1107 29.1612 53.064C29.5719 53.008 29.8566 52.924 30.0152 52.812C30.1739 52.7 30.2532 52.5367 30.2532 52.322C30.2532 52.1167 30.1786 51.958 30.0292 51.846C29.8799 51.734 29.5999 51.6547 29.1892 51.608C28.7786 51.5613 28.1719 51.538 27.3692 51.538H25.4792ZM27.79 72.14C25.6527 72.14 24.08 71.678 23.072 70.754C22.064 69.8207 21.56 68.514 21.56 66.834C21.56 65.1727 22.0593 63.8753 23.058 62.942C24.066 62.0087 25.6433 61.542 27.79 61.542C29.946 61.542 31.5233 62.0087 32.522 62.942C33.53 63.8753 34.034 65.1727 34.034 66.834C34.034 68.5233 33.5347 69.83 32.536 70.754C31.5373 71.678 29.9553 72.14 27.79 72.14ZM27.79 69.284C28.826 69.284 29.5727 69.088 30.03 68.696C30.4873 68.2947 30.716 67.674 30.716 66.834C30.716 66.0127 30.4873 65.4013 30.03 65C29.5727 64.5987 28.826 64.398 27.79 64.398C26.7633 64.398 26.0213 64.5987 25.564 65C25.1067 65.4013 24.878 66.0127 24.878 66.834C24.878 67.6647 25.1067 68.2807 25.564 68.682C26.0213 69.0833 26.7633 69.284 27.79 69.284ZM26.2817 82.172C28.9883 82.1533 31.2283 82.1067 33.0017 82.032C32.8803 82.508 32.8057 82.9653 32.7777 83.404C32.7497 83.8427 32.7357 84.3747 32.7357 85H22.8657C22.9403 83.1893 22.9777 81.4953 22.9777 79.918C22.9777 78.3407 22.9403 76.6467 22.8657 74.836H26.2817L26.2817 82.172ZM26.1449 95.172C28.8516 95.1533 31.0916 95.1067 32.8649 95.032C32.7436 95.508 32.6689 95.9653 32.6409 96.404C32.6129 96.8427 32.5989 97.3747 32.5989 98H22.7289C22.8036 96.1893 22.8409 94.4953 22.8409 92.918C22.8409 91.3407 22.8036 89.6467 22.7289 87.836H26.1449V95.172Z" fill="#FAF5EF"/>
</svg>
