<svg xmlns="http://www.w3.org/2000/svg" width="127" height="64" viewBox="0 0 127 64">
<path className="hintblob-fill-text" fillRule="evenodd" clipRule="evenodd" d="M64.7595 0.414074C30.4904 -1.56048 7.50017 11.2656 1.00017 30.2656C-1.11211 36.44 -0.499832 45.2656 11.0002 50.2653C22.5002 55.265 45.6586 56.7144 64.7595 55.9165C89.1954 54.8958 109.279 53.6314 117.606 38.2241C128.251 18.527 95.9445 2.21093 64.7595 0.414074Z"/>
<path className="hintblob-fill-blob" fillRule="evenodd" clipRule="evenodd" d="M1.00057 30.2656C7.50057 11.2656 30.4908 -1.56048 64.7599 0.414074C77.5583 1.15151 90.5456 4.33441 100.675 9.19286C101.857 9.75947 102.057 11.3318 101.09 12.2164C100.741 12.5364 100.284 12.7139 99.81 12.7139H96.7135C95.9811 12.713 95.3535 12.9739 94.8309 13.4965C94.3082 14.0192 94.0469 14.6472 94.0469 15.3805V25.0472C94.046 25.7796 94.3069 26.4072 94.8295 26.9299C95.3522 27.4525 95.9802 27.7139 96.7135 27.7139H106.38C107.113 27.7148 107.74 27.4539 108.263 26.9312C108.786 26.4085 109.047 25.7805 109.047 25.0472V22.7594C109.047 21.7653 109.419 20.8071 110.09 20.0737C111.581 18.4448 114.149 18.3182 115.54 20.0335C119.926 25.4431 121.162 31.645 117.606 38.2241C116.779 39.7541 116.636 41.5998 117.443 43.1404L126.651 60.7194C127.561 62.4561 125.688 64.3288 123.951 63.4191L103.971 52.9533C102.029 51.9361 99.7631 51.7867 97.6455 52.354C88.4518 54.8172 77.1668 55.3983 64.7599 55.9165C45.659 56.7144 22.5006 55.265 11.0006 50.2653C-0.499428 45.2656 -1.11171 36.44 1.00057 30.2656ZM97.5476 24.2139C98.0631 24.7293 98.8988 24.7293 99.4143 24.2139L114.381 9.2472V14.2139C114.381 15.2264 115.202 16.0472 116.214 16.0472C117.227 16.0472 118.048 15.2264 118.048 14.2139V5.0353C118.048 4.30549 117.456 3.71387 116.726 3.71387H105.548C104.535 3.71387 103.714 4.53468 103.714 5.5472C103.714 6.55972 104.535 7.38053 105.548 7.38053H112.514L97.5476 22.3472C97.0321 22.8627 97.0321 23.6984 97.5476 24.2139Z"/>
<path className="hintblob-fill-text" d="M46.3134 9.74187L44.8614 13.1079C43.5854 16.0852 42.5807 18.4685 41.8474 20.2579C41.1141 22.0472 40.4394 23.8659 39.8234 25.7139H33.2454C32.6441 23.8952 31.9767 22.0985 31.2434 20.3239C30.5247 18.5345 29.5567 16.2465 28.3394 13.4599C28.1341 12.9905 27.5987 11.7512 26.7334 9.74187H32.8494C33.2894 11.1645 33.9421 12.9905 34.8074 15.2199C35.5701 17.1852 36.1861 18.8865 36.6554 20.3239C36.9634 19.3119 37.3301 18.2339 37.7554 17.0899C38.1954 15.9312 38.4594 15.2272 38.5474 14.9779C39.3981 12.7339 40.0214 10.9885 40.4174 9.74187H46.3134ZM50.4344 12.4039C49.5104 12.4039 48.8211 12.1765 48.3664 11.7219C47.9264 11.2672 47.7064 10.6732 47.7064 9.93987C47.7064 9.2212 47.9264 8.6272 48.3664 8.15787C48.8211 7.68853 49.5104 7.45387 50.4344 7.45387C51.3144 7.45387 51.9891 7.69587 52.4584 8.17987C52.9278 8.6492 53.1624 9.23587 53.1624 9.93987C53.1624 10.6732 52.9351 11.2672 52.4804 11.7219C52.0258 12.1765 51.3438 12.4039 50.4344 12.4039ZM47.8824 25.7139C47.9851 23.3525 48.0364 21.4019 48.0364 19.8619C48.0364 18.0285 47.9778 15.9752 47.8604 13.7019H53.1404C53.0231 15.8872 52.9644 17.9405 52.9644 19.8619C52.9644 21.4752 53.0158 23.4259 53.1184 25.7139H47.8824ZM62.2409 25.9339C61.0089 25.9339 59.7549 25.7652 58.4789 25.4279C57.2175 25.0759 56.0295 24.5479 54.9149 23.8439L57.2249 20.6979C57.8995 21.1819 58.7135 21.5632 59.6669 21.8419C60.6202 22.1059 61.4415 22.2379 62.1309 22.2379C62.7909 22.2379 63.2969 22.1499 63.6489 21.9739C64.0155 21.7832 64.1989 21.5412 64.1989 21.2479C64.1989 21.0132 64.1109 20.8299 63.9349 20.6979C63.7589 20.5659 63.5169 20.4999 63.2089 20.4999C63.0182 20.4999 62.7982 20.5072 62.5489 20.5219C62.3142 20.5365 62.1236 20.5512 61.9769 20.5659C61.2142 20.6539 60.4295 20.6979 59.6229 20.6979C58.3175 20.6979 57.2542 20.4559 56.4329 19.9719C55.6262 19.4732 55.2229 18.6665 55.2229 17.5519C55.2229 16.2612 55.8315 15.2639 57.0489 14.5599C58.2662 13.8412 60.0555 13.4819 62.4169 13.4819C63.5755 13.4819 64.7415 13.6505 65.9149 13.9879C67.1029 14.3105 68.1515 14.8019 69.0609 15.4619L66.5309 18.0139C65.6949 17.5739 64.9102 17.2659 64.1769 17.0899C63.4582 16.8992 62.7322 16.8039 61.9989 16.8039C61.4855 16.8039 61.0455 16.9065 60.6789 17.1119C60.3122 17.3172 60.1289 17.5519 60.1289 17.8159C60.1289 18.0212 60.2022 18.1825 60.3489 18.2999C60.5102 18.4172 60.7155 18.4759 60.9649 18.4759C61.2142 18.4759 61.5589 18.4539 61.9989 18.4099C63.0695 18.3365 63.8689 18.2999 64.3969 18.2999C65.9222 18.2999 67.1029 18.5565 67.9389 19.0699C68.7749 19.5832 69.1929 20.3679 69.1929 21.4239C69.1929 23.0079 68.5769 24.1592 67.3449 24.8779C66.1129 25.5819 64.4116 25.9339 62.2409 25.9339ZM73.6805 12.4039C72.7565 12.4039 72.0672 12.1765 71.6125 11.7219C71.1725 11.2672 70.9525 10.6732 70.9525 9.93987C70.9525 9.2212 71.1725 8.6272 71.6125 8.15787C72.0672 7.68853 72.7565 7.45387 73.6805 7.45387C74.5605 7.45387 75.2352 7.69587 75.7045 8.17987C76.1739 8.6492 76.4085 9.23587 76.4085 9.93987C76.4085 10.6732 76.1812 11.2672 75.7265 11.7219C75.2719 12.1765 74.5899 12.4039 73.6805 12.4039ZM71.1285 25.7139C71.2312 23.3525 71.2825 21.4019 71.2825 19.8619C71.2825 18.0285 71.2239 15.9752 71.1065 13.7019H76.3865C76.2692 15.8872 76.2105 17.9405 76.2105 19.8619C76.2105 21.4752 76.2619 23.4259 76.3645 25.7139H71.1285ZM88.347 17.6399C86.9976 17.5519 85.7656 17.4859 84.651 17.4419L84.629 19.7739C84.629 20.5659 84.7976 21.1892 85.135 21.6439C85.487 22.0839 86.103 22.3039 86.983 22.3039C87.3203 22.3039 87.643 22.2745 87.951 22.2159C87.8923 22.7585 87.863 23.3085 87.863 23.8659C87.863 24.1299 87.8776 24.7312 87.907 25.6699C87.2616 25.7872 86.719 25.8605 86.279 25.8899C85.839 25.9192 85.267 25.9339 84.563 25.9339C82.847 25.9339 81.6296 25.5232 80.911 24.7019C80.207 23.8659 79.855 22.7072 79.855 21.2259L79.877 17.5079C79.1876 17.5372 78.469 17.5812 77.721 17.6399V13.7459C78.4836 13.7459 79.129 13.5039 79.657 13.0199C80.185 12.5359 80.5003 11.9565 80.603 11.2819H86.587C85.839 12.3085 85.0103 13.1299 84.101 13.7459H88.347V17.6399ZM23.677 40.7079L24.821 30.7419H30.189L27.241 46.7139H20.487L18.991 37.8039L17.253 46.7139H10.785L7.83703 30.7419H13.205L14.327 40.5759L16.087 30.7419H21.961L23.677 40.7079ZM42.6996 41.2139H35.5276C35.645 41.8592 35.931 42.3872 36.3856 42.7979C36.855 43.1939 37.515 43.3919 38.3656 43.3919C38.9816 43.3919 39.561 43.2745 40.1036 43.0399C40.6463 42.7905 41.079 42.4459 41.4016 42.0059C42.3843 42.4899 43.6896 43.0105 45.3176 43.5679C44.863 44.5945 44.0343 45.4159 42.8316 46.0319C41.6436 46.6332 40.089 46.9339 38.1676 46.9339C35.6743 46.9339 33.8263 46.3619 32.6236 45.2179C31.4356 44.0592 30.8416 42.5412 30.8416 40.6639C30.8416 38.8305 31.4356 37.3419 32.6236 36.1979C33.8116 35.0539 35.6596 34.4819 38.1676 34.4819C39.6636 34.4819 40.9616 34.7312 42.0616 35.2299C43.1616 35.7285 44.005 36.4252 44.5916 37.3199C45.1783 38.1999 45.4716 39.2119 45.4716 40.3559C45.4716 40.7372 45.457 41.0232 45.4276 41.2139H42.6996ZM38.4756 37.8039C37.7423 37.8039 37.141 37.9432 36.6716 38.2219C36.2023 38.5005 35.8723 38.8819 35.6816 39.3659H40.8736C40.6976 38.8965 40.4116 38.5225 40.0156 38.2439C39.6196 37.9505 39.1063 37.8039 38.4756 37.8039ZM56.551 34.4819C57.5337 34.4819 58.4064 34.7825 59.169 35.3839C59.9464 35.9705 60.5477 36.7552 60.973 37.7379C61.3984 38.7059 61.611 39.7399 61.611 40.8399C61.611 41.9545 61.3984 42.9812 60.973 43.9199C60.5477 44.8439 59.9537 45.5772 59.191 46.1199C58.4284 46.6625 57.5704 46.9339 56.617 46.9339C55.5024 46.9339 54.5344 46.6992 53.713 46.2299C52.8917 45.7459 52.2757 44.9905 51.865 43.9639L51.227 46.7139H47.003C47.091 43.9565 47.135 41.1039 47.135 38.1559C47.135 35.1785 47.091 32.3259 47.003 29.5979H51.975L51.909 32.3039C51.8357 34.2105 51.799 35.9119 51.799 37.4079C52.195 36.4105 52.7964 35.6772 53.603 35.2079C54.4244 34.7239 55.407 34.4819 56.551 34.4819ZM54.307 43.2379C55.011 43.2379 55.5684 43.0032 55.979 42.5339C56.3897 42.0645 56.595 41.4559 56.595 40.7079C56.595 40.0332 56.3677 39.4905 55.913 39.0799C55.473 38.6545 54.923 38.4419 54.263 38.4419C53.9257 38.4419 53.5737 38.5225 53.207 38.6839C52.8404 38.8305 52.525 39.0799 52.261 39.4319C51.997 39.7692 51.865 40.1945 51.865 40.7079C51.865 41.6172 52.0704 42.2699 52.481 42.6659C52.8917 43.0472 53.5004 43.2379 54.307 43.2379ZM70.4801 46.9339C69.2481 46.9339 67.9941 46.7652 66.7181 46.4279C65.4568 46.0759 64.2688 45.5479 63.1541 44.8439L65.4641 41.6979C66.1388 42.1819 66.9528 42.5632 67.9061 42.8419C68.8595 43.1059 69.6808 43.2379 70.3701 43.2379C71.0301 43.2379 71.5361 43.1499 71.8881 42.9739C72.2548 42.7832 72.4381 42.5412 72.4381 42.2479C72.4381 42.0132 72.3501 41.8299 72.1741 41.6979C71.9981 41.5659 71.7561 41.4999 71.4481 41.4999C71.2575 41.4999 71.0375 41.5072 70.7881 41.5219C70.5535 41.5365 70.3628 41.5512 70.2161 41.5659C69.4535 41.6539 68.6688 41.6979 67.8621 41.6979C66.5568 41.6979 65.4935 41.4559 64.6721 40.9719C63.8655 40.4732 63.4621 39.6665 63.4621 38.5519C63.4621 37.2612 64.0708 36.2639 65.2881 35.5599C66.5055 34.8412 68.2948 34.4819 70.6561 34.4819C71.8148 34.4819 72.9808 34.6505 74.1541 34.9879C75.3421 35.3105 76.3908 35.8019 77.3001 36.4619L74.7701 39.0139C73.9341 38.5739 73.1495 38.2659 72.4161 38.0899C71.6975 37.8992 70.9715 37.8039 70.2381 37.8039C69.7248 37.8039 69.2848 37.9065 68.9181 38.1119C68.5515 38.3172 68.3681 38.5519 68.3681 38.8159C68.3681 39.0212 68.4415 39.1825 68.5881 39.2999C68.7495 39.4172 68.9548 39.4759 69.2041 39.4759C69.4535 39.4759 69.7981 39.4539 70.2381 39.4099C71.3088 39.3365 72.1081 39.2999 72.6361 39.2999C74.1615 39.2999 75.3421 39.5565 76.1781 40.0699C77.0141 40.5832 77.4321 41.3679 77.4321 42.4239C77.4321 44.0079 76.8161 45.1592 75.5841 45.8779C74.3521 46.5819 72.6508 46.9339 70.4801 46.9339ZM81.9198 33.4039C80.9958 33.4039 80.3065 33.1765 79.8518 32.7219C79.4118 32.2672 79.1918 31.6732 79.1918 30.9399C79.1918 30.2212 79.4118 29.6272 79.8518 29.1579C80.3065 28.6885 80.9958 28.4539 81.9198 28.4539C82.7998 28.4539 83.4745 28.6959 83.9438 29.1799C84.4131 29.6492 84.6478 30.2359 84.6478 30.9399C84.6478 31.6732 84.4205 32.2672 83.9658 32.7219C83.5111 33.1765 82.8291 33.4039 81.9198 33.4039ZM79.3678 46.7139C79.4705 44.3525 79.5218 42.4019 79.5218 40.8619C79.5218 39.0285 79.4631 36.9752 79.3458 34.7019H84.6258C84.5085 36.8872 84.4498 38.9405 84.4498 40.8619C84.4498 42.4752 84.5011 44.4259 84.6038 46.7139H79.3678ZM96.5862 38.6399C95.2369 38.5519 94.0049 38.4859 92.8902 38.4419L92.8682 40.7739C92.8682 41.5659 93.0369 42.1892 93.3742 42.6439C93.7262 43.0839 94.3422 43.3039 95.2222 43.3039C95.5596 43.3039 95.8822 43.2745 96.1902 43.2159C96.1316 43.7585 96.1022 44.3085 96.1022 44.8659C96.1022 45.1299 96.1169 45.7312 96.1462 46.6699C95.5009 46.7872 94.9582 46.8605 94.5182 46.8899C94.0782 46.9192 93.5062 46.9339 92.8022 46.9339C91.0862 46.9339 89.8689 46.5232 89.1502 45.7019C88.4462 44.8659 88.0942 43.7072 88.0942 42.2259L88.1162 38.5079C87.4269 38.5372 86.7082 38.5812 85.9602 38.6399V34.7459C86.7229 34.7459 87.3682 34.5039 87.8962 34.0199C88.4242 33.5359 88.7396 32.9565 88.8422 32.2819H94.8262C94.0782 33.3085 93.2496 34.1299 92.3402 34.7459H96.5862V38.6399ZM109.538 41.2139H102.366C102.483 41.8592 102.769 42.3872 103.224 42.7979C103.693 43.1939 104.353 43.3919 105.204 43.3919C105.82 43.3919 106.399 43.2745 106.942 43.0399C107.484 42.7905 107.917 42.4459 108.24 42.0059C109.222 42.4899 110.528 43.0105 112.156 43.5679C111.701 44.5945 110.872 45.4159 109.67 46.0319C108.482 46.6332 106.927 46.9339 105.006 46.9339C102.512 46.9339 100.664 46.3619 99.4615 45.2179C98.2735 44.0592 97.6795 42.5412 97.6795 40.6639C97.6795 38.8305 98.2735 37.3419 99.4615 36.1979C100.65 35.0539 102.498 34.4819 105.006 34.4819C106.502 34.4819 107.8 34.7312 108.9 35.2299C110 35.7285 110.843 36.4252 111.43 37.3199C112.016 38.1999 112.31 39.2119 112.31 40.3559C112.31 40.7372 112.295 41.0232 112.266 41.2139H109.538ZM105.314 37.8039C104.58 37.8039 103.979 37.9432 103.51 38.2219C103.04 38.5005 102.71 38.8819 102.52 39.3659H107.712C107.536 38.8965 107.25 38.5225 106.854 38.2439C106.458 37.9505 105.944 37.8039 105.314 37.8039Z"/>
</svg>
