<svg width="81" height="42" viewBox="0 0 81 42" fill="none" xmlns="http://www.w3.org/2000/svg">
<path fillRule="evenodd" clipRule="evenodd" d="M9.51384 0.751009C8.07178 -0.57717 5.77822 0.747017 6.20742 2.65997L8.82537 14.328C9.03438 15.2595 8.55136 16.2012 7.69969 16.6326C3.27517 18.8735 0.486314 21.7863 0.166088 26.4043C-0.33881 33.6855 8.75688 35.3048 17.8792 36.9289C20.2014 37.3423 22.5253 37.756 24.693 38.2635C45.7277 43.1882 71.5899 44.2083 79.0791 27.2828C87.0619 9.24203 48.461 6.53303 22.77 11.8187C22.1323 11.9499 21.4768 11.7692 20.9979 11.3282L9.51384 0.751009Z" fill="#FD6041"/>
<path d="M18.076 26.5933L18.804 20.2513H22.22L20.344 30.4153H16.046L15.094 24.7453L13.988 30.4153H9.87204L7.99604 20.2513H11.412L12.126 26.5093L13.246 20.2513H16.984L18.076 26.5933ZM30.1813 26.9153H25.6173C25.692 27.3259 25.874 27.6619 26.1633 27.9233C26.462 28.1753 26.882 28.3013 27.4233 28.3013C27.8153 28.3013 28.184 28.2266 28.5293 28.0773C28.8747 27.9186 29.15 27.6993 29.3553 27.4193C29.9807 27.7273 30.8113 28.0586 31.8473 28.4133C31.558 29.0666 31.0307 29.5893 30.2653 29.9813C29.5093 30.3639 28.52 30.5553 27.2973 30.5553C25.7107 30.5553 24.5347 30.1913 23.7693 29.4633C23.0133 28.7259 22.6353 27.7599 22.6353 26.5653C22.6353 25.3986 23.0133 24.4513 23.7693 23.7233C24.5253 22.9953 25.7013 22.6313 27.2973 22.6313C28.2493 22.6313 29.0753 22.7899 29.7753 23.1073C30.4753 23.4246 31.012 23.8679 31.3853 24.4373C31.7587 24.9973 31.9453 25.6413 31.9453 26.3693C31.9453 26.6119 31.936 26.7939 31.9173 26.9153H30.1813ZM27.4933 24.7453C27.0267 24.7453 26.644 24.8339 26.3453 25.0113C26.0467 25.1886 25.8367 25.4313 25.7153 25.7393H29.0193C28.9073 25.4406 28.7253 25.2026 28.4733 25.0253C28.2213 24.8386 27.8947 24.7453 27.4933 24.7453ZM39.0799 30.5553C36.9705 30.5553 35.4165 30.1073 34.4179 29.2113C33.4192 28.3153 32.9199 27.0366 32.9199 25.3753C32.9199 23.7046 33.4192 22.3839 34.4179 21.4133C35.4165 20.4426 36.9705 19.9573 39.0799 19.9573C42.0292 19.9573 44.0032 20.9699 45.0019 22.9953C44.1619 23.2846 43.1772 23.7186 42.0479 24.2973C41.7772 23.7746 41.3479 23.3873 40.7599 23.1353C40.1812 22.8833 39.5885 22.7573 38.9819 22.7573C38.0859 22.7573 37.4185 22.9953 36.9799 23.4713C36.5412 23.9379 36.3219 24.5166 36.3219 25.2073C36.3219 25.9539 36.5552 26.5653 37.0219 27.0413C37.4979 27.5079 38.2212 27.7413 39.1919 27.7413C39.9665 27.7413 40.5825 27.6153 41.0399 27.3633C41.4972 27.1019 41.8332 26.6913 42.0479 26.1313C42.8132 26.5419 43.7932 27.0039 44.9879 27.5173C44.5212 28.6466 43.7419 29.4353 42.6499 29.8833C41.5579 30.3313 40.3679 30.5553 39.0799 30.5553ZM51.5869 30.4153C51.6429 29.0433 51.6709 27.7786 51.6709 26.6213C51.6709 26.2106 51.5682 25.8839 51.3629 25.6413C51.1669 25.3986 50.9149 25.2773 50.6069 25.2773C50.2802 25.2773 50.0002 25.4359 49.7669 25.7533C49.5429 26.0706 49.4309 26.5046 49.4309 27.0553L49.4169 27.0273C49.4169 28.5486 49.4356 29.6779 49.4729 30.4153H46.1269C46.2016 29.0713 46.2389 27.2513 46.2389 24.9553C46.2389 22.6593 46.2016 20.8393 46.1269 19.4953H49.4589L49.4729 23.8073L49.4589 24.5493C49.6829 23.8959 50.0142 23.4153 50.4529 23.1073C50.9009 22.7899 51.4049 22.6313 51.9649 22.6313C52.5249 22.6313 53.0102 22.7573 53.4209 23.0093C53.8316 23.2519 54.1396 23.5833 54.3449 24.0033C54.5596 24.4233 54.6669 24.8946 54.6669 25.4173V27.4333C54.6669 28.6746 54.6902 29.6686 54.7369 30.4153H51.5869ZM64.8353 28.0913C64.8353 28.4086 64.8726 28.6326 64.9473 28.7633C65.0219 28.8939 65.1713 28.9873 65.3953 29.0433L65.3393 30.3593C65.0406 30.4059 64.7793 30.4386 64.5553 30.4573C64.3406 30.4759 64.0513 30.4853 63.6873 30.4853C62.8846 30.4853 62.3526 30.3079 62.0913 29.9533C61.8299 29.5893 61.6993 29.1273 61.6993 28.5673V28.2173C61.4286 28.9826 61.0319 29.5519 60.5093 29.9253C59.9959 30.2986 59.3379 30.4853 58.5353 30.4853C57.6019 30.4853 56.8973 30.2986 56.4213 29.9253C55.9546 29.5519 55.7213 28.9966 55.7213 28.2593C55.7213 27.6526 55.9219 27.1766 56.3233 26.8313C56.7246 26.4859 57.3453 26.2479 58.1853 26.1173C57.4759 25.6133 56.7666 25.1746 56.0573 24.8013C56.6173 24.0919 57.2566 23.5553 57.9753 23.1913C58.6939 22.8179 59.5666 22.6313 60.5933 22.6313C62.0306 22.6313 63.0946 22.9439 63.7853 23.5693C64.4853 24.1853 64.8353 25.1373 64.8353 26.4253V28.0913ZM60.8873 25.0953C60.4113 25.0953 59.9913 25.1746 59.6273 25.3333C59.2633 25.4919 58.9366 25.7299 58.6473 26.0473C59.2073 25.9819 59.9073 25.9493 60.7473 25.9493C61.0926 25.9493 61.3353 25.9073 61.4753 25.8233C61.6153 25.7393 61.6853 25.6319 61.6853 25.5013C61.6853 25.3893 61.6153 25.2959 61.4753 25.2213C61.3353 25.1373 61.1393 25.0953 60.8873 25.0953ZM59.4173 28.2033C59.9399 28.2033 60.4113 28.1053 60.8313 27.9093C61.2513 27.7039 61.5406 27.4379 61.6993 27.1113V26.7473C61.4753 26.8593 61.2279 26.9479 60.9573 27.0133C60.6866 27.0693 60.3599 27.1253 59.9773 27.1813L59.4733 27.2653C58.9506 27.3679 58.6893 27.5453 58.6893 27.7973C58.6893 28.0679 58.9319 28.2033 59.4173 28.2033ZM72.5802 25.2773C71.7216 25.2213 70.9376 25.1793 70.2282 25.1513L70.2142 26.6353C70.2142 27.1393 70.3216 27.5359 70.5362 27.8253C70.7602 28.1053 71.1522 28.2453 71.7122 28.2453C71.9269 28.2453 72.1322 28.2266 72.3282 28.1893C72.2909 28.5346 72.2722 28.8846 72.2722 29.2393C72.2722 29.4073 72.2816 29.7899 72.3002 30.3873C71.8896 30.4619 71.5442 30.5086 71.2642 30.5273C70.9842 30.5459 70.6202 30.5553 70.1722 30.5553C69.0802 30.5553 68.3056 30.2939 67.8482 29.7713C67.4002 29.2393 67.1762 28.5019 67.1762 27.5593L67.1902 25.1933C66.7516 25.2119 66.2942 25.2399 65.8182 25.2773V22.7993C66.3036 22.7993 66.7142 22.6453 67.0502 22.3373C67.3862 22.0293 67.5869 21.6606 67.6522 21.2313H71.4602C70.9842 21.8846 70.4569 22.4073 69.8782 22.7993H72.5802V25.2773Z" fill="#FAF5EF"/>
</svg>
