<svg xmlns="http://www.w3.org/2000/svg" className="object" viewBox="0 0 320 1080" width="100%" height="100%">
<path className="object-fill-1" fillRule="evenodd" clipRule="evenodd" d="M178.433 33.0962C173.364 25.8577 175.123 15.881 182.362 10.8125L196.009 1.25684L205.564 14.9038C210.633 22.1423 208.874 32.119 201.635 37.1875L192.622 43.4985L181.351 107.418L173.473 106.029L184.744 42.1093L178.433 33.0962ZM87.5478 41.9762C79.8951 37.5579 77.2731 27.7725 81.6914 20.1198L90.0213 5.69192L104.449 14.0218C112.102 18.4401 114.724 28.2256 110.306 35.8783L104.804 45.4071L117.462 92.6467L109.735 94.7173L107.6 86.7513L85.4066 80.8046L75.8777 86.3061C68.2251 90.7244 58.4396 88.1024 54.0213 80.4497L45.6914 66.0219L60.1193 57.6919C67.7719 53.2736 77.5574 55.8956 81.9757 63.5483L87.4772 73.0772L105.209 77.8285L97.0767 47.4777L87.5478 41.9762ZM144.218 83.3137C137.97 77.0653 137.97 66.9347 144.218 60.6863L155.999 48.906L167.779 60.6863C174.027 66.9347 174.027 77.0653 167.779 83.3137L159.999 91.094V116H151.999V91.094L144.218 83.3137ZM242.14 81.9072C239.853 73.3718 244.918 64.5984 253.453 62.3113L269.546 57.9994L273.857 74.0916C276.144 82.6271 271.079 91.4005 262.544 93.6875L251.916 96.5353L235.463 125.033L228.534 121.033L244.987 92.5353L242.14 81.9072ZM199.669 87.6701C199.669 78.8335 206.832 71.6701 215.669 71.6701H232.328V88.3299C232.328 97.1665 225.165 104.33 216.328 104.33H205.325L187.714 121.941L182.057 116.284L199.669 98.6731V87.6701ZM75.9044 135.859C67.3689 138.146 58.5955 133.081 56.3084 124.545L51.9966 108.453L68.0887 104.141C76.6242 101.854 85.3976 106.919 87.6847 115.455L90.5325 126.083L112.102 138.536L108.102 145.464L86.5324 133.011L75.9044 135.859ZM250.021 131.549C254.44 123.896 264.225 121.274 271.878 125.692L286.306 134.022L277.976 148.45C273.557 156.103 263.772 158.725 256.119 154.307L246.59 148.805L214.806 157.322L212.735 149.594L244.52 141.078L250.021 131.549ZM263.668 255.669C263.668 246.833 270.832 239.669 279.668 239.669H296.328V256.329C296.328 265.166 289.165 272.329 280.328 272.329H269.325L257.371 284.284L251.714 278.627L263.668 266.672V255.669Z"/>
<path className="object-fill-1" d="M60 180C60 124.772 104.772 80 160 80V80C215.228 80 260 124.772 260 180V1080H60V180Z"/>
<path className="object-stroke-2" d="M142 172C142 177.304 139.893 182.391 136.142 186.142C132.391 189.893 127.304 192 122 192C116.696 192 111.609 189.893 107.858 186.142C104.107 182.391 102 177.304 102 172C102 166.696 104.107 161.609 107.858 157.858C111.609 154.107 116.696 152 122 152C127.304 152 132.391 154.107 136.142 157.858C139.893 161.609 142 166.696 142 172ZM142 172H178M178 172C178 177.304 180.107 182.391 183.858 186.142C187.609 189.893 192.696 192 198 192C203.304 192 208.391 189.893 212.142 186.142C215.893 182.391 218 177.304 218 172C218 166.696 215.893 161.609 212.142 157.858C208.391 154.107 203.304 152 198 152C192.696 152 187.609 154.107 183.858 157.858C180.107 161.609 178 166.696 178 172Z" stroke-width="8" stroke-linecap="round" stroke-linejoin="round"/>
</svg>
