<svg xmlns="http://www.w3.org/2000/svg" className="object" viewBox="0 0 320 1080" width="100%" height="100%">
<path className="object-stroke-1" d="M258.388 66.4527C259.327 67.7885 259.907 69.344 260.07 70.9689C260.508 77.3414 254.375 81.9531 248.483 81.8481C239.834 81.6985 233.954 73.3328 234.629 65.0446C235.523 53.9963 246.223 46.5025 256.761 47.5696C270.03 48.9081 278.761 61.9454 277.033 74.9194C274.936 90.631 259.515 101.081 244.343 98.9894C226.467 96.5209 214.844 78.7425 217.666 61.0941C220.921 40.7164 241.111 27.287 260.904 30.4239C283.395 33.9983 297.922 56.5477 293.995 78.8698C289.584 103.909 264.625 120.33 240.207 116.133C235.459 115.332 230.864 113.803 226.584 111.599" stroke-width="8" stroke-linecap="round" stroke-linejoin="round"/>
<path className="object-fill-1" d="M60 180C60 124.772 104.772 80 160 80V80C215.228 80 260 124.772 260 180V1080H60V180Z"/>
<line className="object-stroke-2" x1="104" y1="156" x2="216" y2="156" stroke-width="8" stroke-linecap="round"/>
<path className="object-fill-2" d="M124 156H140V176C140 180.418 136.418 184 132 184V184C127.582 184 124 180.418 124 176V156Z"/>
<path className="object-fill-2" d="M180 156H196V176C196 180.418 192.418 184 188 184V184C183.582 184 180 180.418 180 176V156Z"/>
</svg>
