<svg xmlns="http://www.w3.org/2000/svg" className="object" viewBox="0 0 320 1080" width="100%" height="100%">
<path className="object-fill-1" d="M0 152C0 134.327 14.3269 120 32 120L160 120V160H8C3.58172 160 0 156.418 0 152V152Z"/>
<path className="object-fill-1" d="M0 176C0 171.582 3.58172 168 8 168H160V208H32C14.3269 208 0 193.673 0 176V176Z"/>
<path className="object-fill-1" d="M60 180C60 124.772 104.772 80 160 80V80C215.228 80 260 124.772 260 180V1080H60V180Z"/>
<line className="object-stroke-2" x1="104" y1="156" x2="216" y2="156" stroke-width="8" stroke-linecap="round"/>
<path className="object-fill-2" d="M124 156H140V176C140 180.418 136.418 184 132 184V184C127.582 184 124 180.418 124 176V156Z"/>
<path className="object-fill-2" d="M180 156H196V176C196 180.418 192.418 184 188 184V184C183.582 184 180 180.418 180 176V156Z"/>
</svg>
