<svg xmlns="http://www.w3.org/2000/svg" className="object" viewBox="0 0 320 1080" width="100%" height="100%">
<path className="object-fill-1" d="M116.857 28C139.58 28 158 46.4203 158 69.1429V69.1429C158 72.93 154.93 76 151.143 76V76C128.42 76 110 57.5797 110 34.8571L110 31.6923C110 29.6531 111.653 28 113.692 28L116.857 28Z"/>
<path className="object-fill-1" d="M210 34.8571C210 57.5797 191.58 76 168.857 76V76C165.07 76 162 72.9299 162 69.1429V69.1429C162 46.4203 180.42 28 203.143 28L206.308 28C208.347 28 210 29.6531 210 31.6923L210 34.8571Z"/>
<path className="object-fill-1" d="M60 180C60 124.772 104.772 80 160 80C215.228 80 260 124.772 260 180V1080H60V180Z"/>
<line className="object-stroke-2" x1="104" y1="156" x2="216" y2="156" strokeWidth="8" strokeLinecap="round"/>
<path className="object-fill-2" d="M124 156H140V176C140 180.418 136.418 184 132 184C127.582 184 124 180.418 124 176V156Z"/>
<path className="object-fill-2" d="M180 156H196V176C196 180.418 192.418 184 188 184C183.582 184 180 180.418 180 176V156Z"/>
</svg>
