<svg xmlns="http://www.w3.org/2000/svg" className="object" viewBox="0 0 320 1080" width="100%" height="100%">
<path className="object-fill-1" fillRule="evenodd" clipRule="evenodd" d="M46.1248 134.5V134.5C45.1238 133.946 45.1238 132.054 46.1248 131.5V131.5V131.5C49.3441 129.643 53.7683 128.254 56.2012 131.064C61.06 136.676 63.9998 143.994 63.9998 152C63.9998 169.673 49.6729 184 31.9998 184C17.9874 184 6.07852 174.994 1.74625 162.454C0.540021 158.962 3.92512 155.846 7.12477 154V154V154C8.12169 153.399 9.76772 154.336 9.74977 155.5V155.5C9.74977 158.484 10.935 161.345 13.0448 163.455C15.1546 165.565 18.0161 166.75 20.9998 166.75C23.9834 166.75 26.8449 165.565 28.9547 163.455C31.0645 161.345 32.2498 158.484 32.2498 155.5V155.5C32.2318 154.336 33.8778 153.399 34.8748 154V154C37.4606 155.492 40.5332 155.895 43.4166 155.122C46.2999 154.348 48.7579 152.461 50.2498 149.875C51.7416 147.289 52.1451 144.217 51.3715 141.333C50.5979 138.45 48.7106 135.992 46.1248 134.5ZM4.62477 149.656C2.19 150.93 0.108029 148.166 0.665389 145.476C3.6782 130.931 16.5624 120 31.9998 120C35.47 120 38.8112 120.552 41.9403 121.574C44.5868 122.438 45.9742 125.663 43.6248 127.156V127.156C41.9091 128.14 38.8694 128.961 34.851 129.554C33.1278 129.808 31.8123 131.258 31.8123 133C31.8123 134.742 33.1278 136.192 34.851 136.446C38.8694 137.039 41.9091 137.86 43.6248 138.844C45.0575 139.674 46.1023 141.038 46.5301 142.638C46.9578 144.237 46.7333 145.941 45.906 147.375C45.0762 148.808 43.7117 149.853 42.1123 150.28C40.5128 150.708 38.8089 150.484 37.3748 149.656C35.6579 148.672 33.431 146.463 30.9084 143.278C29.8298 141.916 27.9212 141.502 26.4161 142.369C24.9025 143.242 24.3078 145.116 24.9563 146.738C26.458 150.495 27.2498 153.535 27.2498 155.5C27.2415 157.155 26.5804 158.74 25.4101 159.91C24.2398 161.081 22.6548 161.742 20.9998 161.75C19.3447 161.742 17.7597 161.081 16.5894 159.91C15.4191 158.74 14.758 157.155 14.7498 155.5C14.7498 153.535 15.5415 150.495 17.0433 146.738C17.6918 145.116 17.0971 143.242 15.5835 142.369C14.0784 141.502 12.1697 141.916 11.0911 143.278C8.56853 146.463 6.34166 148.672 4.62477 149.656V149.656Z"/>
<path className="object-fill-1" fillRule="evenodd" clipRule="evenodd" d="M274.449 134.5V134.5C275.45 133.946 275.45 132.054 274.449 131.5V131.5V131.5C271.23 129.643 266.806 128.254 264.373 131.064C259.514 136.676 256.574 143.994 256.574 152C256.574 169.673 270.901 184 288.574 184C302.587 184 314.496 174.994 318.828 162.454C320.034 158.962 316.649 155.846 313.449 154V154V154C312.453 153.399 310.806 154.336 310.824 155.5V155.5C310.824 158.484 309.639 161.345 307.529 163.455C305.42 165.565 302.558 166.75 299.574 166.75C296.591 166.75 293.729 165.565 291.62 163.455C289.51 161.345 288.324 158.484 288.324 155.5V155.5C288.342 154.336 286.696 153.399 285.699 154V154C283.114 155.492 280.041 155.895 277.158 155.122C274.274 154.348 271.816 152.461 270.324 149.875C268.833 147.289 268.429 144.217 269.203 141.333C269.976 138.45 271.864 135.992 274.449 134.5ZM315.949 149.656C318.384 150.93 320.466 148.166 319.909 145.476C316.896 130.931 304.012 120 288.574 120C285.104 120 281.763 120.552 278.634 121.574C275.987 122.438 274.6 125.663 276.949 127.156V127.156C278.665 128.14 281.705 128.961 285.723 129.554C287.446 129.808 288.762 131.258 288.762 133C288.762 134.742 287.446 136.192 285.723 136.446C281.705 137.039 278.665 137.86 276.949 138.844C275.517 139.674 274.472 141.038 274.044 142.638C273.616 144.237 273.841 145.941 274.668 147.375C275.498 148.808 276.862 149.853 278.462 150.28C280.061 150.708 281.765 150.484 283.199 149.656C284.916 148.672 287.143 146.463 289.666 143.278C290.744 141.916 292.653 141.502 294.158 142.369C295.672 143.242 296.266 145.116 295.618 146.738C294.116 150.495 293.324 153.535 293.324 155.5C293.333 157.155 293.994 158.74 295.164 159.91C296.334 161.081 297.919 161.742 299.574 161.75C301.23 161.742 302.814 161.081 303.985 159.91C305.155 158.74 305.816 157.155 305.824 155.5C305.824 153.535 305.033 150.495 303.531 146.738C302.882 145.116 303.477 143.242 304.991 142.369C306.496 141.502 308.405 141.916 309.483 143.278C312.006 146.463 314.233 148.672 315.949 149.656V149.656Z"/>
<path className="object-fill-1" d="M60 180C60 124.772 104.772 80 160 80V80C215.228 80 260 124.772 260 180V1080H60V180Z"/>
<line className="object-stroke-2" x1="104" y1="156" x2="216" y2="156" stroke-width="8" stroke-linecap="round"/>
<path className="object-fill-2" d="M124 156H140V176C140 180.418 136.418 184 132 184V184C127.582 184 124 180.418 124 176V156Z"/>
<path className="object-fill-2" d="M180 156H196V176C196 180.418 192.418 184 188 184V184C183.582 184 180 180.418 180 176V156Z"/>
</svg>
