<svg xmlns="http://www.w3.org/2000/svg" className="object" viewBox="0 0 320 1080" width="100%" height="100%">
<path className="object-fill-1" d="M60.6842 59.608C58.6369 58.1488 55.762 58.9173 54.8662 61.2664C49.6499 74.9461 48.1282 90.581 50.5474 106.206C52.9846 121.946 59.2977 136.879 68.6307 149.109C70.1311 151.075 73.0471 151.061 74.6374 149.167L113.672 102.672C115.172 100.885 114.83 98.1976 112.93 96.8431L60.6842 59.608Z"/>
<path className="object-fill-2" d="M63.8086 83.2275C62.2006 81.8143 59.6868 82.4993 59.2105 84.5864C57.6119 91.5923 57.4942 99.5172 58.9043 107.527C60.6136 117.236 64.4724 126.528 69.8824 133.96L89.1545 105.502L63.8086 83.2275Z"/>
<path className="object-fill-1" d="M259.316 59.608C261.363 58.1488 264.238 58.9173 265.134 61.2664C270.35 74.9461 271.872 90.581 269.453 106.206C267.015 121.946 260.702 136.879 251.369 149.109C249.869 151.075 246.953 151.061 245.363 149.167L206.328 102.672C204.828 100.885 205.17 98.1976 207.07 96.8431L259.316 59.608Z"/>
<path className="object-fill-2" d="M256.191 83.2275C257.799 81.8143 260.313 82.4993 260.789 84.5864C262.388 91.5923 262.506 99.5172 261.096 107.527C259.386 117.236 255.528 126.528 250.118 133.96L230.845 105.502L256.191 83.2275Z"/>
<path className="object-fill-1" d="M60 180C60 124.772 104.772 80 160 80C215.228 80 260 124.772 260 180V1080H60V180Z"/>
<path className="object-fill-2" d="M152.504 214.003C156.886 217.509 163.114 217.509 167.496 214.003L176.096 207.123C179.048 204.761 177.378 200 173.597 200H146.403C142.622 200 140.952 204.761 143.904 207.123L152.504 214.003Z"/>
<line className="object-stroke-2" x1="104" y1="156" x2="216" y2="156" strokeWidth="8" stroke-linecap="round"/>
<path className="object-fill-2" d="M124 156H140V176C140 180.418 136.418 184 132 184C127.582 184 124 180.418 124 176V156Z"/>
<path className="object-fill-2" d="M180 156H196V176C196 180.418 192.418 184 188 184C183.582 184 180 180.418 180 176V156Z"/>
</svg>
