<svg width="100%" height="100%" viewBox="0 0 40 40" fill="none" xmlns="http://www.w3.org/2000/svg">
<g clip-path="url(#clip0_1535_6542)">
<path fill-rule="evenodd" clip-rule="evenodd" d="M36.8906 12.7734C36.7578 9.96875 36.1172 7.48437 34.0625 5.4375C32.0156 3.39062 29.5312 2.75 26.7266 2.60937C23.8359 2.44531 15.1719 2.44531 12.2812 2.60937C9.48438 2.74219 7 3.38281 4.94531 5.42969C2.89062 7.47656 2.25781 9.96094 2.11719 12.7656C1.95312 15.6562 1.95312 24.3203 2.11719 27.2109C2.25 30.0156 2.89062 32.5 4.94531 34.5469C7 36.5938 9.47656 37.2344 12.2812 37.375C15.1719 37.5391 23.8359 37.5391 26.7266 37.375C29.5312 37.2422 32.0156 36.6016 34.0625 34.5469C36.1094 32.5 36.75 30.0156 36.8906 27.2109C37.0547 24.3203 37.0547 15.6641 36.8906 12.7734ZM19.5078 11.0156C14.5391 11.0156 10.5312 15.0234 10.5312 19.9922C10.5312 24.9609 14.5391 28.9687 19.5078 28.9687C24.4766 28.9687 28.4844 24.9609 28.4844 19.9922C28.4844 15.0234 24.4766 11.0156 19.5078 11.0156ZM13.6719 19.9922C13.6719 23.2109 16.2969 25.8281 19.5078 25.8281C22.7188 25.8281 25.3438 23.2109 25.3438 19.9922C25.3438 16.7734 22.7266 14.1562 19.5078 14.1562C16.2891 14.1562 13.6719 16.7734 13.6719 19.9922ZM28.8516 12.7422C30.0078 12.7422 30.9453 11.8125 30.9453 10.6484C30.9453 9.49219 30.0078 8.55469 28.8516 8.55469C27.6953 8.55469 26.7578 9.49219 26.7578 10.6484C26.7578 11.8047 27.6875 12.7422 28.8516 12.7422Z" fill="black"/>
</g>
<defs>
<clipPath id="clip0_1535_6542">
<rect width="35" height="40" fill="white" transform="translate(2)"/>
</clipPath>
</defs>
</svg>
