<svg width="100%" height="100%" viewBox="0 0 40 40" fill="none" xmlns="http://www.w3.org/2000/svg">
<path d="M6.66665 33.3333C5.74998 33.3333 4.96554 33.0072 4.31331 32.355C3.65998 31.7017 3.33331 30.9167 3.33331 30V10C3.33331 9.08334 3.65998 8.29889 4.31331 7.64667C4.96554 6.99334 5.74998 6.66667 6.66665 6.66667H33.3333C34.25 6.66667 35.035 6.99334 35.6883 7.64667C36.3405 8.29889 36.6666 9.08334 36.6666 10V30C36.6666 30.9167 36.3405 31.7017 35.6883 32.355C35.035 33.0072 34.25 33.3333 33.3333 33.3333H6.66665ZM20 21.6667L6.66665 13.3333V30H33.3333V13.3333L20 21.6667ZM20 18.3333L33.3333 10H6.66665L20 18.3333ZM6.66665 13.3333V10V30V13.3333Z" fill="black"/>
</svg>
