<svg width="100%" height="100%" viewBox="0 0 40 40" fill="none" xmlns="http://www.w3.org/2000/svg">
<path d="M34.5 2.5H4.49219C3.11719 2.5 2 3.63281 2 5.02344V34.9766C2 36.3672 3.11719 37.5 4.49219 37.5H34.5C35.875 37.5 37 36.3672 37 34.9766V5.02344C37 3.63281 35.875 2.5 34.5 2.5ZM12.5781 32.5H7.39062V15.7969H12.5859V32.5H12.5781ZM9.98437 13.5156C8.32031 13.5156 6.97656 12.1641 6.97656 10.5078C6.97656 8.85156 8.32031 7.5 9.98437 7.5C11.6406 7.5 12.9922 8.85156 12.9922 10.5078C12.9922 12.1719 11.6484 13.5156 9.98437 13.5156V13.5156ZM32.0234 32.5H26.8359V24.375C26.8359 22.4375 26.7969 19.9453 24.1406 19.9453C21.4375 19.9453 21.0234 22.0547 21.0234 24.2344V32.5H15.8359V15.7969H20.8125V18.0781H20.8828C21.5781 16.7656 23.2734 15.3828 25.7969 15.3828C31.0469 15.3828 32.0234 18.8437 32.0234 23.3437V32.5V32.5Z" fill="black"/>
</svg>
