<svg width="100%" height="100%" viewBox="0 0 40 40" fill="none" xmlns="http://www.w3.org/2000/svg">
<path d="M3.33331 18.3333L11.6666 3.33333L20 18.3333H3.33331ZM11.6666 35C9.83331 35 8.26387 34.3472 6.95831 33.0417C5.65276 31.7361 4.99998 30.1667 4.99998 28.3333C4.99998 26.4722 5.65276 24.8955 6.95831 23.6033C8.26387 22.3122 9.83331 21.6667 11.6666 21.6667C13.5 21.6667 15.0694 22.3194 16.375 23.625C17.6805 24.9306 18.3333 26.5 18.3333 28.3333C18.3333 30.1667 17.6805 31.7361 16.375 33.0417C15.0694 34.3472 13.5 35 11.6666 35ZM11.6666 31.6667C12.5833 31.6667 13.3678 31.3405 14.02 30.6883C14.6733 30.035 15 29.25 15 28.3333C15 27.4167 14.6733 26.6322 14.02 25.98C13.3678 25.3267 12.5833 25 11.6666 25C10.75 25 9.96553 25.3267 9.31331 25.98C8.65998 26.6322 8.33331 27.4167 8.33331 28.3333C8.33331 29.25 8.65998 30.035 9.31331 30.6883C9.96553 31.3405 10.75 31.6667 11.6666 31.6667ZM8.99998 15H14.3333L11.6666 10.2083L8.99998 15ZM21.6666 35V21.6667H35V35H21.6666ZM25 31.6667H31.6666V25H25V31.6667ZM28.3333 18.3333C26.75 17 25.4239 15.875 24.355 14.9583C23.285 14.0417 22.4305 13.2361 21.7916 12.5417C21.1528 11.8472 20.6944 11.1944 20.4166 10.5833C20.1389 9.97222 20 9.31944 20 8.625C20 7.375 20.4378 6.31944 21.3133 5.45833C22.1878 4.59722 23.2778 4.16666 24.5833 4.16666C25.3333 4.16666 26.035 4.33999 26.6883 4.68666C27.3405 5.03444 27.8889 5.51388 28.3333 6.12499C28.7778 5.51388 29.3266 5.03444 29.98 4.68666C30.6322 4.33999 31.3333 4.16666 32.0833 4.16666C33.3889 4.16666 34.4789 4.59722 35.3533 5.45833C36.2289 6.31944 36.6666 7.375 36.6666 8.625C36.6666 9.31944 36.5278 9.97222 36.25 10.5833C35.9722 11.1944 35.5139 11.8472 34.875 12.5417C34.2361 13.2361 33.3822 14.0417 32.3133 14.9583C31.2433 15.875 29.9166 17 28.3333 18.3333ZM28.3333 13.9583C30.3333 12.2917 31.6666 11.1111 32.3333 10.4167C33 9.72222 33.3333 9.15277 33.3333 8.70833C33.3333 8.34722 33.2289 8.05555 33.02 7.83333C32.8122 7.61111 32.5278 7.49999 32.1666 7.49999C31.8889 7.49999 31.6178 7.57611 31.3533 7.72833C31.09 7.88166 30.7639 8.15277 30.375 8.54166L28.3333 10.5L26.2916 8.54166C25.9028 8.15277 25.5766 7.88166 25.3133 7.72833C25.0489 7.57611 24.7778 7.49999 24.5 7.49999C24.1389 7.49999 23.8544 7.61111 23.6466 7.83333C23.4378 8.05555 23.3333 8.34722 23.3333 8.70833C23.3333 9.15277 23.6666 9.72222 24.3333 10.4167C25 11.1111 26.3333 12.2917 28.3333 13.9583V13.9583Z" fill="black"/>
</svg>
