<svg width="100%" height="100%" viewBox="0 0 40 40" fill="none" xmlns="http://www.w3.org/2000/svg">
<path fill-rule="evenodd" clip-rule="evenodd" d="M30 36.6667H10C9.08335 36.6667 8.29891 36.3406 7.64669 35.6883C6.99335 35.035 6.66669 34.25 6.66669 33.3333V6.66666C6.66669 5.74999 6.99335 4.96499 7.64669 4.31166C8.29891 3.65944 9.08335 3.33333 10 3.33333H23.3334L33.3334 13.3333V33.3333C33.3334 34.25 33.0072 35.035 32.355 35.6883C31.7017 36.3406 30.9167 36.6667 30 36.6667ZM27 30H13V28H27V30ZM23 19H27L20 26L13 19H17V13H23V19Z" fill="black"/>
</svg>
