<svg xmlns="http://www.w3.org/2000/svg" className="object" viewBox="0 0 320 1080" width="100%" height="100%">
<path className="object-fill-1" d="M60 180C60 124.772 104.772 80 160 80V80C215.228 80 260 124.772 260 180V1080H60V180Z" />
<path className="object-fill-2" d="M139.599 143.45C135.599 141.75 133.899 136.8 136.299 133.2C141.149 126 149.249 120.75 159.949 120.75C171.699 120.75 179.749 126.1 183.849 132.8C187.349 138.55 189.399 149.3 183.999 157.3C177.999 166.15 172.249 168.85 169.149 174.55C168.399 175.9 167.949 177 167.649 179.25C167.199 182.9 164.199 185.75 160.499 185.75C156.149 185.75 152.599 182 153.099 177.65C153.399 175.1 153.999 172.45 155.399 169.95C159.249 163 166.649 158.9 170.949 152.75C175.499 146.3 172.949 134.25 160.049 134.25C154.199 134.25 150.399 137.3 148.049 140.95C146.299 143.8 142.649 144.7 139.599 143.45ZM169.999 205.75C169.999 211.25 165.499 215.75 159.999 215.75C154.499 215.75 149.999 211.25 149.999 205.75C149.999 200.25 154.499 195.75 159.999 195.75C165.499 195.75 169.999 200.25 169.999 205.75Z" />
</svg>
