<svg width="87" height="41" viewBox="0 0 87 41" fill="none" xmlns="http://www.w3.org/2000/svg">
<path fillRule="evenodd" clipRule="evenodd" d="M19.8869 0.451675C18.1502 -0.458015 16.2775 1.41467 17.1872 3.15135L20.6686 9.79778C21.3106 11.0233 20.5426 12.5147 19.1772 12.7379C9.1407 14.3788 1.25993 17.0926 0.366733 21.9851C-2.25001 36.3187 19.0041 38.6684 34.6919 39.7298C56.3139 41.1927 88.6818 42.1578 85.9886 21.9851C84.6355 11.8498 60.8356 9.59408 39.9525 10.6475C39.5936 10.6656 39.2378 10.5879 38.9195 10.4211L19.8869 0.451675Z" fill="#FD6041"/>
<path d="M10.3256 27.5829C13.0323 27.5642 15.2723 27.5176 17.0456 27.4429C16.9243 27.9189 16.8496 28.3762 16.8216 28.8149C16.7936 29.2536 16.7796 29.7856 16.7796 30.4109H6.90961C6.98428 28.6002 7.02161 26.9062 7.02161 25.3289C7.02161 23.7516 6.98428 22.0576 6.90961 20.2469H10.3256V27.5829ZM20.0376 21.9409C19.4496 21.9409 19.0109 21.7962 18.7216 21.5069C18.4416 21.2176 18.3016 20.8396 18.3016 20.3729C18.3016 19.9156 18.4416 19.5376 18.7216 19.2389C19.0109 18.9402 19.4496 18.7909 20.0376 18.7909C20.5976 18.7909 21.0269 18.9449 21.3256 19.2529C21.6242 19.5516 21.7736 19.9249 21.7736 20.3729C21.7736 20.8396 21.6289 21.2176 21.3396 21.5069C21.0502 21.7962 20.6162 21.9409 20.0376 21.9409ZM18.4136 30.4109C18.4789 28.9082 18.5116 27.6669 18.5116 26.6869C18.5116 25.5202 18.4742 24.2136 18.3996 22.7669H21.7596C21.6849 24.1576 21.6476 25.4642 21.6476 26.6869C21.6476 27.7136 21.6802 28.9549 21.7456 30.4109H18.4136ZM28.4888 30.4109C28.5448 29.0389 28.5728 27.7742 28.5728 26.6169C28.5728 26.2062 28.4701 25.8796 28.2648 25.6369C28.0688 25.3942 27.8168 25.2729 27.5088 25.2729C27.2008 25.2729 26.9394 25.4129 26.7248 25.6929C26.5101 25.9636 26.3841 26.3369 26.3468 26.8129C26.3281 27.5222 26.3188 28.0262 26.3188 28.3249C26.3188 28.9596 26.3374 29.6549 26.3748 30.4109H23.0288C23.1034 29.0669 23.1408 27.7976 23.1408 26.6029C23.1408 25.4082 23.1034 24.1296 23.0288 22.7669C23.6448 22.7949 24.1161 22.8089 24.4428 22.8089C24.7881 22.8089 25.2594 22.7949 25.8568 22.7669L26.2628 24.8249C26.4774 24.0782 26.8134 23.5276 27.2708 23.1729C27.7281 22.8089 28.2601 22.6269 28.8668 22.6269C29.4268 22.6269 29.9121 22.7529 30.3228 23.0049C30.7334 23.2476 31.0414 23.5789 31.2468 23.9989C31.4614 24.4189 31.5688 24.8902 31.5688 25.4129V27.4289C31.5688 28.6702 31.5921 29.6642 31.6388 30.4109H28.4888ZM42.6471 22.7529L39.1751 25.9169C40.3605 27.5969 41.4665 29.0949 42.4931 30.4109H38.7831L38.0691 29.2629C37.6025 28.4882 37.2945 27.9842 37.1451 27.7509L35.9831 28.8149V30.4109H32.7631C32.8378 28.6376 32.8751 26.8409 32.8751 25.0209C32.8751 23.1916 32.8378 21.3576 32.7631 19.5189H35.9831V25.4549C36.8885 24.5309 37.7425 23.6302 38.5451 22.7529H42.6471ZM49.4933 26.9109H44.9293C45.004 27.3216 45.186 27.6576 45.4753 27.9189C45.774 28.1709 46.194 28.2969 46.7353 28.2969C47.1273 28.2969 47.496 28.2222 47.8413 28.0729C48.1867 27.9142 48.462 27.6949 48.6673 27.4149C49.2927 27.7229 50.1233 28.0542 51.1593 28.4089C50.87 29.0622 50.3427 29.5849 49.5773 29.9769C48.8213 30.3596 47.832 30.5509 46.6093 30.5509C45.0227 30.5509 43.8467 30.1869 43.0813 29.4589C42.3253 28.7216 41.9473 27.7556 41.9473 26.5609C41.9473 25.3942 42.3253 24.4469 43.0813 23.7189C43.8373 22.9909 45.0133 22.6269 46.6093 22.6269C47.5613 22.6269 48.3873 22.7856 49.0873 23.1029C49.7873 23.4202 50.324 23.8636 50.6973 24.4329C51.0707 24.9929 51.2573 25.6369 51.2573 26.3649C51.2573 26.6076 51.248 26.7896 51.2293 26.9109H49.4933ZM46.8053 24.7409C46.3387 24.7409 45.956 24.8296 45.6573 25.0069C45.3587 25.1842 45.1487 25.4269 45.0273 25.7349H48.3313C48.2193 25.4362 48.0373 25.1982 47.7853 25.0209C47.5333 24.8342 47.2067 24.7409 46.8053 24.7409ZM61.3879 19.5189C61.3319 21.2549 61.3039 23.0702 61.3039 24.9649C61.3039 26.8409 61.3319 28.6562 61.3879 30.4109H58.2239L58.2659 28.7309C57.9952 29.3562 57.6032 29.8182 57.0899 30.1169C56.5765 30.4062 55.9699 30.5509 55.2699 30.5509C54.6632 30.5509 54.1172 30.3782 53.6319 30.0329C53.1465 29.6876 52.7685 29.2209 52.4979 28.6329C52.2272 28.0356 52.0919 27.3822 52.0919 26.6729C52.0919 25.9729 52.2272 25.3149 52.4979 24.6989C52.7685 24.0736 53.1465 23.5742 53.6319 23.2009C54.1265 22.8182 54.6865 22.6269 55.3119 22.6269C56.0399 22.6269 56.6605 22.7809 57.1739 23.0889C57.6965 23.3876 58.0839 23.8542 58.3359 24.4889C58.3359 23.9569 58.3172 23.1029 58.2799 21.9269C58.2425 20.7882 58.2239 19.9856 58.2239 19.5189H61.3879ZM56.7399 28.1989C57.1972 28.1989 57.5705 28.0729 57.8599 27.8209C58.1492 27.5596 58.2939 27.1489 58.2939 26.5889C58.2939 26.0942 58.1492 25.7302 57.8599 25.4969C57.5705 25.2636 57.2065 25.1469 56.7679 25.1469C56.3479 25.1469 55.9932 25.2822 55.7039 25.5529C55.4239 25.8142 55.2839 26.1596 55.2839 26.5889C55.2839 27.0649 55.4145 27.4522 55.6759 27.7509C55.9372 28.0496 56.2919 28.1989 56.7399 28.1989ZM70.6471 23.0329C69.5365 22.9769 68.7151 22.9442 68.1831 22.9349V27.7229C68.7245 27.7136 69.5458 27.6809 70.6471 27.6249V30.4109H62.5131V27.6249C63.5865 27.6809 64.4031 27.7136 64.9631 27.7229V22.9349C64.4031 22.9442 63.5865 22.9769 62.5131 23.0329V20.2469H70.6471V23.0329ZM77.229 30.4109C77.285 29.0389 77.313 27.7742 77.313 26.6169C77.313 26.2062 77.2103 25.8796 77.005 25.6369C76.809 25.3942 76.557 25.2729 76.249 25.2729C75.941 25.2729 75.6797 25.4129 75.465 25.6929C75.2503 25.9636 75.1243 26.3369 75.087 26.8129C75.0683 27.5222 75.059 28.0262 75.059 28.3249C75.059 28.9596 75.0777 29.6549 75.115 30.4109H71.769C71.8437 29.0669 71.881 27.7976 71.881 26.6029C71.881 25.4082 71.8437 24.1296 71.769 22.7669C72.385 22.7949 72.8563 22.8089 73.183 22.8089C73.5283 22.8089 73.9997 22.7949 74.597 22.7669L75.003 24.8249C75.2177 24.0782 75.5537 23.5276 76.011 23.1729C76.4683 22.8089 77.0003 22.6269 77.607 22.6269C78.167 22.6269 78.6523 22.7529 79.063 23.0049C79.4737 23.2476 79.7817 23.5789 79.987 23.9989C80.2017 24.4189 80.309 24.8902 80.309 25.4129V27.4289C80.309 28.6702 80.3323 29.6642 80.379 30.4109H77.229Z" fill="#FAF5EF"/>
</svg>
