<svg width="87" height="43" viewBox="0 0 87 43" fill="none" xmlns="http://www.w3.org/2000/svg">
<path fillRule="evenodd" clipRule="evenodd" d="M24.8145 1.14648C23.7654 -0.509671 21.2072 0.175776 21.1267 2.13463L20.6692 13.2643C20.6298 14.2218 19.915 15.0149 18.9695 15.1713C9.0319 16.8156 1.25328 19.5256 0.366245 24.3845C-2.2505 38.718 19.0036 41.0677 34.6914 42.1291C56.3134 43.592 88.6813 44.5571 85.9882 24.3845C84.5197 13.3852 56.615 11.6661 34.6914 13.3855C34.4215 13.4067 34.1515 13.4281 33.8814 13.45C33.1381 13.5101 32.4218 13.155 32.0228 12.525L24.8145 1.14648Z" fill="#FD6041"/>
<path d="M10.3251 29.9823C13.0318 29.9636 15.2718 29.917 17.0451 29.8423C16.9238 30.3183 16.8491 30.7756 16.8211 31.2143C16.7931 31.653 16.7791 32.185 16.7791 32.8103H6.90912C6.98379 30.9996 7.02112 29.3056 7.02112 27.7283C7.02112 26.151 6.98379 24.457 6.90912 22.6463H10.3251V29.9823ZM20.0371 24.3403C19.4491 24.3403 19.0104 24.1956 18.7211 23.9063C18.4411 23.617 18.3011 23.239 18.3011 22.7723C18.3011 22.315 18.4411 21.937 18.7211 21.6383C19.0104 21.3396 19.4491 21.1903 20.0371 21.1903C20.5971 21.1903 21.0264 21.3443 21.3251 21.6523C21.6237 21.951 21.7731 22.3243 21.7731 22.7723C21.7731 23.239 21.6284 23.617 21.3391 23.9063C21.0497 24.1956 20.6157 24.3403 20.0371 24.3403ZM18.4131 32.8103C18.4784 31.3076 18.5111 30.0663 18.5111 29.0863C18.5111 27.9196 18.4737 26.613 18.3991 25.1663H21.7591C21.6844 26.557 21.6471 27.8636 21.6471 29.0863C21.6471 30.113 21.6797 31.3543 21.7451 32.8103H18.4131ZM28.4883 32.8103C28.5443 31.4383 28.5723 30.1736 28.5723 29.0163C28.5723 28.6056 28.4696 28.279 28.2643 28.0363C28.0683 27.7936 27.8163 27.6723 27.5083 27.6723C27.2003 27.6723 26.9389 27.8123 26.7243 28.0923C26.5096 28.363 26.3836 28.7363 26.3463 29.2123C26.3276 29.9216 26.3183 30.4256 26.3183 30.7243C26.3183 31.359 26.3369 32.0543 26.3743 32.8103H23.0283C23.1029 31.4663 23.1403 30.197 23.1403 29.0023C23.1403 27.8076 23.1029 26.529 23.0283 25.1663C23.6443 25.1943 24.1156 25.2083 24.4423 25.2083C24.7876 25.2083 25.2589 25.1943 25.8563 25.1663L26.2623 27.2243C26.4769 26.4776 26.8129 25.927 27.2703 25.5723C27.7276 25.2083 28.2596 25.0263 28.8663 25.0263C29.4263 25.0263 29.9116 25.1523 30.3223 25.4043C30.7329 25.647 31.0409 25.9783 31.2463 26.3983C31.4609 26.8183 31.5683 27.2896 31.5683 27.8123V29.8283C31.5683 31.0696 31.5916 32.0636 31.6383 32.8103H28.4883ZM42.6466 25.1523L39.1746 28.3163C40.36 29.9963 41.466 31.4943 42.4926 32.8103H38.7826L38.0686 31.6623C37.602 30.8876 37.294 30.3836 37.1446 30.1503L35.9826 31.2143V32.8103H32.7626C32.8373 31.037 32.8746 29.2403 32.8746 27.4203C32.8746 25.591 32.8373 23.757 32.7626 21.9183H35.9826V27.8543C36.888 26.9303 37.742 26.0296 38.5446 25.1523H42.6466ZM49.4929 29.3103H44.9289C45.0035 29.721 45.1855 30.057 45.4749 30.3183C45.7735 30.5703 46.1935 30.6963 46.7349 30.6963C47.1269 30.6963 47.4955 30.6216 47.8409 30.4723C48.1862 30.3136 48.4615 30.0943 48.6669 29.8143C49.2922 30.1223 50.1229 30.4536 51.1589 30.8083C50.8695 31.4616 50.3422 31.9843 49.5769 32.3763C48.8209 32.759 47.8315 32.9503 46.6089 32.9503C45.0222 32.9503 43.8462 32.5863 43.0809 31.8583C42.3249 31.121 41.9469 30.155 41.9469 28.9603C41.9469 27.7936 42.3249 26.8463 43.0809 26.1183C43.8369 25.3903 45.0129 25.0263 46.6089 25.0263C47.5609 25.0263 48.3869 25.185 49.0869 25.5023C49.7869 25.8196 50.3235 26.263 50.6969 26.8323C51.0702 27.3923 51.2569 28.0363 51.2569 28.7643C51.2569 29.007 51.2475 29.189 51.2289 29.3103H49.4929ZM46.8049 27.1403C46.3382 27.1403 45.9555 27.229 45.6569 27.4063C45.3582 27.5836 45.1482 27.8263 45.0269 28.1343H48.3309C48.2189 27.8356 48.0369 27.5976 47.7849 27.4203C47.5329 27.2336 47.2062 27.1403 46.8049 27.1403ZM61.3874 21.9183C61.3314 23.6543 61.3034 25.4696 61.3034 27.3643C61.3034 29.2403 61.3314 31.0556 61.3874 32.8103H58.2234L58.2654 31.1303C57.9947 31.7556 57.6027 32.2176 57.0894 32.5163C56.5761 32.8056 55.9694 32.9503 55.2694 32.9503C54.6627 32.9503 54.1167 32.7776 53.6314 32.4323C53.1461 32.087 52.7681 31.6203 52.4974 31.0323C52.2267 30.435 52.0914 29.7816 52.0914 29.0723C52.0914 28.3723 52.2267 27.7143 52.4974 27.0983C52.7681 26.473 53.1461 25.9736 53.6314 25.6003C54.1261 25.2176 54.6861 25.0263 55.3114 25.0263C56.0394 25.0263 56.6601 25.1803 57.1734 25.4883C57.6961 25.787 58.0834 26.2536 58.3354 26.8883C58.3354 26.3563 58.3167 25.5023 58.2794 24.3263C58.2421 23.1876 58.2234 22.385 58.2234 21.9183H61.3874ZM56.7394 30.5983C57.1967 30.5983 57.5701 30.4723 57.8594 30.2203C58.1487 29.959 58.2934 29.5483 58.2934 28.9883C58.2934 28.4936 58.1487 28.1296 57.8594 27.8963C57.5701 27.663 57.2061 27.5463 56.7674 27.5463C56.3474 27.5463 55.9927 27.6816 55.7034 27.9523C55.4234 28.2136 55.2834 28.559 55.2834 28.9883C55.2834 29.4643 55.4141 29.8516 55.6754 30.1503C55.9367 30.449 56.2914 30.5983 56.7394 30.5983ZM70.6466 25.4323C69.536 25.3763 68.7146 25.3436 68.1826 25.3343V30.1223C68.724 30.113 69.5453 30.0803 70.6466 30.0243V32.8103H62.5126V30.0243C63.586 30.0803 64.4026 30.113 64.9626 30.1223V25.3343C64.4026 25.3436 63.586 25.3763 62.5126 25.4323V22.6463H70.6466V25.4323ZM77.2285 32.8103C77.2845 31.4383 77.3125 30.1736 77.3125 29.0163C77.3125 28.6056 77.2098 28.279 77.0045 28.0363C76.8085 27.7936 76.5565 27.6723 76.2485 27.6723C75.9405 27.6723 75.6792 27.8123 75.4645 28.0923C75.2498 28.363 75.1238 28.7363 75.0865 29.2123C75.0678 29.9216 75.0585 30.4256 75.0585 30.7243C75.0585 31.359 75.0772 32.0543 75.1145 32.8103H71.7685C71.8432 31.4663 71.8805 30.197 71.8805 29.0023C71.8805 27.8076 71.8432 26.529 71.7685 25.1663C72.3845 25.1943 72.8558 25.2083 73.1825 25.2083C73.5278 25.2083 73.9992 25.1943 74.5965 25.1663L75.0025 27.2243C75.2172 26.4776 75.5532 25.927 76.0105 25.5723C76.4678 25.2083 76.9998 25.0263 77.6065 25.0263C78.1665 25.0263 78.6518 25.1523 79.0625 25.4043C79.4732 25.647 79.7812 25.9783 79.9865 26.3983C80.2012 26.8183 80.3085 27.2896 80.3085 27.8123V29.8283C80.3085 31.0696 80.3318 32.0636 80.3785 32.8103H77.2285Z" fill="#FAF5EF"/>
</svg>
