<svg xmlns="http://www.w3.org/2000/svg" className="object" viewBox="0 0 320 1080" width="100%" height="100%">
<path className="object-fill-1" fillRule="evenodd" clipRule="evenodd" d="M220.188 80.6954C235.124 87.8614 253.292 82.4129 261.713 67.828C270.549 52.5226 265.305 32.9517 250 24.1152C234.695 15.2786 215.124 20.5226 206.287 35.828C197.876 50.3966 202.222 68.8299 215.86 78.1917L221.232 68.8868C225.691 61.1632 227.22 58.4838 227.179 58.4604C227.011 58.3636 225.677 57.9573 225.141 57.8396C224.055 57.6014 223.156 57.5333 222.037 57.6042C221.335 57.6486 220.939 57.5481 220.244 57.1493C219.438 56.6863 219.057 56.2085 218.831 55.3734C218.639 54.6661 218.704 54.162 219.071 53.5208C219.268 53.1769 219.409 53.0293 220.176 52.3644C220.789 51.833 221.305 51.2608 221.897 50.4566C222.453 49.7029 222.732 49.2187 223.109 48.358C223.693 47.0229 223.98 45.9306 224.074 44.6949C224.135 43.8926 224.107 43.3956 223.955 42.5964C223.894 42.2763 223.849 41.8709 223.856 41.6957C223.867 41.4088 223.897 41.327 224.16 40.872C224.422 40.4181 224.48 40.3472 224.74 40.1735C225.1 39.9315 225.734 39.7758 226.197 39.8155C226.522 39.8433 226.595 39.8725 227.174 40.2067C227.761 40.5458 227.813 40.5867 228.019 40.879C228.186 41.1154 228.28 41.3544 228.409 41.8742C228.984 44.1758 228.75 46.726 227.714 49.4477C227.419 50.2243 226.271 52.3551 225.76 53.0746C225.496 53.4475 225.47 53.5011 225.547 53.5199C225.594 53.5316 225.855 53.5947 226.126 53.6601C226.651 53.7867 228.168 54.2912 228.923 54.5903L229.379 54.7707L233.561 47.557L237.744 40.3433L238.036 40.0972C238.441 39.755 238.717 39.6091 239.214 39.4738C239.963 39.2699 240.694 39.4216 241.279 39.9023C241.674 40.2266 241.909 40.5976 242.044 41.1075C242.175 41.6057 242.187 41.9175 242.093 42.4399L242.026 42.8155L237.871 50.0429L233.716 57.2703L234.123 57.5895C234.75 58.0805 235.961 59.1538 236.35 59.5628C236.542 59.7648 236.727 59.9592 236.761 59.9947C236.816 60.0515 236.849 60.0024 237.04 59.587C237.408 58.7853 238.679 56.7258 239.204 56.0815C241.043 53.8236 243.135 52.3458 245.416 51.6927C245.931 51.5452 246.184 51.5069 246.473 51.5332C246.829 51.5657 246.89 51.5898 247.477 51.9289C248.056 52.263 248.118 52.3116 248.305 52.5795C248.57 52.9606 248.752 53.5869 248.723 54.0204C248.702 54.3317 248.67 54.4181 248.408 54.872C248.146 55.327 248.09 55.394 247.847 55.547C247.698 55.6403 247.325 55.8045 247.017 55.9118C246.249 56.1795 245.805 56.4035 245.14 56.8573C244.117 57.5564 243.315 58.3519 242.451 59.5253C241.894 60.2817 241.614 60.7657 241.239 61.6234C240.839 62.5384 240.601 63.2716 240.447 64.068C240.255 65.0645 240.197 65.2604 239.998 65.6028C239.626 66.2412 239.222 66.55 238.514 66.7375C237.678 66.9589 237.074 66.8685 236.269 66.4015C235.577 65.9991 235.291 65.7062 234.979 65.0764C234.481 64.0714 233.973 63.3276 233.223 62.5063C232.828 62.0725 231.83 61.1459 231.642 61.0373C231.57 60.9954 231.099 61.7968 225.562 71.3868L220.188 80.6954Z"/>
<path className="object-stroke-1" d="M203.607 80.469L224.392 92.469" stroke-width="8" stroke-linecap="round"/>
<path className="object-fill-1" d="M60 180C60 124.772 104.772 80 160 80V80C215.228 80 260 124.772 260 180V1080H60V180Z"/>
<line className="object-stroke-2" x1="104" y1="156" x2="216" y2="156" stroke-width="8" stroke-linecap="round"/>
<path className="object-fill-2" fill-rule="evenodd" clip-rule="evenodd" d="M122 166C124.209 166 126 167.791 126 170C126 172.692 126.691 174.755 127.684 176.045C128.582 177.212 129.9 178 132 178C134.1 178 135.418 177.212 136.316 176.045C137.309 174.755 138 172.692 138 170C138 167.791 139.791 166 142 166C144.209 166 146 167.791 146 170C146 173.935 145.005 177.872 142.655 180.925C140.21 184.102 136.528 186 132 186C127.472 186 123.79 184.102 121.345 180.925C118.995 177.872 118 173.935 118 170C118 167.791 119.791 166 122 166Z"/>
<path className="object-fill-2" fill-rule="evenodd" clip-rule="evenodd" d="M178 166C180.209 166 182 167.791 182 170C182 172.692 182.691 174.755 183.684 176.045C184.582 177.212 185.9 178 188 178C190.1 178 191.418 177.212 192.316 176.045C193.309 174.755 194 172.692 194 170C194 167.791 195.791 166 198 166C200.209 166 202 167.791 202 170C202 173.935 201.005 177.872 198.655 180.925C196.21 184.102 192.528 186 188 186C183.472 186 179.79 184.102 177.345 180.925C174.995 177.872 174 173.935 174 170C174 167.791 175.791 166 178 166Z"/>
</svg>
