<svg xmlns="http://www.w3.org/2000/svg" className="object" viewBox="0 0 320 1080" width="100%" height="100%">
<path className="object-fill-1" fillRule="evenodd" clipRule="evenodd" d="M120 68C120 45.9086 137.909 28 160 28V28C182.091 28 200 45.9086 200 68V76.3209C187.751 70.969 174.222 68 160 68C145.778 68 132.249 70.9689 120 76.3209V68Z"/>
<path className="object-fill-1" fillRule="evenodd" clipRule="evenodd" d="M160 10C160.964 10 161.889 10.3831 162.571 11.0651C163.253 11.747 163.636 12.6719 163.636 13.6364V17.2727C163.636 18.2372 163.253 19.1621 162.571 19.844C161.889 20.526 160.964 20.9091 160 20.9091C159.036 20.9091 158.111 20.526 157.429 19.844C156.747 19.1621 156.364 18.2372 156.364 17.2727V13.6364C156.364 12.6719 156.747 11.747 157.429 11.0651C158.111 10.3831 159.036 10 160 10ZM117.338 23.3382C118.02 22.6565 118.945 22.2735 119.909 22.2735C120.873 22.2735 121.798 22.6565 122.48 23.3382L127.935 28.7927C128.597 29.4786 128.963 30.3971 128.955 31.3506C128.947 32.304 128.564 33.216 127.89 33.8903C127.216 34.5645 126.304 34.9469 125.351 34.9552C124.397 34.9635 123.479 34.5969 122.793 33.9345L117.338 28.48C116.656 27.7981 116.274 26.8733 116.274 25.9091C116.274 24.9449 116.656 24.0201 117.338 23.3382ZM203.662 23.3382C204.344 24.0201 204.727 24.9449 204.727 25.9091C204.727 26.8733 204.344 27.7981 203.662 28.48L198.207 33.9345C197.872 34.2819 197.471 34.5589 197.027 34.7495C196.583 34.94 196.106 35.0404 195.623 35.0445C195.14 35.0487 194.662 34.9567 194.215 34.7739C193.768 34.5911 193.362 34.321 193.02 33.9796C192.679 33.6382 192.409 33.2322 192.226 32.7853C192.043 32.3384 191.951 31.8596 191.955 31.3767C191.96 30.8939 192.06 30.4167 192.251 29.9731C192.441 29.5294 192.718 29.1282 193.065 28.7927L198.52 23.3382C199.202 22.6565 200.127 22.2735 201.091 22.2735C202.055 22.2735 202.98 22.6565 203.662 23.3382ZM104 60C104 59.0356 104.383 58.1107 105.065 57.4287C105.747 56.7468 106.672 56.3636 107.636 56.3636H111.273C112.237 56.3636 113.162 56.7468 113.844 57.4287C114.526 58.1107 114.909 59.0356 114.909 60C114.909 60.9644 114.526 61.8893 113.844 62.5713C113.162 63.2532 112.237 63.6364 111.273 63.6364H107.636C106.672 63.6364 105.747 63.2532 105.065 62.5713C104.383 61.8893 104 60.9644 104 60ZM205.091 60C205.091 59.0356 205.474 58.1107 206.156 57.4287C206.838 56.7468 207.763 56.3636 208.727 56.3636H212.364C213.328 56.3636 214.253 56.7468 214.935 57.4287C215.617 58.1107 216 59.0356 216 60C216 60.9644 215.617 61.8893 214.935 62.5713C214.253 63.2532 213.328 63.6364 212.364 63.6364H208.727C207.763 63.6364 206.838 63.2532 206.156 62.5713C205.474 61.8893 205.091 60.9644 205.091 60Z"/>
<path className="object-fill-1" d="M60 180C60 124.772 104.772 80 160 80V80C215.228 80 260 124.772 260 180V1080H60V180Z"/>
<line className="object-stroke-2" x1="104" y1="156" x2="216" y2="156" stroke-width="8" stroke-linecap="round"/>
<path className="object-fill-2" d="M124 156H140V176C140 180.418 136.418 184 132 184V184C127.582 184 124 180.418 124 176V156Z"/>
<path className="object-fill-2" d="M180 156H196V176C196 180.418 192.418 184 188 184V184C183.582 184 180 180.418 180 176V156Z"/>
</svg>
