<svg xmlns="http://www.w3.org/2000/svg" className="object" viewBox="0 0 241 1080" width="100%" height="100%">
<path className="object-fill-1" fillRule="evenodd" clipRule="evenodd" d="M158.27 54.8783C156.062 53.6033 153.537 51.8815 151.074 52.5414L68.0589 74.7853C63.8093 75.9239 61.4562 80.3757 60.8319 84.7307C59.7301 92.4168 54.1788 99.083 46.2043 101.22C38.2297 103.357 30.089 100.359 25.2918 94.2536C22.5736 90.7942 18.3099 88.1155 14.0603 89.2542L6.72831 91.2188C2.46058 92.3623 -0.0720809 96.749 1.07145 101.017L6.16449 120.024C6.81425 122.449 10.1794 123.296 12.6044 122.646C17.939 121.217 23.4224 124.382 24.8518 129.717C26.2812 135.052 23.1154 140.535 17.7807 141.965C15.3148 142.625 12.752 145.042 13.3245 147.53C18.7384 171.055 21.4755 195.13 21.4755 219.294L21.4755 1072C21.4755 1076.42 25.0572 1080 29.4755 1080H213.476C217.894 1080 221.476 1076.42 221.476 1072V203.496C221.476 173.722 218.151 144.058 211.575 115.052C211.555 114.965 211.467 114.913 211.381 114.936C202.846 117.223 194.072 112.158 191.785 103.622C189.498 95.0867 194.564 86.3133 203.099 84.0262C203.342 83.9612 203.49 83.7132 203.425 83.4705L194.257 49.2529C193.113 44.9852 188.726 42.4525 184.459 43.5961L171.53 47.0603C169.067 47.7203 167.741 50.4738 166.466 52.6821C164.809 55.5519 161.14 56.5351 158.27 54.8783ZM158.389 79.4418C160.105 85.8434 156.306 92.4235 149.904 94.1388C143.503 95.8541 136.922 92.0551 135.207 85.6535C133.492 79.2519 137.291 72.6718 143.692 70.9565C150.094 69.2412 156.674 73.0402 158.389 79.4418ZM19.5364 102.154C20.394 105.354 18.4945 108.644 15.2937 109.502C12.0929 110.36 8.80292 108.46 7.94527 105.259C7.08762 102.059 8.98711 98.7685 12.1879 97.9109C15.3887 97.0532 18.6787 98.9527 19.5364 102.154Z"/>
<path className="object-fill-2" fillRule="evenodd" clipRule="evenodd" d="M61 156C61 153.791 62.7909 152 65 152H177C179.209 152 181 153.791 181 156C181 158.209 179.209 160 177 160H165C160.582 160 157 163.582 157 168V176C157 180.418 153.418 184 149 184C144.582 184 141 180.418 141 176V168C141 163.582 137.418 160 133 160H109C104.582 160 101 163.582 101 168V176C101 180.418 97.4183 184 93 184C88.5817 184 85 180.418 85 176V168C85 163.582 81.4183 160 77 160H65C62.7909 160 61 158.209 61 156Z"/>
</svg>
