<svg xmlns="http://www.w3.org/2000/svg" className="object" viewBox="0 0 320 1080" width="100%" height="100%">
<path className="object-fill-1" d="M71.7139 70.7142L110.284 55.2862L202.281 92.0852C200.856 93.2169 175.976 102.843 163.714 107.514C161.663 108.335 158.337 108.335 156.286 107.514L71.7139 73.6854C69.6628 72.8649 69.6628 71.5347 71.7139 70.7142Z"/>
<path className="object-fill-1" d="M248.286 70.7142C250.337 71.5347 250.337 72.8649 248.286 73.6854L210.088 88.9626L118.09 52.1636L156.286 36.8854C158.337 36.0649 161.663 36.0649 163.714 36.8854L248.286 70.7142Z"/>
<path className="object-fill-1" d="M60 155.323V150.583V87.8159V77.4767C60 76.7692 60.7145 76.2855 61.3714 76.5482L70.9711 80.3881L157.029 114.811C158.936 115.574 161.064 115.574 162.971 114.811L249.029 80.3881L258.629 76.5482C259.285 76.2855 260 76.7692 260 77.4767V87.8159V150.583V155.323C260 155.732 259.751 156.099 259.371 156.251L254.971 158.011L162.971 194.811C161.064 195.574 158.936 195.574 157.029 194.811L65.0289 158.011L60.6286 156.251C60.249 156.099 60 155.732 60 155.323Z"/>
<rect className="object-fill-1" x="60" y="120" width="200" height="960"/>
<line className="object-stroke-2" x1="104" y1="156" x2="216" y2="156" strokeWidth="8" strokeLinecap="round"/>
<path className="object-fill-2" d="M124 156H140V176C140 180.418 136.418 184 132 184C127.582 184 124 180.418 124 176V156Z"/>
<path className="object-fill-2" d="M180 156H196V176C196 180.418 192.418 184 188 184C183.582 184 180 180.418 180 176V156Z"/>
</svg>
