<svg xmlns="http://www.w3.org/2000/svg" className="object" viewBox="0 0 320 1080" width="100%" height="100%">
<path className="object-fill-1" d="M60 130.388C60 102.033 81.9841 78.5344 110.276 76.6483V76.6483C116.706 76.2196 123.162 76.9485 129.335 78.8004L135.049 80.5148C151.325 85.3974 168.675 85.3974 184.951 80.5148L190.665 78.8004C196.838 76.9485 203.294 76.2196 209.724 76.6483V76.6483C238.016 78.5344 260 102.033 260 130.388V1080H60V130.388Z"/>
<path className="object-stroke-1" d="M160 88C160 81.4339 158.707 74.9321 156.194 68.8658C153.681 62.7995 149.998 57.2876 145.355 52.6447C140.712 48.0017 135.2 44.3188 129.134 41.806C123.068 39.2933 116.566 38 110 38" stroke-width="16" stroke-linecap="round"/>
<path className="object-fill-1" d="M194.667 26V26C202.03 26 208 31.9695 208 39.3333V39.3333C207.993 46.4036 205.181 53.1823 200.182 58.1817C195.182 63.1812 188.404 65.9929 181.333 66H172C169.791 66 168 64.2091 168 62V52.6667C168.007 45.5964 170.819 38.8177 175.818 33.8183C180.818 28.8188 187.596 26.0071 194.667 26Z"/>
<path className="object-stroke-2" d="M234 94.9031C239.209 98.9003 243.58 103.884 246.863 109.571" stroke-width="8" stroke-linecap="round"/>
<line className="object-stroke-2" x1="104" y1="156" x2="216" y2="156" stroke-width="8" stroke-linecap="round"/>
<path className="object-fill-2" d="M124 156H140V176C140 180.418 136.418 184 132 184V184C127.582 184 124 180.418 124 176V156Z"/>
<path className="object-fill-2" d="M180 156H196V176C196 180.418 192.418 184 188 184V184C183.582 184 180 180.418 180 176V156Z"/>
</svg>
