<svg xmlns="http://www.w3.org/2000/svg" className="object" viewBox="0 0 320 1080" width="100%" height="100%">
<path className="object-fill-1 object-stroke-1" fillRule="evenodd" clipRule="evenodd" d="M138.665 40.3334C138.665 28.5513 148.217 19.0001 159.999 19.0001C171.781 19.0001 181.332 28.5513 181.332 40.3334C181.332 50.7483 173.869 59.42 163.999 61.2923L163.999 120.333L155.999 120.333L155.999 61.2923C146.129 59.42 138.665 50.7483 138.665 40.3334Z" strokeWidth="8"/>
<path className="object-fill-1" d="M60 180C60 124.772 104.772 80 160 80V80C215.228 80 260 124.772 260 180V1080H60V180Z"/>
<line className="object-stroke-2" x1="104" y1="156" x2="216" y2="156" strokeWidth="8" strokeLinecap="square"/>
<rect className="object-fill-2" x="124" y="156" width="16" height="28"/>
<rect className="object-fill-2" x="180" y="156" width="16" height="28"/>
</svg>
