<svg xmlns="http://www.w3.org/2000/svg" className="object" viewBox="0 0 320 1080" width="100%" height="100%">
<path className="object-fill-1" d="M51.9319 76.1587C50.8649 75.8728 50.2318 74.7761 50.5176 73.7092L64.1234 22.9319C64.4093 21.8649 65.5059 21.2318 66.5729 21.5176L117.35 35.1234C118.417 35.4093 119.05 36.5059 118.764 37.5729L105.159 88.3502C104.873 89.4171 103.776 90.0503 102.709 89.7644L51.9319 76.1587Z"/>
<path className="object-fill-1" d="M60 180C60 124.772 104.772 80 160 80V80C215.228 80 260 124.772 260 180V1080H60V180Z"/>
<line className="object-stroke-2" x1="104" y1="156" x2="216" y2="156" stroke-width="8" stroke-linecap="round"/>
<path className="object-fill-2" d="M124 156H140V176C140 180.418 136.418 184 132 184V184C127.582 184 124 180.418 124 176V156Z"/>
<path className="object-fill-2" d="M180 156H196V176C196 180.418 192.418 184 188 184V184C183.582 184 180 180.418 180 176V156Z"/>
</svg>
