<svg xmlns="http://www.w3.org/2000/svg" className="object" viewBox="0 0 320 1080" width="100%" height="100%">
<path className="object-fill-1" d="M60 180C60 124.772 104.772 80 160 80C215.228 80 260 124.772 260 180V1080H60V180Z"/>
<path className="object-fill-2" d="M125.221 200.15H105.171C94.3438 200.15 84.8535 191.729 83.5168 181.036L80.1751 161.052C79.44 155.372 81.044 150.025 84.5193 146.149C87.9946 142.272 93.0739 140 98.4874 140H138.587C144.134 140 147 140 150 143C151 144 152.465 146.797 153 148H167C167.535 146.797 169 144 170 143C173 140 175.825 140 181.439 140H221.539C226.952 140 232.032 142.272 235.507 146.149C238.915 150.025 240.519 155.372 239.851 160.785L236.443 181.303C235.173 191.729 225.616 200.15 214.855 200.15H194.806C184.38 200.15 174.221 192.197 171.681 182.105L168 168L152 168L148.144 182.573C145.738 192.263 135.647 200.15 125.221 200.15Z"/>
<rect className="object-fill-1" x="120" y="156" width="16" height="28"/>
<rect className="object-fill-1" x="184" y="156" width="16" height="28"/>
</svg>
