<svg xmlns="http://www.w3.org/2000/svg" width="100%" height="100%">
<path id="open-external-box" d="M5.33334 48C3.86667 48 2.61067 47.4773 1.56534 46.432C0.520004 45.3867 -0.00177325 44.1315 4.52745e-06 42.6667V13.3333C4.52745e-06 11.8667 0.522671 10.6107 1.568 9.56534C2.61334 8.52 3.86845 7.99823 5.33334 8H15.3333C16.0889 8 16.7227 8.256 17.2347 8.768C17.7467 9.28 18.0018 9.91289 18 10.6667C18 11.4222 17.744 12.056 17.232 12.568C16.72 13.08 16.0871 13.3351 15.3333 13.3333H5.33334V42.6667H34.6667V32.6667C34.6667 31.9111 34.9227 31.2773 35.4347 30.7653C35.9467 30.2533 36.5795 29.9982 37.3333 30C38.0889 30 38.7227 30.256 39.2347 30.768C39.7467 31.28 40.0018 31.9129 40 32.6667V42.6667C40 44.1333 39.4773 45.3893 38.432 46.4347C37.3867 47.48 36.1315 48.0018 34.6667 48H5.33334Z"/>
<path id="open-external-arrow" d="M12.9999 35C12.511 34.5111 12.2666 33.8889 12.2666 33.1333C12.2666 32.3778 12.511 31.7556 12.9999 31.2667L38.9333 5.33334H23.9999C23.2444 5.33334 22.6106 5.07734 22.0986 4.56534C21.5866 4.05334 21.3315 3.42045 21.3333 2.66668C21.3333 1.91112 21.5893 1.27734 22.1013 0.765342C22.6133 0.253342 23.2462 -0.00176855 23.9999 9.22722e-06H45.3333C46.0888 9.22722e-06 46.7226 0.256009 47.2346 0.768009C47.7466 1.28001 48.0017 1.9129 47.9999 2.66668V24C47.9999 24.7556 47.7439 25.3893 47.2319 25.9013C46.7199 26.4133 46.087 26.6684 45.3333 26.6667C44.5777 26.6667 43.9439 26.4107 43.4319 25.8987C42.9199 25.3867 42.6648 24.7538 42.6666 24V9.06667L16.6666 35.0667C16.1777 35.5556 15.5777 35.8 14.8666 35.8C14.1555 35.8 13.5333 35.5333 12.9999 35Z"/>
</svg>
