<svg width="100%" height="100%" viewBox="0 0 40 40" fill="none" xmlns="http://www.w3.org/2000/svg">
<path d="M3.33331 18.3333L11.6666 3.33333L20 18.3333H3.33331ZM11.6666 35C9.83331 35 8.26387 34.3472 6.95831 33.0417C5.65276 31.7361 4.99998 30.1667 4.99998 28.3333C4.99998 26.5 5.65276 24.9306 6.95831 23.625C8.26387 22.3194 9.83331 21.6667 11.6666 21.6667C13.5 21.6667 15.0694 22.3194 16.375 23.625C17.6805 24.9306 18.3333 26.5 18.3333 28.3333C18.3333 30.1667 17.6805 31.7361 16.375 33.0417C15.0694 34.3472 13.5 35 11.6666 35ZM21.6666 35V21.6667H35V35H21.6666ZM28.3333 18.3333C26.75 17 25.4239 15.875 24.355 14.9583C23.285 14.0417 22.4305 13.2361 21.7916 12.5417C21.1528 11.8472 20.6944 11.1944 20.4166 10.5833C20.1389 9.97222 20 9.31944 20 8.625C20 7.375 20.4378 6.31944 21.3133 5.45833C22.1878 4.59722 23.2778 4.16666 24.5833 4.16666C25.3333 4.16666 26.035 4.33999 26.6883 4.68666C27.3405 5.03444 27.8889 5.51388 28.3333 6.12499C28.7778 5.51388 29.3266 5.03444 29.98 4.68666C30.6322 4.33999 31.3333 4.16666 32.0833 4.16666C33.3889 4.16666 34.4789 4.59722 35.3533 5.45833C36.2289 6.31944 36.6666 7.375 36.6666 8.625C36.6666 9.31944 36.5278 9.97222 36.25 10.5833C35.9722 11.1944 35.5139 11.8472 34.875 12.5417C34.2361 13.2361 33.3822 14.0417 32.3133 14.9583C31.2433 15.875 29.9166 17 28.3333 18.3333Z" fill="black"/>
</svg>
