<svg width="100%" height="100%" viewBox="0 0 40 40" fill="none" xmlns="http://www.w3.org/2000/svg">
<path d="M20 23.3333C20.9167 23.3333 21.7017 23.0067 22.355 22.3533C23.0072 21.7011 23.3334 20.9167 23.3334 20C23.3334 19.0833 23.0072 18.2983 22.355 17.645C21.7017 16.9928 20.9167 16.6667 20 16.6667C19.0834 16.6667 18.2989 16.9928 17.6467 17.645C16.9934 18.2983 16.6667 19.0833 16.6667 20C16.6667 20.9167 16.9934 21.7011 17.6467 22.3533C18.2989 23.0067 19.0834 23.3333 20 23.3333ZM13.3334 30H26.6667V29.0417C26.6667 28.375 26.4861 27.7639 26.125 27.2083C25.7639 26.6528 25.2639 26.2361 24.625 25.9583C23.9028 25.6528 23.16 25.4167 22.3967 25.25C21.6322 25.0833 20.8334 25 20 25C19.1667 25 18.3678 25.0833 17.6034 25.25C16.84 25.4167 16.0972 25.6528 15.375 25.9583C14.7361 26.2361 14.2361 26.6528 13.875 27.2083C13.5139 27.7639 13.3334 28.375 13.3334 29.0417V30ZM30 36.6667H10C9.08335 36.6667 8.29891 36.3405 7.64669 35.6883C6.99335 35.035 6.66669 34.25 6.66669 33.3333V6.66666C6.66669 5.74999 6.99335 4.96499 7.64669 4.31166C8.29891 3.65944 9.08335 3.33333 10 3.33333H23.3334L33.3334 13.3333V33.3333C33.3334 34.25 33.0072 35.035 32.355 35.6883C31.7017 36.3405 30.9167 36.6667 30 36.6667Z" fill="black"/>
</svg>
