<svg width="129" height="74" viewBox="0 0 129 74" fill="none" xmlns="http://www.w3.org/2000/svg">
<path fill-rule="evenodd" clip-rule="evenodd" d="M3.41896 25.2852C13.3501 9.93711 27.4189 2.09813e-05 61.3319 0C81.538 -1.25e-05 108.616 10.0599 114.853 25.6814C116.056 28.6932 118.126 31.506 121.221 32.4733L127.31 34.3762C129.182 34.961 129.182 37.6093 127.31 38.1941L116.359 41.6165C114.421 42.222 112.833 43.5816 111.597 45.1918C100.56 59.5644 73.7146 59.5644 61.3319 59.5644C58.7454 59.5644 56.0171 59.6024 53.2047 59.6415C37.0834 59.8659 18.1983 60.1287 7.40734 53.4996C-1.08103 48.2851 -2.08103 33.7851 3.41896 25.2852Z" fill="#FD6041"/>
<path d="M49.7349 18.1743C46.6095 17.8555 43.5711 17.5829 40.6197 17.3565L39.5274 32.9783L32.0456 32.4552L33.138 16.8333C30.1639 16.6454 27.1271 16.4932 24.0277 16.3767L24.4671 10.092L50.1744 11.8897L49.7349 18.1743ZM76.107 20.9808C75.9856 22.7165 75.4541 24.153 74.5125 25.29C73.5908 26.4285 72.0837 27.1953 69.991 27.5902C70.2081 27.9262 70.3603 28.1875 70.4475 28.374L74.8248 35.4466L66.6846 34.8774C65.9212 33.18 64.6964 30.7687 63.0103 27.6434L58.611 27.3358L58.1255 34.2788L51.0628 33.785C51.4931 29.9256 51.8261 26.31 52.0618 22.9382C52.2976 19.5665 52.471 15.9397 52.5821 12.058L59.6448 12.5519L59.6427 12.5818L65.7778 13.0108C69.8079 13.2926 72.5757 14.1378 74.0811 15.5462C75.5865 16.9547 76.2618 18.7662 76.107 20.9808ZM59.2409 18.3278L59.0024 21.7395L63.0425 22.022C64.7384 22.1406 66.0187 22.18 66.8836 22.1402C67.7699 22.0819 68.3909 21.9449 68.7468 21.7292C69.1027 21.5135 69.2967 21.1762 69.3288 20.7173C69.3595 20.2784 69.2236 19.9281 68.9212 19.6663C68.6187 19.4046 68.032 19.1931 67.1611 19.032C66.2902 18.8709 64.9969 18.7303 63.2811 18.6103L59.2409 18.3278ZM104.146 15.6638L103.517 16.4919C101.151 19.6545 99.1101 22.459 97.3953 24.9053C95.7018 27.3331 94.2717 29.5788 93.1049 31.6425L92.7512 36.7001L84.9403 36.1539L85.3295 30.5875C84.696 29.0395 83.9355 27.4426 83.0482 25.7967C82.1622 24.1308 80.8984 21.8471 79.2568 18.9455C77.9682 16.7303 76.9874 14.9876 76.3144 13.7175L84.6939 14.3035C85.2073 15.5624 86.0587 17.4363 87.248 19.9254C88.4344 22.4543 89.2422 24.235 89.6712 25.2674C90.4714 23.8598 91.5339 22.1397 92.8589 20.1072C94.4086 17.7295 95.4577 16.0586 96.0063 15.0945L104.146 15.6638Z" fill="#FAF5EF"/>
<path d="M15.5964 37.6852C17.719 37.6852 19.1964 38.0638 20.0284 38.8212C20.8604 39.5678 21.2764 40.6238 21.2764 41.9892C21.2764 42.9278 21.111 43.7278 20.7804 44.3892C20.4497 45.0398 19.8684 45.5518 19.0364 45.9252C18.2044 46.2878 17.0577 46.4692 15.5964 46.4692H12.2684V49.2852H8.33238C8.41772 47.2158 8.46038 45.2798 8.46038 43.4772C8.46038 41.6745 8.41772 39.7385 8.33238 37.6692H12.2684V37.6852H15.5964ZM14.4764 43.3812C15.3617 43.3812 16.023 43.3492 16.4604 43.2852C16.9084 43.2105 17.2177 43.0825 17.3884 42.9012C17.5697 42.7198 17.6604 42.4532 17.6604 42.1012C17.6604 41.7492 17.5751 41.4878 17.4044 41.3172C17.2444 41.1358 16.9404 41.0132 16.4924 40.9492C16.055 40.8852 15.383 40.8532 14.4764 40.8532H12.2684V43.3812H14.4764ZM26.2631 42.9172C26.7111 41.3065 27.8258 40.5012 29.6071 40.5012C29.9165 40.5012 30.2151 40.5225 30.5031 40.5652L29.9911 44.1492C29.2231 43.8612 28.5938 43.7172 28.1031 43.7172C27.4951 43.7172 27.0471 43.8985 26.7591 44.2612C26.4711 44.6238 26.3271 45.1092 26.3271 45.7172V45.7012L26.3111 46.7572C26.3111 47.5145 26.3325 48.3572 26.3751 49.2852H22.5511C22.6365 47.7492 22.6791 46.2985 22.6791 44.9332C22.6791 43.5678 22.6365 42.1065 22.5511 40.5492C23.2551 40.5812 23.7938 40.5972 24.1671 40.5972C24.5618 40.5972 25.1005 40.5812 25.7831 40.5492L26.2631 42.9172ZM36.4531 49.4452C34.6291 49.4452 33.2851 49.0292 32.4211 48.1972C31.5678 47.3545 31.1411 46.2505 31.1411 44.8852C31.1411 43.5518 31.5678 42.4692 32.4211 41.6372C33.2851 40.8052 34.6291 40.3892 36.4531 40.3892C37.6798 40.3892 38.7038 40.5918 39.5251 40.9972C40.3571 41.3918 40.9705 41.9305 41.3651 42.6132C41.7598 43.2852 41.9571 44.0425 41.9571 44.8852C41.9571 46.2612 41.4985 47.3652 40.5811 48.1972C39.6745 49.0292 38.2985 49.4452 36.4531 49.4452ZM36.5171 46.7252C37.2105 46.7252 37.7278 46.5598 38.0691 46.2292C38.4105 45.8985 38.5811 45.4558 38.5811 44.9012C38.5811 44.3785 38.4105 43.9518 38.0691 43.6212C37.7278 43.2798 37.2105 43.1092 36.5171 43.1092C35.8238 43.1092 35.3171 43.2745 34.9971 43.6052C34.6771 43.9358 34.5171 44.3678 34.5171 44.9012C34.5171 45.4558 34.6771 45.8985 34.9971 46.2292C35.3171 46.5598 35.8238 46.7252 36.5171 46.7252ZM50.3304 43.4132C49.349 43.3492 48.453 43.3012 47.6424 43.2692L47.6264 44.9652C47.6264 45.5412 47.749 45.9945 47.9944 46.3252C48.2504 46.6452 48.6984 46.8052 49.3384 46.8052C49.5837 46.8052 49.8184 46.7838 50.0424 46.7412C49.9997 47.1358 49.9784 47.5358 49.9784 47.9412C49.9784 48.1332 49.989 48.5705 50.0104 49.2532C49.541 49.3385 49.1464 49.3918 48.8264 49.4132C48.5064 49.4345 48.0904 49.4452 47.5784 49.4452C46.3304 49.4452 45.445 49.1465 44.9224 48.5492C44.4104 47.9412 44.1544 47.0985 44.1544 46.0212L44.1704 43.3172C43.669 43.3385 43.1464 43.3705 42.6024 43.4132V40.5812C43.157 40.5812 43.6264 40.4052 44.0104 40.0532C44.3944 39.7012 44.6237 39.2798 44.6984 38.7892H49.0504C48.5064 39.5358 47.9037 40.1332 47.2424 40.5812H50.3304V43.4132ZM56.4375 49.4452C54.6135 49.4452 53.2695 49.0292 52.4055 48.1972C51.5522 47.3545 51.1255 46.2505 51.1255 44.8852C51.1255 43.5518 51.5522 42.4692 52.4055 41.6372C53.2695 40.8052 54.6135 40.3892 56.4375 40.3892C57.6642 40.3892 58.6882 40.5918 59.5095 40.9972C60.3415 41.3918 60.9548 41.9305 61.3495 42.6132C61.7442 43.2852 61.9415 44.0425 61.9415 44.8852C61.9415 46.2612 61.4828 47.3652 60.5655 48.1972C59.6588 49.0292 58.2828 49.4452 56.4375 49.4452ZM56.5015 46.7252C57.1948 46.7252 57.7122 46.5598 58.0535 46.2292C58.3948 45.8985 58.5655 45.4558 58.5655 44.9012C58.5655 44.3785 58.3948 43.9518 58.0535 43.6212C57.7122 43.2798 57.1948 43.1092 56.5015 43.1092C55.8082 43.1092 55.3015 43.2745 54.9815 43.6052C54.6615 43.9358 54.5015 44.3678 54.5015 44.9012C54.5015 45.4558 54.6615 45.8985 54.9815 46.2292C55.3015 46.5598 55.8082 46.7252 56.5015 46.7252ZM70.3148 43.4132C69.3334 43.3492 68.4374 43.3012 67.6268 43.2692L67.6108 44.9652C67.6108 45.5412 67.7334 45.9945 67.9788 46.3252C68.2348 46.6452 68.6828 46.8052 69.3228 46.8052C69.5681 46.8052 69.8028 46.7838 70.0268 46.7412C69.9841 47.1358 69.9628 47.5358 69.9628 47.9412C69.9628 48.1332 69.9734 48.5705 69.9948 49.2532C69.5254 49.3385 69.1308 49.3918 68.8108 49.4132C68.4908 49.4345 68.0748 49.4452 67.5628 49.4452C66.3148 49.4452 65.4294 49.1465 64.9068 48.5492C64.3948 47.9412 64.1388 47.0985 64.1388 46.0212L64.1548 43.3172C63.6534 43.3385 63.1308 43.3705 62.5868 43.4132V40.5812C63.1414 40.5812 63.6108 40.4052 63.9948 40.0532C64.3788 39.7012 64.6081 39.2798 64.6828 38.7892H69.0348C68.4908 39.5358 67.8881 40.1332 67.2268 40.5812H70.3148V43.4132ZM81.7979 40.5492L81.4299 41.4772C80.4166 44.1758 79.3552 46.7785 78.2459 49.2852C77.6699 50.5652 76.8379 51.5892 75.7499 52.3572C74.6619 53.1358 73.2965 53.5092 71.6539 53.4772C71.4512 52.5918 71.2805 51.8985 71.1419 51.3972C71.0139 50.9065 70.8432 50.4105 70.6299 49.9092C71.2165 50.0478 71.7659 50.1172 72.2779 50.1172C73.1099 50.1172 73.7712 49.9412 74.2619 49.5892C73.8779 48.4478 73.4245 47.2212 72.9019 45.9092C72.3792 44.5972 71.6219 42.8105 70.6299 40.5492H74.4219C74.5499 41.0825 74.7259 41.7012 74.9499 42.4052C75.1739 43.1092 75.3979 43.7865 75.6219 44.4372C75.6859 44.6398 75.7872 44.9492 75.9259 45.3652C76.0752 45.7705 76.1925 46.1118 76.2779 46.3892L76.6939 45.1252C77.4939 42.8105 77.9685 41.2852 78.1179 40.5492H81.7979ZM89.4338 40.3892C90.1271 40.3892 90.7511 40.5865 91.3058 40.9812C91.8604 41.3758 92.2924 41.9145 92.6018 42.5972C92.9111 43.2692 93.0658 44.0105 93.0658 44.8212C93.0658 45.6212 92.9111 46.3785 92.6018 47.0932C92.2924 47.7972 91.8551 48.3678 91.2898 48.8052C90.7351 49.2318 90.1004 49.4452 89.3858 49.4452C88.5538 49.4452 87.8391 49.2745 87.2418 48.9332C86.6551 48.5812 86.2178 48.0425 85.9298 47.3172C85.9298 47.9252 85.9511 48.9012 85.9938 50.2452C86.0364 51.5465 86.0578 52.4638 86.0578 52.9972H82.4418C82.5058 51.0132 82.5378 48.9385 82.5378 46.7732C82.5378 44.6078 82.5058 42.5332 82.4418 40.5492H85.5138L85.9778 42.5492C86.2764 41.8025 86.7244 41.2585 87.3218 40.9172C87.9191 40.5652 88.6231 40.3892 89.4338 40.3892ZM87.7218 46.5652C88.2018 46.5652 88.6018 46.4158 88.9218 46.1172C89.2524 45.8078 89.4178 45.4078 89.4178 44.9172C89.4178 44.3732 89.2684 43.9305 88.9698 43.5892C88.6711 43.2478 88.2658 43.0772 87.7538 43.0772C87.1671 43.0772 86.7244 43.2212 86.4258 43.5092C86.1271 43.7865 85.9778 44.2558 85.9778 44.9172C85.9778 45.2905 86.0738 45.6052 86.2658 45.8612C86.4578 46.1065 86.6871 46.2878 86.9538 46.4052C87.2204 46.5118 87.4764 46.5652 87.7218 46.5652ZM102.656 45.2852H97.4398C97.5251 45.7545 97.7331 46.1385 98.0638 46.4372C98.4051 46.7252 98.8851 46.8692 99.5038 46.8692C99.9518 46.8692 100.373 46.7838 100.768 46.6132C101.162 46.4318 101.477 46.1812 101.712 45.8612C102.426 46.2132 103.376 46.5918 104.56 46.9972C104.229 47.7438 103.626 48.3412 102.752 48.7892C101.888 49.2265 100.757 49.4452 99.3598 49.4452C97.5464 49.4452 96.2024 49.0292 95.3278 48.1972C94.4638 47.3545 94.0318 46.2505 94.0318 44.8852C94.0318 43.5518 94.4638 42.4692 95.3278 41.6372C96.1918 40.8052 97.5358 40.3892 99.3598 40.3892C100.448 40.3892 101.392 40.5705 102.192 40.9332C102.992 41.2958 103.605 41.8025 104.032 42.4532C104.458 43.0932 104.672 43.8292 104.672 44.6612C104.672 44.9385 104.661 45.1465 104.64 45.2852H102.656ZM99.5838 42.8052C99.0504 42.8052 98.6131 42.9065 98.2718 43.1092C97.9304 43.3118 97.6904 43.5892 97.5518 43.9412H101.328C101.2 43.5998 100.992 43.3278 100.704 43.1252C100.416 42.9118 100.042 42.8052 99.5838 42.8052Z" fill="#FAF5EF"/>
<path d="M51.0399 59.9392L49.6304 60.4523C49.2565 60.5883 48.844 60.5703 48.4834 60.4022C48.1229 60.2341 47.8439 59.9296 47.7078 59.5558L45.1427 52.5082C44.8706 51.7606 44.3126 51.1516 43.5915 50.8154C42.8705 50.4792 42.0453 50.4431 41.2977 50.7152C40.55 50.9874 39.9411 51.5454 39.6048 52.2664C39.2686 52.9875 39.2326 53.8127 39.5047 54.5603L44.1219 67.2459L39.0974 63.9667C38.7074 63.7122 38.2635 63.5519 37.8008 63.4987C37.3381 63.4454 36.8694 63.5006 36.4318 63.6599L35.82 63.8826C35.4293 64.0247 35.0833 64.268 34.8174 64.5875C34.5514 64.9071 34.3751 65.2916 34.3063 65.7016C34.2376 66.1117 34.2789 66.5326 34.426 66.9215C34.5732 67.3103 34.8209 67.6531 35.1439 67.9149L40.1125 71.9439C40.5149 72.2702 40.9949 72.4867 41.5059 72.5724L56.3075 72.5724C57.1032 72.5724 57.8662 72.2563 58.4288 71.6937C58.9914 71.1311 59.3075 70.3681 59.3075 69.5724C59.3075 68.7768 58.5769 64.4923 57.0889 61.8469C57.0889 61.8469 56.6103 60.7941 55.6276 60.1395C54.6449 59.485 52.5352 59.395 51.0399 59.9392Z" fill="#FAF5EF"/>
<path fill-rule="evenodd" clip-rule="evenodd" d="M41.7252 51.8896C41.289 52.0484 40.9338 52.3739 40.7377 52.7945C40.5416 53.2151 40.5205 53.6964 40.6793 54.1326L45.2965 66.8181C45.4805 67.3237 45.3203 67.8903 44.8989 68.2248C44.4774 68.5593 43.8892 68.5865 43.4387 68.2924L38.4142 65.0133C38.1867 64.8648 37.9277 64.7713 37.6578 64.7403C37.3879 64.7092 37.1145 64.7414 36.8592 64.8343L36.2475 65.057C36.0647 65.1235 35.9026 65.2374 35.7782 65.3869C35.6537 65.5364 35.5712 65.7163 35.5391 65.9081C35.5069 66.0999 35.5262 66.2969 35.5951 66.4788C35.6639 66.6607 35.7798 66.8211 35.931 66.9436L40.8997 70.9728C41.1111 71.1441 41.3591 71.2636 41.6239 71.3221L56.3075 71.3221C56.7716 71.3221 57.2167 71.1378 57.5449 70.8096C57.8731 70.4814 58.0574 70.0363 58.0574 69.5722C58.0574 69.3347 57.9074 68.1884 57.5422 66.7012C57.1838 65.2415 56.6615 63.6366 55.9994 62.4595C55.9832 62.4308 55.9682 62.4014 55.9543 62.3714M55.9543 62.3714L55.9527 62.368L55.952 62.3663M55.9543 62.3714L55.9479 62.3584C55.9401 62.3428 55.9257 62.3147 55.9047 62.2767C55.8625 62.2003 55.7954 62.0872 55.704 61.9572C55.5155 61.689 55.2545 61.3927 54.9346 61.1797C54.7157 61.0339 54.2061 60.8703 53.4718 60.8385C52.7683 60.808 52.0348 60.9071 51.4674 61.1136L50.0578 61.6267C49.3725 61.8761 48.6161 61.8431 47.9551 61.5348C47.2941 61.2266 46.7826 60.6684 46.5332 59.9831L43.9681 52.9355C43.8093 52.4994 43.4839 52.1442 43.0632 51.9481C42.6426 51.7519 42.1613 51.7309 41.7252 51.8896M38.4719 51.7379C38.9483 50.7164 39.8109 49.9259 40.8701 49.5404C41.9293 49.1549 43.0982 49.2059 44.1198 49.6823C45.1413 50.1586 45.9318 51.0213 46.3173 52.0805L48.8824 59.128C48.9051 59.1903 48.9516 59.2411 49.0117 59.2691C49.0717 59.2971 49.1405 59.3001 49.2028 59.2774L50.6123 58.7644C51.5401 58.4267 52.6092 58.2987 53.5801 58.3408C54.5201 58.3816 55.5567 58.5903 56.3205 59.099C56.9833 59.5404 57.453 60.0979 57.7494 60.5197C57.9005 60.7348 58.0145 60.9258 58.0927 61.0672C58.1319 61.1382 58.1626 61.1975 58.1848 61.242C58.1901 61.2526 58.1949 61.2624 58.1993 61.2714C59.0142 62.7338 59.5945 64.5754 59.9701 66.105C60.3422 67.6203 60.5574 69.0141 60.5574 69.5722C60.5574 70.6994 60.1097 71.7803 59.3127 72.5774C58.5156 73.3744 57.4347 73.8221 56.3075 73.8221L41.5058 73.8221C41.4366 73.8221 41.3674 73.8164 41.2991 73.8049C40.5753 73.6836 39.8953 73.3769 39.3252 72.9146L34.3569 68.8858C33.8621 68.4847 33.4824 67.9593 33.2569 67.3637C33.0315 66.7679 32.9682 66.1229 33.0735 65.4947C33.1788 64.8665 33.449 64.2774 33.8565 63.7878C34.2639 63.2982 34.7939 62.9255 35.3925 62.7077L36.0042 62.4851C36.6242 62.2594 37.2882 62.1812 37.9437 62.2566C38.5991 62.3321 39.228 62.5591 39.7805 62.9197L41.6646 64.1493L38.33 54.9876C37.9445 53.9284 37.9956 52.7595 38.4719 51.7379Z" fill="#FD6041"/>
</svg>
