<svg width="100%" height="100%" viewBox="0 0 40 40" fill="none" xmlns="http://www.w3.org/2000/svg">
<path d="M31.6667 8.33333V31.6667H8.33333V8.33333H31.6667ZM31.6667 5H8.33333C6.5 5 5 6.5 5 8.33333V31.6667C5 33.5 6.5 35 8.33333 35H31.6667C33.5 35 35 33.5 35 31.6667V8.33333C35 6.5 33.5 5 31.6667 5ZM20 17.5C18.6667 17.5 17.5 18.6667 17.5 20C17.5 21.3333 18.6667 22.5 20 22.5C21.3333 22.5 22.5 21.3333 22.5 20C22.5 18.6667 21.3333 17.5 20 17.5ZM12.5 10C11.1667 10 10 11.1667 10 12.5C10 13.8333 11.1667 15 12.5 15C13.8333 15 15 13.8333 15 12.5C15 11.1667 13.8333 10 12.5 10ZM27.5 25C26.1667 25 25 26.1667 25 27.5C25 28.8333 26.1667 30 27.5 30C28.8333 30 30 28.8333 30 27.5C30 26.1667 28.8333 25 27.5 25Z" fill="black"/>
</svg>
