<svg width="100%" height="100%" viewBox="0 0 40 40" fill="none" xmlns="http://www.w3.org/2000/svg">
<path d="M8.33333 5H31.6667C32.5507 5 33.3986 5.35119 34.0237 5.97631C34.6488 6.60143 35 7.44928 35 8.33333V31.6667C35 32.5507 34.6488 33.3986 34.0237 34.0237C33.3986 34.6488 32.5507 35 31.6667 35H8.33333C7.44928 35 6.60143 34.6488 5.97631 34.0237C5.35119 33.3986 5 32.5507 5 31.6667V8.33333C5 7.44928 5.35119 6.60143 5.97631 5.97631C6.60143 5.35119 7.44928 5 8.33333 5ZM20 16.6667C19.1159 16.6667 18.2681 17.0179 17.643 17.643C17.0179 18.2681 16.6667 19.1159 16.6667 20C16.6667 20.8841 17.0179 21.7319 17.643 22.357C18.2681 22.9821 19.1159 23.3333 20 23.3333C20.8841 23.3333 21.7319 22.9821 22.357 22.357C22.9821 21.7319 23.3333 20.8841 23.3333 20C23.3333 19.1159 22.9821 18.2681 22.357 17.643C21.7319 17.0179 20.8841 16.6667 20 16.6667ZM11.6667 8.33333C10.7826 8.33333 9.93477 8.68452 9.30964 9.30964C8.68452 9.93477 8.33333 10.7826 8.33333 11.6667C8.33333 12.5507 8.68452 13.3986 9.30964 14.0237C9.93477 14.6488 10.7826 15 11.6667 15C12.5507 15 13.3986 14.6488 14.0237 14.0237C14.6488 13.3986 15 12.5507 15 11.6667C15 10.7826 14.6488 9.93477 14.0237 9.30964C13.3986 8.68452 12.5507 8.33333 11.6667 8.33333ZM28.3333 25C27.4493 25 26.6014 25.3512 25.9763 25.9763C25.3512 26.6014 25 27.4493 25 28.3333C25 29.2174 25.3512 30.0652 25.9763 30.6904C26.6014 31.3155 27.4493 31.6667 28.3333 31.6667C29.2174 31.6667 30.0652 31.3155 30.6904 30.6904C31.3155 30.0652 31.6667 29.2174 31.6667 28.3333C31.6667 27.4493 31.3155 26.6014 30.6904 25.9763C30.0652 25.3512 29.2174 25 28.3333 25Z" fill="black"/>
</svg>
