<svg width="104" height="80" viewBox="0 0 104 80" fill="none" xmlns="http://www.w3.org/2000/svg">
<path fill-rule="evenodd" clip-rule="evenodd" d="M63.1824 0C83.9501 0 104 13.2564 104 33.9258C104 53.6648 83.0154 64 63.1824 64C37.232 64 4 59.7534 4 33.9258C4 7.38036 36.5108 0 63.1824 0Z" fill="#FD6041"/>
<path d="M33.9708 18.352C33.9708 19.628 33.6555 20.706 33.0248 21.586C32.4088 22.466 31.3455 23.104 29.8348 23.5C30.0108 23.7347 30.1355 23.918 30.2088 24.05L33.7728 29H27.7888C27.1435 27.7973 26.1241 26.096 24.7308 23.896H21.4968V29H16.3048C16.4221 26.1547 16.4808 23.4927 16.4808 21.014C16.4808 18.5353 16.4221 15.8733 16.3048 13.028H21.4968V13.05H26.0068C28.9695 13.05 31.0375 13.5267 32.2108 14.48C33.3841 15.4333 33.9708 16.724 33.9708 18.352ZM21.4968 17.274V19.782H24.4668C25.7135 19.782 26.6521 19.7453 27.2828 19.672C27.9281 19.584 28.3755 19.452 28.6248 19.276C28.8741 19.1 28.9988 18.8433 28.9988 18.506C28.9988 18.1833 28.8815 17.934 28.6468 17.758C28.4121 17.582 27.9721 17.4573 27.3268 17.384C26.6815 17.3107 25.7281 17.274 24.4668 17.274H21.4968ZM40.9187 24.974C46.492 24.9447 50.5327 24.864 53.0407 24.732C52.938 25.3333 52.872 25.9567 52.8427 26.602C52.828 27.2327 52.8207 28.032 52.8207 29H35.7267C35.844 26.1547 35.9027 23.4927 35.9027 21.014C35.9027 18.5353 35.844 15.8733 35.7267 13.028H52.8207V17.01H40.9187V19.122C41.6227 19.1367 42.664 19.144 44.0427 19.144C46.3747 19.144 48.7873 19.1 51.2807 19.012V22.796C48.7873 22.708 46.3747 22.664 44.0427 22.664C42.664 22.664 41.6227 22.6713 40.9187 22.686V24.974ZM67.3763 29C67.0976 28.164 66.7236 27.1153 66.2543 25.854H59.2363L58.1363 29H52.6143L58.7743 13.028H66.8703L73.0743 29H67.3763ZM65.0003 22.422C64.4429 20.882 63.8709 19.342 63.2843 17.802L62.7563 16.372C62.2429 17.7067 61.4876 19.7233 60.4903 22.422H65.0003ZM80.8585 12.786C83.6158 12.786 85.7938 13.1233 87.3925 13.798C88.9911 14.458 90.1058 15.382 90.7365 16.57C91.3818 17.7433 91.7045 19.188 91.7045 20.904C91.7045 22.532 91.3378 23.9547 90.6045 25.172C89.8711 26.3893 88.7711 27.3353 87.3045 28.01C85.8378 28.67 84.0338 29 81.8925 29C80.5871 29 79.2598 29 77.9105 29C76.5611 29 75.1971 28.9927 73.8185 28.978C73.9358 26.0887 73.9945 23.3973 73.9945 20.904C73.9945 18.3813 73.9358 15.7487 73.8185 13.006C75.5638 12.8593 77.9105 12.786 80.8585 12.786ZM82.5085 24.622C83.8725 24.622 84.7818 24.292 85.2365 23.632C85.6911 22.972 85.9185 22.0627 85.9185 20.904C85.9185 19.7893 85.6765 18.8873 85.1925 18.198C84.7231 17.5087 83.8285 17.164 82.5085 17.164C81.0858 17.164 80.0225 17.208 79.3185 17.296V24.622H82.5085ZM33.7166 35.028L35.4326 51H29.7346L29.3826 39.604L27.1826 51H21.4186L19.1746 39.692L18.8446 51H13.1466L14.8626 35.028H22.3426L24.2566 45.434L25.9286 35.028H33.7166ZM46.5479 51.22C43.1893 51.22 40.7179 50.494 39.1339 49.042C37.5499 47.5753 36.7579 45.522 36.7579 42.882C36.7579 40.2713 37.5426 38.2327 39.1119 36.766C40.6959 35.2993 43.1746 34.566 46.5479 34.566C49.9359 34.566 52.4146 35.2993 53.9839 36.766C55.5679 38.2327 56.3599 40.2713 56.3599 42.882C56.3599 45.5367 55.5753 47.59 54.0059 49.042C52.4366 50.494 49.9506 51.22 46.5479 51.22ZM46.5479 46.732C48.1759 46.732 49.3493 46.424 50.0679 45.808C50.7866 45.1773 51.1459 44.202 51.1459 42.882C51.1459 41.5913 50.7866 40.6307 50.0679 40C49.3493 39.3693 48.1759 39.054 46.5479 39.054C44.9346 39.054 43.7686 39.3693 43.0499 40C42.3313 40.6307 41.9719 41.5913 41.9719 42.882C41.9719 44.1873 42.3313 45.1553 43.0499 45.786C43.7686 46.4167 44.9346 46.732 46.5479 46.732ZM75.7794 40.352C75.7794 41.628 75.4641 42.706 74.8334 43.586C74.2174 44.466 73.1541 45.104 71.6434 45.5C71.8194 45.7347 71.9441 45.918 72.0174 46.05L75.5814 51H69.5974C68.9521 49.7973 67.9327 48.096 66.5394 45.896H63.3054V51H58.1134C58.2307 48.1547 58.2894 45.4927 58.2894 43.014C58.2894 40.5353 58.2307 37.8733 58.1134 35.028H63.3054V35.05H67.8154C70.7781 35.05 72.8461 35.5267 74.0194 36.48C75.1927 37.4333 75.7794 38.724 75.7794 40.352ZM63.3054 39.274V41.782H66.2754C67.5221 41.782 68.4607 41.7453 69.0914 41.672C69.7367 41.584 70.1841 41.452 70.4334 41.276C70.6827 41.1 70.8074 40.8433 70.8074 40.506C70.8074 40.1833 70.6901 39.934 70.4554 39.758C70.2207 39.582 69.7807 39.4573 69.1354 39.384C68.4901 39.3107 67.5367 39.274 66.2754 39.274H63.3054ZM82.7273 46.974C88.3006 46.9447 92.3413 46.864 94.8493 46.732C94.7466 47.3333 94.6806 47.9567 94.6513 48.602C94.6366 49.2327 94.6293 50.032 94.6293 51H77.5353C77.6526 48.1547 77.7113 45.4927 77.7113 43.014C77.7113 40.5353 77.6526 37.8733 77.5353 35.028H94.6293V39.01H82.7273V41.122C83.4313 41.1367 84.4726 41.144 85.8513 41.144C88.1833 41.144 90.5959 41.1 93.0893 41.012V44.796C90.5959 44.708 88.1833 44.664 85.8513 44.664C84.4726 44.664 83.4313 44.6713 82.7273 44.686V46.974Z" fill="#FAF5EF"/>
<path d="M62.6208 62.6541L61.2113 63.1671C60.8375 63.3032 60.4249 63.2852 60.0644 63.117C59.7038 62.9489 59.4248 62.6444 59.2888 62.2706L56.7237 55.2231C56.4515 54.4754 55.8936 53.8665 55.1725 53.5302C54.4514 53.194 53.6263 53.158 52.8786 53.4301C52.131 53.7022 51.522 54.2602 51.1858 54.9813C50.8495 55.7024 50.8135 56.5275 51.0856 57.2751L55.7028 69.9607L50.6783 66.6815C50.2883 66.427 49.8444 66.2668 49.3817 66.2135C48.919 66.1603 48.4503 66.2155 48.0127 66.3748L47.401 66.5974C47.0102 66.7395 46.6642 66.9828 46.3983 67.3024C46.1324 67.622 45.956 68.0064 45.8873 68.4165C45.8185 68.8265 45.8598 69.2475 46.007 69.6363C46.1541 70.0252 46.4019 70.368 46.7249 70.6298L51.6934 74.6588C52.0958 74.985 52.5759 75.2015 53.0868 75.2872L67.8885 75.2872C68.6841 75.2872 69.4471 74.9711 70.0097 74.4085C70.5723 73.8459 70.8884 73.0829 70.8884 72.2873C70.8884 71.4916 70.1578 67.2072 68.6698 64.5618C68.6698 64.5618 68.1912 63.5089 67.2085 62.8544C66.2258 62.1999 64.1161 62.1098 62.6208 62.6541Z" fill="#FAF5EF"/>
<path fill-rule="evenodd" clip-rule="evenodd" d="M53.3062 54.6045C52.8701 54.7632 52.5149 55.0887 52.3188 55.5093C52.1226 55.93 52.1016 56.4113 52.2603 56.8474L56.8775 69.533C57.0615 70.0386 56.9014 70.6052 56.4799 70.9396C56.0585 71.2741 55.4703 71.3014 55.0197 71.0073L49.9952 67.7281C49.7677 67.5796 49.5088 67.4862 49.2389 67.4551C48.969 67.424 48.6956 67.4562 48.4403 67.5492L47.8286 67.7718C47.6458 67.8383 47.4836 67.9522 47.3592 68.1017C47.2348 68.2512 47.1523 68.4311 47.1201 68.6229C47.088 68.8148 47.1073 69.0117 47.1761 69.1936C47.245 69.3756 47.3609 69.5359 47.512 69.6584L52.4808 73.6876C52.6921 73.859 52.9402 73.9784 53.205 74.037L67.8886 74.037C68.3527 74.037 68.7978 73.8526 69.1259 73.5244C69.4541 73.1963 69.6385 72.7512 69.6385 72.287C69.6385 72.0495 69.4885 70.9033 69.1233 69.416C68.7648 67.9563 68.2425 66.3514 67.5804 65.1744C67.5642 65.1456 67.5492 65.1162 67.5354 65.0863M67.5354 65.0863L67.5338 65.0829L67.533 65.0812M67.5354 65.0863L67.529 65.0732C67.5212 65.0576 67.5068 65.0295 67.4858 64.9916C67.4435 64.9151 67.3764 64.802 67.2851 64.672C67.0965 64.4038 66.8356 64.1076 66.5157 63.8945C66.2967 63.7487 65.7871 63.5851 65.0528 63.5533C64.3493 63.5228 63.6159 63.6219 63.0484 63.8285L61.6389 64.3415C60.9535 64.5909 60.1972 64.5579 59.5362 64.2497C58.8752 63.9415 58.3637 63.3833 58.1142 62.6979L55.5491 55.6504C55.3904 55.2143 55.0649 54.859 54.6443 54.6629C54.2237 54.4668 53.7423 54.4457 53.3062 54.6045M50.053 54.4528C50.5293 53.4312 51.392 52.6408 52.4512 52.2553C53.5103 51.8697 54.6793 51.9208 55.7008 52.3971C56.7224 52.8735 57.5129 53.7361 57.8984 54.7953L60.4635 61.8429C60.4861 61.9052 60.5326 61.9559 60.5927 61.9839C60.6528 62.0119 60.7216 62.0149 60.7839 61.9923L62.1934 61.4792C63.1212 61.1415 64.1902 61.0136 65.1611 61.0556C66.1012 61.0964 67.1378 61.3051 67.9015 61.8138C68.5644 62.2553 69.034 62.8128 69.3305 63.2346C69.4816 63.4496 69.5956 63.6407 69.6737 63.7821C69.713 63.853 69.7436 63.9123 69.7659 63.9569C69.7712 63.9675 69.776 63.9773 69.7804 63.9862C70.5953 65.4486 71.1755 67.2902 71.5511 68.8199C71.9232 70.3351 72.1385 71.7289 72.1385 72.287C72.1385 73.4142 71.6907 74.4952 70.8937 75.2922C70.0967 76.0892 69.0157 76.537 67.8886 76.537L53.0869 76.537C53.0176 76.537 52.9485 76.5312 52.8802 76.5198C52.1564 76.3984 51.4763 76.0917 50.9063 75.6295L45.9379 71.6006C45.4432 71.1996 45.0634 70.6742 44.838 70.0785C44.6125 69.4827 44.5492 68.8378 44.6545 68.2095C44.7599 67.5813 45.0301 66.9923 45.4375 66.5026C45.845 66.013 46.375 65.6403 46.9735 65.4226L47.5853 65.1999C48.2052 64.9743 48.8693 64.8961 49.5247 64.9715C50.1802 65.0469 50.8091 65.2739 51.3616 65.6345L53.2457 66.8642L49.9111 57.7024C49.5256 56.6433 49.5766 55.4743 50.053 54.4528Z" fill="#FD6041"/>
<path d="M14.4 0C14.8243 0 15.2313 0.168571 15.5314 0.468629C15.8314 0.768687 16 1.17565 16 1.6V6.93333C16 7.35768 15.8314 7.76465 15.5314 8.0647C15.2313 8.36476 14.8243 8.53333 14.4 8.53333C13.9757 8.53333 13.5687 8.36476 13.2686 8.0647C12.9686 7.76465 12.8 7.35768 12.8 6.93333V1.6C12.8 1.17565 12.9686 0.768687 13.2686 0.468629C13.5687 0.168571 13.9757 0 14.4 0ZM4.20267 4.20267C4.50267 3.90304 4.90933 3.73474 5.33333 3.73474C5.75733 3.73474 6.164 3.90304 6.464 4.20267L10.1973 7.936C10.3545 8.08248 10.4806 8.25912 10.5681 8.45538C10.6555 8.65165 10.7025 8.86352 10.7063 9.07835C10.7101 9.29318 10.6706 9.50658 10.5901 9.70581C10.5097 9.90504 10.3899 10.086 10.2379 10.2379C10.086 10.3899 9.90504 10.5097 9.70581 10.5901C9.50658 10.6706 9.29318 10.7101 9.07835 10.7063C8.86352 10.7025 8.65165 10.6555 8.45538 10.5681C8.25912 10.4806 8.08248 10.3545 7.936 10.1973L4.20267 6.464C3.90304 6.164 3.73474 5.75733 3.73474 5.33333C3.73474 4.90933 3.90304 4.50267 4.20267 4.20267ZM0 14.4C0 13.9757 0.168571 13.5687 0.468629 13.2686C0.768687 12.9686 1.17565 12.8 1.6 12.8H6.93333C7.35768 12.8 7.76465 12.9686 8.0647 13.2686C8.36476 13.5687 8.53333 13.9757 8.53333 14.4C8.53333 14.8243 8.36476 15.2313 8.0647 15.5314C7.76465 15.8314 7.35768 16 6.93333 16H1.6C1.17565 16 0.768687 15.8314 0.468629 15.5314C0.168571 15.2313 0 14.8243 0 14.4Z" fill="#FD6041"/>
</svg>
