<svg width="100" height="81" viewBox="0 0 100 81" fill="none" xmlns="http://www.w3.org/2000/svg">
<path fillRule="evenodd" clipRule="evenodd" d="M100 34.1396C100 13.4703 79.9501 0.213867 59.1824 0.213867C32.5108 0.213867 0 7.59422 0 34.1396C0 58.4993 29.5617 63.6614 54.6944 64.1695C57.4338 64.2249 59.9803 65.6164 61.4465 67.931L68.5165 79.0913C69.5657 80.7474 72.1238 80.062 72.2043 78.1031L72.5962 68.5716C72.7423 65.0157 75.2483 62.0496 78.5815 60.8025C90.6746 56.2778 100 47.2982 100 34.1396Z" fill="#FD6041"/>
<path d="M29.9708 18.5659C29.9708 19.8419 29.6555 20.9199 29.0248 21.7999C28.4088 22.6799 27.3455 23.3179 25.8348 23.7139C26.0108 23.9485 26.1355 24.1319 26.2088 24.2639L29.7728 29.2139H23.7888C23.1435 28.0112 22.1241 26.3099 20.7308 24.1099H17.4968V29.2139H12.3048C12.4221 26.3685 12.4808 23.7065 12.4808 21.2279C12.4808 18.7492 12.4221 16.0872 12.3048 13.2419H17.4968V13.2639H22.0068C24.9695 13.2639 27.0375 13.7405 28.2108 14.6939C29.3841 15.6472 29.9708 16.9379 29.9708 18.5659ZM17.4968 17.4879V19.9959H20.4668C21.7135 19.9959 22.6521 19.9592 23.2828 19.8859C23.9281 19.7979 24.3755 19.6659 24.6248 19.4899C24.8741 19.3139 24.9988 19.0572 24.9988 18.7199C24.9988 18.3972 24.8815 18.1479 24.6468 17.9719C24.4121 17.7959 23.9721 17.6712 23.3268 17.5979C22.6815 17.5245 21.7281 17.4879 20.4668 17.4879H17.4968ZM36.9187 25.1879C42.492 25.1585 46.5327 25.0779 49.0407 24.9459C48.938 25.5472 48.872 26.1705 48.8427 26.8159C48.828 27.4465 48.8207 28.2459 48.8207 29.2139H31.7267C31.844 26.3685 31.9027 23.7065 31.9027 21.2279C31.9027 18.7492 31.844 16.0872 31.7267 13.2419H48.8207V17.2239H36.9187V19.3359C37.6227 19.3505 38.664 19.3579 40.0427 19.3579C42.3747 19.3579 44.7873 19.3139 47.2807 19.2259V23.0099C44.7873 22.9219 42.3747 22.8779 40.0427 22.8779C38.664 22.8779 37.6227 22.8852 36.9187 22.8999V25.1879ZM63.3763 29.2139C63.0976 28.3779 62.7236 27.3292 62.2543 26.0679H55.2363L54.1363 29.2139H48.6143L54.7743 13.2419H62.8703L69.0743 29.2139H63.3763ZM61.0003 22.6359C60.4429 21.0959 59.8709 19.5559 59.2843 18.0159L58.7563 16.5859C58.2429 17.9205 57.4876 19.9372 56.4903 22.6359H61.0003ZM76.8585 12.9999C79.6158 12.9999 81.7938 13.3372 83.3925 14.0119C84.9911 14.6719 86.1058 15.5959 86.7365 16.7839C87.3818 17.9572 87.7045 19.4019 87.7045 21.1179C87.7045 22.7459 87.3378 24.1685 86.6045 25.3859C85.8711 26.6032 84.7711 27.5492 83.3045 28.2239C81.8378 28.8839 80.0338 29.2139 77.8925 29.2139C76.5871 29.2139 75.2598 29.2139 73.9105 29.2139C72.5611 29.2139 71.1971 29.2065 69.8185 29.1919C69.9358 26.3025 69.9945 23.6112 69.9945 21.1179C69.9945 18.5952 69.9358 15.9625 69.8185 13.2199C71.5638 13.0732 73.9105 12.9999 76.8585 12.9999ZM78.5085 24.8359C79.8725 24.8359 80.7818 24.5059 81.2365 23.8459C81.6911 23.1859 81.9185 22.2765 81.9185 21.1179C81.9185 20.0032 81.6765 19.1012 81.1925 18.4119C80.7231 17.7225 79.8285 17.3779 78.5085 17.3779C77.0858 17.3779 76.0225 17.4219 75.3185 17.5099V24.8359H78.5085ZM29.7166 35.2419L31.4326 51.2139H25.7346L25.3826 39.8179L23.1826 51.2139H17.4186L15.1746 39.9059L14.8446 51.2139H9.1466L10.8626 35.2419H18.3426L20.2566 45.6479L21.9286 35.2419H29.7166ZM42.5479 51.4339C39.1893 51.4339 36.7179 50.7079 35.1339 49.2559C33.5499 47.7892 32.7579 45.7359 32.7579 43.0959C32.7579 40.4852 33.5426 38.4465 35.1119 36.9799C36.6959 35.5132 39.1746 34.7799 42.5479 34.7799C45.9359 34.7799 48.4146 35.5132 49.9839 36.9799C51.5679 38.4465 52.3599 40.4852 52.3599 43.0959C52.3599 45.7505 51.5753 47.8039 50.0059 49.2559C48.4366 50.7079 45.9506 51.4339 42.5479 51.4339ZM42.5479 46.9459C44.1759 46.9459 45.3493 46.6379 46.0679 46.0219C46.7866 45.3912 47.1459 44.4159 47.1459 43.0959C47.1459 41.8052 46.7866 40.8445 46.0679 40.2139C45.3493 39.5832 44.1759 39.2679 42.5479 39.2679C40.9346 39.2679 39.7686 39.5832 39.0499 40.2139C38.3313 40.8445 37.9719 41.8052 37.9719 43.0959C37.9719 44.4012 38.3313 45.3692 39.0499 45.9999C39.7686 46.6305 40.9346 46.9459 42.5479 46.9459ZM71.7794 40.5659C71.7794 41.8419 71.4641 42.9199 70.8334 43.7999C70.2174 44.6799 69.1541 45.3179 67.6434 45.7139C67.8194 45.9485 67.9441 46.1319 68.0174 46.2639L71.5814 51.2139H65.5974C64.9521 50.0112 63.9327 48.3099 62.5394 46.1099H59.3054V51.2139H54.1134C54.2307 48.3685 54.2894 45.7065 54.2894 43.2279C54.2894 40.7492 54.2307 38.0872 54.1134 35.2419H59.3054V35.2639H63.8154C66.7781 35.2639 68.8461 35.7405 70.0194 36.6939C71.1927 37.6472 71.7794 38.9379 71.7794 40.5659ZM59.3054 39.4879V41.9959H62.2754C63.5221 41.9959 64.4607 41.9592 65.0914 41.8859C65.7367 41.7979 66.1841 41.6659 66.4334 41.4899C66.6827 41.3139 66.8074 41.0572 66.8074 40.7199C66.8074 40.3972 66.6901 40.1479 66.4554 39.9719C66.2207 39.7959 65.7807 39.6712 65.1354 39.5979C64.4901 39.5245 63.5367 39.4879 62.2754 39.4879H59.3054ZM78.7273 47.1879C84.3006 47.1585 88.3413 47.0779 90.8493 46.9459C90.7466 47.5472 90.6806 48.1705 90.6513 48.8159C90.6366 49.4465 90.6293 50.2459 90.6293 51.2139H73.5353C73.6526 48.3685 73.7113 45.7065 73.7113 43.2279C73.7113 40.7492 73.6526 38.0872 73.5353 35.2419H90.6293V39.2239H78.7273V41.3359C79.4313 41.3505 80.4726 41.3579 81.8513 41.3579C84.1833 41.3579 86.5959 41.3139 89.0893 41.2259V45.0099C86.5959 44.9219 84.1833 44.8779 81.8513 44.8779C80.4726 44.8779 79.4313 44.8852 78.7273 44.8999V47.1879Z" fill="#FAF5EF"/>
</svg>
