<svg width="93" height="70" viewBox="0 0 93 70" fill="none" xmlns="http://www.w3.org/2000/svg">
<path fill-rule="evenodd" clip-rule="evenodd" d="M25.6866 1.14648C24.6374 -0.509671 22.0793 0.175776 21.9988 2.13463L21.7094 9.1731C21.6424 10.8049 20.5842 12.2203 19.0673 12.8255C9.79984 16.5231 2.46857 22.0289 0.580983 32.9204C-2.63651 51.4856 15.2626 62.4386 32.6373 67.8978C58.1294 75.9074 95.6553 60.3281 91.9481 32.9204C88.481 7.28791 56.7383 2.02106 32.6373 8.55155V8.55155C31.4924 8.86178 30.2772 8.39289 29.6424 7.39085L25.6866 1.14648Z" fill="#FD6041"/>
<path d="M10.1773 31.029C10.4493 30.621 10.6733 30.241 10.8493 29.889C11.0333 29.537 11.2093 29.129 11.3773 28.665C11.9453 28.993 12.6053 29.249 13.3573 29.433C14.1093 29.617 14.8093 29.709 15.4573 29.709C16.1213 29.709 16.5893 29.653 16.8613 29.541C17.1333 29.421 17.2693 29.293 17.2693 29.157C17.2693 28.669 16.5253 28.425 15.0373 28.425C13.4053 28.425 12.2213 28.257 11.4853 27.921C10.7493 27.577 10.3813 27.025 10.3813 26.265C10.3813 25.185 10.8293 24.389 11.7253 23.877C12.6213 23.365 13.7853 23.109 15.2173 23.109C16.0493 23.109 16.9013 23.217 17.7733 23.433C18.6533 23.641 19.4453 23.929 20.1493 24.297C19.9173 24.825 19.6733 25.469 19.4173 26.229C19.3693 26.389 19.3293 26.509 19.2973 26.589C18.8893 26.261 18.2733 25.989 17.4493 25.773C16.6253 25.549 15.8973 25.437 15.2653 25.437C14.5053 25.437 13.9933 25.489 13.7293 25.593C13.4653 25.689 13.3333 25.833 13.3333 26.025C13.3333 26.217 13.5133 26.373 13.8733 26.493C14.2413 26.605 14.7693 26.661 15.4573 26.661C17.1533 26.661 18.3853 26.857 19.1533 27.249C19.9213 27.633 20.3053 28.225 20.3053 29.025C20.3053 30.145 19.8973 30.953 19.0813 31.449C18.2653 31.937 17.0293 32.181 15.3733 32.181C14.4853 32.181 13.5813 32.085 12.6613 31.893C11.7413 31.693 10.9133 31.405 10.1773 31.029ZM25.1272 32.181C23.7592 32.181 22.7512 31.869 22.1032 31.245C21.4632 30.613 21.1432 29.785 21.1432 28.761C21.1432 27.761 21.4632 26.949 22.1032 26.325C22.7512 25.701 23.7592 25.389 25.1272 25.389C26.0472 25.389 26.8152 25.541 27.4312 25.845C28.0552 26.141 28.5152 26.545 28.8112 27.057C29.1072 27.561 29.2552 28.129 29.2552 28.761C29.2552 29.793 28.9112 30.621 28.2232 31.245C27.5432 31.869 26.5112 32.181 25.1272 32.181ZM25.1752 30.141C25.6952 30.141 26.0832 30.017 26.3392 29.769C26.5952 29.521 26.7232 29.189 26.7232 28.773C26.7232 28.381 26.5952 28.061 26.3392 27.813C26.0832 27.557 25.6952 27.429 25.1752 27.429C24.6552 27.429 24.2752 27.553 24.0352 27.801C23.7952 28.049 23.6752 28.373 23.6752 28.773C23.6752 29.189 23.7952 29.521 24.0352 29.769C24.2752 30.017 24.6552 30.141 25.1752 30.141ZM32.8831 27.285C33.2191 26.077 34.0551 25.473 35.3911 25.473C35.6231 25.473 35.8471 25.489 36.0631 25.521L35.6791 28.209C35.1031 27.993 34.6311 27.885 34.2631 27.885C33.8071 27.885 33.4711 28.021 33.2551 28.293C33.0391 28.565 32.9311 28.929 32.9311 29.385V29.373L32.9191 30.165C32.9191 30.733 32.9351 31.365 32.9671 32.061H30.0991C30.1631 30.909 30.1951 29.821 30.1951 28.797C30.1951 27.773 30.1631 26.677 30.0991 25.509C30.6271 25.533 31.0311 25.545 31.3111 25.545C31.6071 25.545 32.0111 25.533 32.5231 25.509L32.8831 27.285ZM42.4609 27.657C41.7249 27.609 41.0529 27.573 40.4449 27.549L40.4329 28.821C40.4329 29.253 40.5249 29.593 40.7089 29.841C40.9009 30.081 41.2369 30.201 41.7169 30.201C41.9009 30.201 42.0769 30.185 42.2449 30.153C42.2129 30.449 42.1969 30.749 42.1969 31.053C42.1969 31.197 42.2049 31.525 42.2209 32.037C41.8689 32.101 41.5729 32.141 41.3329 32.157C41.0929 32.173 40.7809 32.181 40.3969 32.181C39.4609 32.181 38.7969 31.957 38.4049 31.509C38.0209 31.053 37.8289 30.421 37.8289 29.613L37.8409 27.585C37.4649 27.601 37.0729 27.625 36.6649 27.657V25.533C37.0809 25.533 37.4329 25.401 37.7209 25.137C38.0089 24.873 38.1809 24.557 38.2369 24.189H41.5009C41.0929 24.749 40.6409 25.197 40.1449 25.533H42.4609V27.657ZM49.5253 29.061H45.6133C45.6773 29.413 45.8333 29.701 46.0813 29.925C46.3373 30.141 46.6973 30.249 47.1613 30.249C47.4973 30.249 47.8133 30.185 48.1093 30.057C48.4053 29.921 48.6413 29.733 48.8173 29.493C49.3533 29.757 50.0653 30.041 50.9533 30.345C50.7053 30.905 50.2533 31.353 49.5973 31.689C48.9493 32.017 48.1013 32.181 47.0533 32.181C45.6933 32.181 44.6853 31.869 44.0293 31.245C43.3813 30.613 43.0573 29.785 43.0573 28.761C43.0573 27.761 43.3813 26.949 44.0293 26.325C44.6773 25.701 45.6853 25.389 47.0533 25.389C47.8693 25.389 48.5773 25.525 49.1773 25.797C49.7773 26.069 50.2373 26.449 50.5573 26.937C50.8773 27.417 51.0373 27.969 51.0373 28.593C51.0373 28.801 51.0293 28.957 51.0133 29.061H49.5253ZM47.2213 27.201C46.8213 27.201 46.4933 27.277 46.2373 27.429C45.9813 27.581 45.8013 27.789 45.6973 28.053H48.5293C48.4333 27.797 48.2773 27.593 48.0613 27.441C47.8453 27.281 47.5653 27.201 47.2213 27.201ZM59.7206 22.725C59.6726 24.213 59.6486 25.769 59.6486 27.393C59.6486 29.001 59.6726 30.557 59.7206 32.061H57.0086L57.0446 30.621C56.8126 31.157 56.4766 31.553 56.0366 31.809C55.5966 32.057 55.0766 32.181 54.4766 32.181C53.9566 32.181 53.4886 32.033 53.0726 31.737C52.6566 31.441 52.3326 31.041 52.1006 30.537C51.8686 30.025 51.7526 29.465 51.7526 28.857C51.7526 28.257 51.8686 27.693 52.1006 27.165C52.3326 26.629 52.6566 26.201 53.0726 25.881C53.4966 25.553 53.9766 25.389 54.5126 25.389C55.1366 25.389 55.6686 25.521 56.1086 25.785C56.5566 26.041 56.8886 26.441 57.1046 26.985C57.1046 26.529 57.0886 25.797 57.0566 24.789C57.0246 23.813 57.0086 23.125 57.0086 22.725H59.7206ZM55.7366 30.165C56.1286 30.165 56.4486 30.057 56.6966 29.841C56.9446 29.617 57.0686 29.265 57.0686 28.785C57.0686 28.361 56.9446 28.049 56.6966 27.849C56.4486 27.649 56.1366 27.549 55.7606 27.549C55.4006 27.549 55.0966 27.665 54.8486 27.897C54.6086 28.121 54.4886 28.417 54.4886 28.785C54.4886 29.193 54.6006 29.525 54.8246 29.781C55.0486 30.037 55.3526 30.165 55.7366 30.165ZM70.1194 27.729C71.9434 27.729 72.8554 28.309 72.8554 29.469C72.8554 30.013 72.7314 30.477 72.4834 30.861C72.2354 31.237 71.7914 31.533 71.1514 31.749C70.5114 31.957 69.6234 32.061 68.4874 32.061H63.0874C63.1514 30.509 63.1834 29.057 63.1834 27.705C63.1834 26.353 63.1514 24.901 63.0874 23.349H65.9074V23.361H68.4634C69.4554 23.361 70.2354 23.445 70.8034 23.613C71.3794 23.773 71.7834 24.009 72.0154 24.321C72.2554 24.633 72.3754 25.029 72.3754 25.509C72.3754 25.997 72.2034 26.433 71.8594 26.817C71.5234 27.193 70.9434 27.497 70.1194 27.729ZM65.9074 25.545V26.661H68.2114C68.7074 26.661 69.0514 26.617 69.2434 26.529C69.4434 26.441 69.5434 26.281 69.5434 26.049C69.5434 25.865 69.4394 25.737 69.2314 25.665C69.0314 25.585 68.6914 25.545 68.2114 25.545H65.9074ZM68.2114 29.865C68.6274 29.865 68.9434 29.849 69.1594 29.817C69.3834 29.777 69.5434 29.713 69.6394 29.625C69.7354 29.529 69.7834 29.401 69.7834 29.241C69.7834 29.033 69.6674 28.885 69.4354 28.797C69.2114 28.701 68.8034 28.653 68.2114 28.653H65.9074V29.865H68.2114ZM81.7061 25.509L81.4301 26.205C80.6701 28.229 79.8741 30.181 79.0421 32.061C78.6101 33.021 77.9861 33.789 77.1701 34.365C76.3541 34.949 75.3301 35.229 74.0981 35.205C73.9461 34.541 73.8181 34.021 73.7141 33.645C73.6181 33.277 73.4901 32.905 73.3301 32.529C73.7701 32.633 74.1821 32.685 74.5661 32.685C75.1901 32.685 75.6861 32.553 76.0541 32.289C75.7661 31.433 75.4261 30.513 75.0341 29.529C74.6421 28.545 74.0741 27.205 73.3301 25.509H76.1741C76.2701 25.909 76.4021 26.373 76.5701 26.901C76.7381 27.429 76.9061 27.937 77.0741 28.425C77.1221 28.577 77.1981 28.809 77.3021 29.121C77.4141 29.425 77.5021 29.681 77.5661 29.889L77.8781 28.941C78.4781 27.205 78.8341 26.061 78.9461 25.509H81.7061Z" fill="#FAF5EF"/>
<path d="M32.4513 20.131C31.3966 20.131 30.6196 19.907 30.1203 19.459C29.621 19.011 29.3713 18.3717 29.3713 17.541C29.3713 16.7057 29.621 16.0454 30.1203 15.56C30.6196 15.0747 31.3966 14.832 32.4513 14.832C33.926 14.832 34.913 15.3384 35.4123 16.351C34.9923 16.4957 34.5 16.7127 33.9353 17.002C33.8 16.7407 33.5853 16.547 33.2913 16.421C33.002 16.295 32.7056 16.232 32.4023 16.232C31.9543 16.232 31.6206 16.351 31.4013 16.589C31.182 16.8224 31.0723 17.1117 31.0723 17.457C31.0723 17.8304 31.189 18.136 31.4223 18.374C31.6603 18.6074 32.022 18.724 32.5073 18.724C32.8946 18.724 33.2026 18.661 33.4313 18.535C33.66 18.4044 33.828 18.199 33.9353 17.919C34.318 18.1244 34.808 18.3554 35.4053 18.612C35.172 19.1767 34.7823 19.571 34.2363 19.795C33.6903 20.019 33.0953 20.131 32.4513 20.131ZM40.3918 20.061C40.3032 19.795 40.1842 19.4614 40.0348 19.06H37.8018L37.4518 20.061H35.6948L37.6548 14.979H40.2308L42.2048 20.061H40.3918ZM39.6358 17.968C39.4585 17.478 39.2765 16.988 39.0898 16.498L38.9218 16.043C38.7585 16.4677 38.5182 17.1094 38.2008 17.968H39.6358ZM42.2981 19.459C42.4567 19.221 42.5874 18.9994 42.6901 18.794C42.7974 18.5887 42.9001 18.3507 42.9981 18.08C43.3294 18.2714 43.7144 18.4207 44.1531 18.528C44.5917 18.6354 45.0001 18.689 45.3781 18.689C45.7654 18.689 46.0384 18.6564 46.1971 18.591C46.3557 18.521 46.4351 18.4464 46.4351 18.367C46.4351 18.0824 46.0011 17.94 45.1331 17.94C44.1811 17.94 43.4904 17.842 43.0611 17.646C42.6317 17.4454 42.4171 17.1234 42.4171 16.68C42.4171 16.05 42.6784 15.5857 43.2011 15.287C43.7237 14.9884 44.4027 14.839 45.2381 14.839C45.7234 14.839 46.2204 14.902 46.7291 15.028C47.2424 15.1494 47.7044 15.3174 48.1151 15.532C47.9797 15.84 47.8374 16.2157 47.6881 16.659C47.6601 16.7524 47.6367 16.8224 47.6181 16.869C47.3801 16.6777 47.0207 16.519 46.5401 16.393C46.0594 16.2624 45.6347 16.197 45.2661 16.197C44.8227 16.197 44.5241 16.2274 44.3701 16.288C44.2161 16.344 44.1391 16.428 44.1391 16.54C44.1391 16.652 44.2441 16.743 44.4541 16.813C44.6687 16.8784 44.9767 16.911 45.3781 16.911C46.3674 16.911 47.0861 17.0254 47.5341 17.254C47.9821 17.478 48.2061 17.8234 48.2061 18.29C48.2061 18.9434 47.9681 19.4147 47.4921 19.704C47.0161 19.9887 46.2951 20.131 45.3291 20.131C44.8111 20.131 44.2837 20.075 43.7471 19.963C43.2104 19.8464 42.7274 19.6784 42.2981 19.459ZM50.4169 18.78C52.1902 18.7707 53.4759 18.745 54.2739 18.703C54.2412 18.8944 54.2202 19.0927 54.2109 19.298C54.2062 19.4987 54.2039 19.753 54.2039 20.061H48.7649C48.8022 19.1557 48.8209 18.3087 48.8209 17.52C48.8209 16.7314 48.8022 15.8844 48.7649 14.979H54.2039V16.246H50.4169V16.918C50.6409 16.9227 50.9722 16.925 51.4109 16.925C52.1529 16.925 52.9205 16.911 53.7139 16.883V18.087C52.9205 18.059 52.1529 18.045 51.4109 18.045C50.9722 18.045 50.6409 18.0474 50.4169 18.052V18.78ZM54.8352 19.459C54.9938 19.221 55.1245 18.9994 55.2272 18.794C55.3345 18.5887 55.4372 18.3507 55.5352 18.08C55.8665 18.2714 56.2515 18.4207 56.6902 18.528C57.1288 18.6354 57.5372 18.689 57.9152 18.689C58.3025 18.689 58.5755 18.6564 58.7342 18.591C58.8928 18.521 58.9722 18.4464 58.9722 18.367C58.9722 18.0824 58.5382 17.94 57.6702 17.94C56.7182 17.94 56.0275 17.842 55.5982 17.646C55.1688 17.4454 54.9542 17.1234 54.9542 16.68C54.9542 16.05 55.2155 15.5857 55.7382 15.287C56.2608 14.9884 56.9398 14.839 57.7752 14.839C58.2605 14.839 58.7575 14.902 59.2662 15.028C59.7795 15.1494 60.2415 15.3174 60.6522 15.532C60.5168 15.84 60.3745 16.2157 60.2252 16.659C60.1972 16.7524 60.1738 16.8224 60.1552 16.869C59.9172 16.6777 59.5578 16.519 59.0772 16.393C58.5965 16.2624 58.1718 16.197 57.8032 16.197C57.3598 16.197 57.0612 16.2274 56.9072 16.288C56.7532 16.344 56.6762 16.428 56.6762 16.54C56.6762 16.652 56.7812 16.743 56.9912 16.813C57.2058 16.8784 57.5138 16.911 57.9152 16.911C58.9045 16.911 59.6232 17.0254 60.0712 17.254C60.5192 17.478 60.7432 17.8234 60.7432 18.29C60.7432 18.9434 60.5052 19.4147 60.0292 19.704C59.5532 19.9887 58.8322 20.131 57.8662 20.131C57.3482 20.131 56.8208 20.075 56.2842 19.963C55.7475 19.8464 55.2645 19.6784 54.8352 19.459Z" fill="#FAF5EF"/>
<path d="M30.6721 44.0576C28.1627 44.1968 25.7278 44.3617 23.3674 44.5521L24.4593 57.0324L18.4821 57.5554L17.3902 45.0751C15.0167 45.2988 12.5981 45.5586 10.1345 45.8544L9.69528 40.8336L30.2328 39.0368L30.6721 44.0576ZM35.6132 41.4811C34.6091 41.569 33.8383 41.3875 33.301 40.9366C32.7796 40.4843 32.484 39.8597 32.4143 39.0627C32.3459 38.2817 32.5285 37.6153 32.9621 37.0634C33.4116 36.5101 34.1384 36.1895 35.1426 36.1017C36.0989 36.018 36.8551 36.2169 37.4112 36.6982C37.9659 37.1637 38.2767 37.7789 38.3436 38.544C38.4133 39.341 38.2228 40.0081 37.7719 40.5454C37.321 41.0828 36.6014 41.3947 35.6132 41.4811ZM34.1053 56.1885C33.9924 53.6126 33.8627 51.4878 33.7163 49.8142C33.542 47.8218 33.283 45.5959 32.9393 43.1365L38.6774 42.6345C38.7577 45.0206 38.8891 47.2576 39.0718 49.3456C39.2252 51.0989 39.4665 53.214 39.7956 55.6907L34.1053 56.1885ZM60.5162 53.8779C60.461 51.7787 60.3358 49.6134 60.1406 47.3819C60.0778 46.6646 59.8457 46.1228 59.4443 45.7564C59.0574 45.3727 58.569 45.2066 57.9793 45.2582C57.4373 45.3056 56.9881 45.5858 56.6314 46.0989C56.2907 46.6105 56.1601 47.3206 56.2396 48.2291L56.2375 48.2052C56.4843 51.0264 56.6992 53.0233 56.8821 54.1958L51.5026 54.6665C51.3933 52.315 51.2521 50.1511 51.0792 48.1747C51.0178 47.4733 50.7937 46.9308 50.4068 46.5471C50.0358 46.1619 49.5873 45.9924 49.0613 46.0384C48.5035 46.0872 48.0542 46.3674 47.7135 46.8791C47.3873 47.3734 47.2279 48.0298 47.2353 48.8482C47.3094 50.0624 47.3687 50.9245 47.4134 51.4346C47.5082 52.5184 47.644 53.7031 47.8207 54.9886L42.1065 55.4885C42.0332 53.1821 41.9073 51.0088 41.7288 48.9686C41.5503 46.9284 41.2955 44.7503 40.9644 42.4344C42.0206 42.3902 42.8276 42.3436 43.3855 42.2948C43.9752 42.2432 44.778 42.1489 45.794 42.0119L46.8208 45.4876C47.0744 44.1644 47.5733 43.1652 48.3172 42.4898C49.0598 41.7984 49.9491 41.4074 50.9851 41.3168C52.2284 41.208 53.2705 41.4621 54.1115 42.0792C54.9684 42.6948 55.5406 43.5442 55.8281 44.6273C56.0957 43.4635 56.6306 42.5093 57.4327 41.7645C58.2348 41.0198 59.1858 40.5993 60.2856 40.5031C61.7201 40.3776 62.8864 40.7654 63.7843 41.6666C64.6809 42.5518 65.2024 43.8312 65.3488 45.5048L65.696 49.4737C65.8536 51.2748 65.9839 52.5804 66.0869 53.3905L60.5162 53.8779ZM80.3552 46.1193L72.561 46.8012C72.7499 47.4913 73.1109 48.038 73.644 48.441C74.1917 48.8268 74.9278 48.9792 75.8523 48.8983C76.5217 48.8397 77.1402 48.6571 77.7076 48.3505C78.2736 48.028 78.7111 47.6122 79.0199 47.1034C80.1338 47.536 81.6019 47.9777 83.4242 48.4286C83.0277 49.5875 82.2052 50.5589 80.9568 51.3427C79.7229 52.1092 78.0619 52.5837 75.9739 52.7664C73.2642 53.0035 71.2015 52.5576 69.7857 51.4287C68.3845 50.2824 67.5946 48.6892 67.4161 46.649C67.2418 44.6566 67.7458 42.9823 68.9281 41.6261C70.1104 40.2699 72.0644 39.4726 74.79 39.2341C76.4157 39.0919 77.8501 39.2394 79.0929 39.6768C80.3358 40.1141 81.3185 40.791 82.0411 41.7075C82.7624 42.6081 83.1774 43.68 83.2861 44.9233C83.3224 45.3377 83.3336 45.6499 83.3199 45.8599L80.3552 46.1193ZM75.4405 42.815C74.6436 42.8848 74.0033 43.0934 73.5198 43.4408C73.0362 43.7883 72.7138 44.2341 72.5526 44.7782L78.1951 44.2846C77.9592 43.7912 77.6128 43.412 77.156 43.1468C76.6977 42.8657 76.1259 42.7551 75.4405 42.815Z" fill="#FAF5EF"/>
</svg>
