<svg xmlns="http://www.w3.org/2000/svg" width="128" height="64" viewBox="0 0 128 64">
<path className="hintblob-fill-text" fillRule="evenodd" clipRule="evenodd" d="M62.3323 0.414074C96.6014 -1.56048 119.592 11.2656 126.092 30.2656C128.204 36.44 127.592 45.2656 116.092 50.2653C104.592 55.265 81.4332 56.7144 62.3323 55.9165C37.8964 54.8958 17.8128 53.6314 9.4859 38.2241C-1.15942 18.527 31.1473 2.21093 62.3323 0.414074Z"/>
<path className="hintblob-fill-blob" fillRule="evenodd" clipRule="evenodd" d="M121.776 21.7275C120.356 19.6672 117.419 19.6574 115.729 21.5034C115.016 22.282 114.621 23.2993 114.621 24.3548V26.5472C114.621 27.2805 114.36 27.9085 113.837 28.4312C113.314 28.9539 112.687 29.2148 111.954 29.2139H102.288C101.554 29.2139 100.926 28.9525 100.404 28.4299C99.8811 27.9072 99.6202 27.2796 99.6211 26.5472V16.8805C99.6211 16.1472 99.8824 15.5192 100.405 14.9965C100.928 14.4739 101.555 14.213 102.288 14.2139H104.875C105.676 14.2139 106.449 13.9136 107.041 13.3722C108.588 11.9561 108.381 9.46022 106.537 8.46147C95.4868 2.47812 80.4932 -0.632366 62.3319 0.414074C31.1469 2.21093 -1.15982 18.527 9.48549 38.2241C10.3124 39.7541 10.456 41.5998 9.649 43.1404L0.440932 60.7194C-0.468758 62.4561 1.40394 64.3288 3.14062 63.4191L23.1207 52.9533C25.0626 51.9361 27.3287 51.7867 29.4463 52.354C38.64 54.8172 49.925 55.3983 62.3319 55.9165C81.4328 56.7144 104.591 55.265 116.091 50.2653C127.591 45.2656 128.204 36.44 126.091 30.2656C125.061 27.2529 123.615 24.3954 121.776 21.7275ZM103.122 25.7139C103.637 26.2293 104.473 26.2293 104.988 25.7139L119.955 10.7472V15.7139C119.955 16.7264 120.776 17.5472 121.788 17.5472C122.801 17.5472 123.622 16.7264 123.622 15.7139V6.5353C123.622 5.80549 123.03 5.21387 122.3 5.21387H111.122C110.109 5.21387 109.288 6.03468 109.288 7.0472C109.288 8.05972 110.109 8.88053 111.122 8.88053H118.088L103.122 23.8472C102.606 24.3627 102.606 25.1984 103.122 25.7139Z"/>
<path className="hintblob-fill-text" d="M52.4872 9.74187L51.0352 13.1079C49.7592 16.0852 48.7546 18.4685 48.0212 20.2579C47.2879 22.0472 46.6132 23.8659 45.9972 25.7139H39.4192C38.8179 23.8952 38.1506 22.0985 37.4172 20.3239C36.6986 18.5345 35.7306 16.2465 34.5132 13.4599C34.3079 12.9905 33.7726 11.7512 32.9072 9.74187H39.0232C39.4632 11.1645 40.1159 12.9905 40.9812 15.2199C41.7439 17.1852 42.3599 18.8865 42.8292 20.3239C43.1372 19.3119 43.5039 18.2339 43.9292 17.0899C44.3692 15.9312 44.6332 15.2272 44.7212 14.9779C45.5719 12.7339 46.1952 10.9885 46.5912 9.74187H52.4872ZM56.6083 12.4039C55.6843 12.4039 54.9949 12.1765 54.5403 11.7219C54.1003 11.2672 53.8803 10.6732 53.8803 9.93987C53.8803 9.2212 54.1003 8.6272 54.5403 8.15787C54.9949 7.68853 55.6843 7.45387 56.6083 7.45387C57.4883 7.45387 58.1629 7.69587 58.6323 8.17987C59.1016 8.6492 59.3363 9.23587 59.3363 9.93987C59.3363 10.6732 59.1089 11.2672 58.6543 11.7219C58.1996 12.1765 57.5176 12.4039 56.6083 12.4039ZM54.0563 25.7139C54.1589 23.3525 54.2103 21.4019 54.2103 19.8619C54.2103 18.0285 54.1516 15.9752 54.0343 13.7019H59.3143C59.1969 15.8872 59.1383 17.9405 59.1383 19.8619C59.1383 21.4752 59.1896 23.4259 59.2923 25.7139H54.0563ZM68.4147 25.9339C67.1827 25.9339 65.9287 25.7652 64.6527 25.4279C63.3914 25.0759 62.2034 24.5479 61.0887 23.8439L63.3987 20.6979C64.0734 21.1819 64.8874 21.5632 65.8407 21.8419C66.794 22.1059 67.6154 22.2379 68.3047 22.2379C68.9647 22.2379 69.4707 22.1499 69.8227 21.9739C70.1894 21.7832 70.3727 21.5412 70.3727 21.2479C70.3727 21.0132 70.2847 20.8299 70.1087 20.6979C69.9327 20.5659 69.6907 20.4999 69.3827 20.4999C69.192 20.4999 68.972 20.5072 68.7227 20.5219C68.488 20.5365 68.2974 20.5512 68.1507 20.5659C67.388 20.6539 66.6034 20.6979 65.7967 20.6979C64.4914 20.6979 63.428 20.4559 62.6067 19.9719C61.8 19.4732 61.3967 18.6665 61.3967 17.5519C61.3967 16.2612 62.0054 15.2639 63.2227 14.5599C64.44 13.8412 66.2294 13.4819 68.5907 13.4819C69.7494 13.4819 70.9154 13.6505 72.0887 13.9879C73.2767 14.3105 74.3254 14.8019 75.2347 15.4619L72.7047 18.0139C71.8687 17.5739 71.084 17.2659 70.3507 17.0899C69.632 16.8992 68.906 16.8039 68.1727 16.8039C67.6594 16.8039 67.2194 16.9065 66.8527 17.1119C66.486 17.3172 66.3027 17.5519 66.3027 17.8159C66.3027 18.0212 66.376 18.1825 66.5227 18.2999C66.684 18.4172 66.8894 18.4759 67.1387 18.4759C67.388 18.4759 67.7327 18.4539 68.1727 18.4099C69.2434 18.3365 70.0427 18.2999 70.5707 18.2999C72.096 18.2999 73.2767 18.5565 74.1127 19.0699C74.9487 19.5832 75.3667 20.3679 75.3667 21.4239C75.3667 23.0079 74.7507 24.1592 73.5187 24.8779C72.2867 25.5819 70.5854 25.9339 68.4147 25.9339ZM79.8544 12.4039C78.9304 12.4039 78.241 12.1765 77.7864 11.7219C77.3464 11.2672 77.1264 10.6732 77.1264 9.93987C77.1264 9.2212 77.3464 8.6272 77.7864 8.15787C78.241 7.68853 78.9304 7.45387 79.8544 7.45387C80.7344 7.45387 81.409 7.69587 81.8784 8.17987C82.3477 8.6492 82.5824 9.23587 82.5824 9.93987C82.5824 10.6732 82.355 11.2672 81.9004 11.7219C81.4457 12.1765 80.7637 12.4039 79.8544 12.4039ZM77.3024 25.7139C77.405 23.3525 77.4564 21.4019 77.4564 19.8619C77.4564 18.0285 77.3977 15.9752 77.2804 13.7019H82.5604C82.443 15.8872 82.3844 17.9405 82.3844 19.8619C82.3844 21.4752 82.4357 23.4259 82.5384 25.7139H77.3024ZM94.5208 17.6399C93.1715 17.5519 91.9395 17.4859 90.8248 17.4419L90.8028 19.7739C90.8028 20.5659 90.9715 21.1892 91.3088 21.6439C91.6608 22.0839 92.2768 22.3039 93.1568 22.3039C93.4941 22.3039 93.8168 22.2745 94.1248 22.2159C94.0661 22.7585 94.0368 23.3085 94.0368 23.8659C94.0368 24.1299 94.0515 24.7312 94.0808 25.6699C93.4355 25.7872 92.8928 25.8605 92.4528 25.8899C92.0128 25.9192 91.4408 25.9339 90.7368 25.9339C89.0208 25.9339 87.8035 25.5232 87.0848 24.7019C86.3808 23.8659 86.0288 22.7072 86.0288 21.2259L86.0508 17.5079C85.3615 17.5372 84.6428 17.5812 83.8948 17.6399V13.7459C84.6575 13.7459 85.3028 13.5039 85.8308 13.0199C86.3588 12.5359 86.6741 11.9565 86.7768 11.2819H92.7608C92.0128 12.3085 91.1841 13.1299 90.2748 13.7459H94.5208V17.6399ZM29.8509 40.7079L30.9949 30.7419H36.3629L33.4149 46.7139H26.6609L25.1649 37.8039L23.4269 46.7139H16.9589L14.0109 30.7419H19.3789L20.5009 40.5759L22.2609 30.7419H28.1349L29.8509 40.7079ZM48.8735 41.2139H41.7015C41.8188 41.8592 42.1048 42.3872 42.5595 42.7979C43.0288 43.1939 43.6888 43.3919 44.5395 43.3919C45.1555 43.3919 45.7348 43.2745 46.2775 43.0399C46.8201 42.7905 47.2528 42.4459 47.5755 42.0059C48.5581 42.4899 49.8635 43.0105 51.4915 43.5679C51.0368 44.5945 50.2081 45.4159 49.0055 46.0319C47.8175 46.6332 46.2628 46.9339 44.3415 46.9339C41.8481 46.9339 40.0001 46.3619 38.7975 45.2179C37.6095 44.0592 37.0155 42.5412 37.0155 40.6639C37.0155 38.8305 37.6095 37.3419 38.7975 36.1979C39.9855 35.0539 41.8335 34.4819 44.3415 34.4819C45.8375 34.4819 47.1355 34.7312 48.2355 35.2299C49.3355 35.7285 50.1788 36.4252 50.7655 37.3199C51.3521 38.1999 51.6455 39.2119 51.6455 40.3559C51.6455 40.7372 51.6308 41.0232 51.6015 41.2139H48.8735ZM44.6495 37.8039C43.9161 37.8039 43.3148 37.9432 42.8455 38.2219C42.3761 38.5005 42.0461 38.8819 41.8555 39.3659H47.0475C46.8715 38.8965 46.5855 38.5225 46.1895 38.2439C45.7935 37.9505 45.2801 37.8039 44.6495 37.8039ZM62.7249 34.4819C63.7075 34.4819 64.5802 34.7825 65.3429 35.3839C66.1202 35.9705 66.7215 36.7552 67.1469 37.7379C67.5722 38.7059 67.7849 39.7399 67.7849 40.8399C67.7849 41.9545 67.5722 42.9812 67.1469 43.9199C66.7215 44.8439 66.1275 45.5772 65.3649 46.1199C64.6022 46.6625 63.7442 46.9339 62.7909 46.9339C61.6762 46.9339 60.7082 46.6992 59.8869 46.2299C59.0655 45.7459 58.4495 44.9905 58.0389 43.9639L57.4009 46.7139H53.1769C53.2649 43.9565 53.3089 41.1039 53.3089 38.1559C53.3089 35.1785 53.2649 32.3259 53.1769 29.5979H58.1489L58.0829 32.3039C58.0095 34.2105 57.9729 35.9119 57.9729 37.4079C58.3689 36.4105 58.9702 35.6772 59.7769 35.2079C60.5982 34.7239 61.5809 34.4819 62.7249 34.4819ZM60.4809 43.2379C61.1849 43.2379 61.7422 43.0032 62.1529 42.5339C62.5635 42.0645 62.7689 41.4559 62.7689 40.7079C62.7689 40.0332 62.5415 39.4905 62.0869 39.0799C61.6469 38.6545 61.0969 38.4419 60.4369 38.4419C60.0995 38.4419 59.7475 38.5225 59.3809 38.6839C59.0142 38.8305 58.6989 39.0799 58.4349 39.4319C58.1709 39.7692 58.0389 40.1945 58.0389 40.7079C58.0389 41.6172 58.2442 42.2699 58.6549 42.6659C59.0655 43.0472 59.6742 43.2379 60.4809 43.2379ZM76.654 46.9339C75.422 46.9339 74.168 46.7652 72.892 46.4279C71.6306 46.0759 70.4426 45.5479 69.328 44.8439L71.638 41.6979C72.3126 42.1819 73.1266 42.5632 74.08 42.8419C75.0333 43.1059 75.8546 43.2379 76.544 43.2379C77.204 43.2379 77.71 43.1499 78.062 42.9739C78.4286 42.7832 78.612 42.5412 78.612 42.2479C78.612 42.0132 78.524 41.8299 78.348 41.6979C78.172 41.5659 77.93 41.4999 77.622 41.4999C77.4313 41.4999 77.2113 41.5072 76.962 41.5219C76.7273 41.5365 76.5366 41.5512 76.39 41.5659C75.6273 41.6539 74.8426 41.6979 74.036 41.6979C72.7306 41.6979 71.6673 41.4559 70.846 40.9719C70.0393 40.4732 69.636 39.6665 69.636 38.5519C69.636 37.2612 70.2446 36.2639 71.462 35.5599C72.6793 34.8412 74.4686 34.4819 76.83 34.4819C77.9886 34.4819 79.1546 34.6505 80.328 34.9879C81.516 35.3105 82.5646 35.8019 83.474 36.4619L80.944 39.0139C80.108 38.5739 79.3233 38.2659 78.59 38.0899C77.8713 37.8992 77.1453 37.8039 76.412 37.8039C75.8986 37.8039 75.4586 37.9065 75.092 38.1119C74.7253 38.3172 74.542 38.5519 74.542 38.8159C74.542 39.0212 74.6153 39.1825 74.762 39.2999C74.9233 39.4172 75.1286 39.4759 75.378 39.4759C75.6273 39.4759 75.972 39.4539 76.412 39.4099C77.4826 39.3365 78.282 39.2999 78.81 39.2999C80.3353 39.2999 81.516 39.5565 82.352 40.0699C83.188 40.5832 83.606 41.3679 83.606 42.4239C83.606 44.0079 82.99 45.1592 81.758 45.8779C80.526 46.5819 78.8246 46.9339 76.654 46.9339ZM88.0936 33.4039C87.1696 33.4039 86.4803 33.1765 86.0256 32.7219C85.5856 32.2672 85.3656 31.6732 85.3656 30.9399C85.3656 30.2212 85.5856 29.6272 86.0256 29.1579C86.4803 28.6885 87.1696 28.4539 88.0936 28.4539C88.9736 28.4539 89.6483 28.6959 90.1176 29.1799C90.587 29.6492 90.8216 30.2359 90.8216 30.9399C90.8216 31.6732 90.5943 32.2672 90.1396 32.7219C89.685 33.1765 89.003 33.4039 88.0936 33.4039ZM85.5416 46.7139C85.6443 44.3525 85.6956 42.4019 85.6956 40.8619C85.6956 39.0285 85.637 36.9752 85.5196 34.7019H90.7996C90.6823 36.8872 90.6236 38.9405 90.6236 40.8619C90.6236 42.4752 90.675 44.4259 90.7776 46.7139H85.5416ZM102.76 38.6399C101.411 38.5519 100.179 38.4859 99.0641 38.4419L99.0421 40.7739C99.0421 41.5659 99.2107 42.1892 99.5481 42.6439C99.9001 43.0839 100.516 43.3039 101.396 43.3039C101.733 43.3039 102.056 43.2745 102.364 43.2159C102.305 43.7585 102.276 44.3085 102.276 44.8659C102.276 45.1299 102.291 45.7312 102.32 46.6699C101.675 46.7872 101.132 46.8605 100.692 46.8899C100.252 46.9192 99.6801 46.9339 98.9761 46.9339C97.2601 46.9339 96.0427 46.5232 95.3241 45.7019C94.6201 44.8659 94.2681 43.7072 94.2681 42.2259L94.2901 38.5079C93.6007 38.5372 92.8821 38.5812 92.1341 38.6399V34.7459C92.8967 34.7459 93.5421 34.5039 94.0701 34.0199C94.5981 33.5359 94.9134 32.9565 95.0161 32.2819H101C100.252 33.3085 99.4234 34.1299 98.5141 34.7459H102.76V38.6399ZM115.711 41.2139H108.539C108.657 41.8592 108.943 42.3872 109.397 42.7979C109.867 43.1939 110.527 43.3919 111.377 43.3919C111.993 43.3919 112.573 43.2745 113.115 43.0399C113.658 42.7905 114.091 42.4459 114.413 42.0059C115.396 42.4899 116.701 43.0105 118.329 43.5679C117.875 44.5945 117.046 45.4159 115.843 46.0319C114.655 46.6332 113.101 46.9339 111.179 46.9339C108.686 46.9339 106.838 46.3619 105.635 45.2179C104.447 44.0592 103.853 42.5412 103.853 40.6639C103.853 38.8305 104.447 37.3419 105.635 36.1979C106.823 35.0539 108.671 34.4819 111.179 34.4819C112.675 34.4819 113.973 34.7312 115.073 35.2299C116.173 35.7285 117.017 36.4252 117.603 37.3199C118.19 38.1999 118.483 39.2119 118.483 40.3559C118.483 40.7372 118.469 41.0232 118.439 41.2139H115.711ZM111.487 37.8039C110.754 37.8039 110.153 37.9432 109.683 38.2219C109.214 38.5005 108.884 38.8819 108.693 39.3659H113.885C113.709 38.8965 113.423 38.5225 113.027 38.2439C112.631 37.9505 112.118 37.8039 111.487 37.8039Z"/>
</svg>
