<svg xmlns="http://www.w3.org/2000/svg" className="object" viewBox="0 0 320 1080" width="100%" height="100%">
<path className="object-fill-1" d="M60 180C60 124.772 104.772 80 160 80V80C215.228 80 260 124.772 260 180V1080H60V180Z"/>
<path className="object-stroke-1" d="M142.895 58.6308C146.558 64.5619 150.493 72.1822 154.692 81.5576C144.473 82.6094 135.906 83.0113 128.938 82.8046C119.424 82.5223 113.933 81.1197 111.248 79.5693C106.654 76.9172 103.302 72.5488 101.929 67.4252C100.557 62.3016 101.275 56.8425 103.927 52.2488C106.58 47.6551 110.948 44.3032 116.072 42.9303C121.195 41.5575 126.654 42.2762 131.248 44.9283C133.933 46.4787 137.893 50.5325 142.895 58.6308Z" stroke-width="16"/>
<path className="object-fill-1" fillRule="evenodd" clipRule="evenodd" d="M170.88 90.0613C165.757 89.6313 160.224 89.027 154.281 88.2484C156.579 82.712 158.822 77.6182 161.011 72.9667C170.03 53.8018 178.131 42.147 185.315 37.9997C191.746 34.2866 199.388 33.2804 206.562 35.2024C213.735 37.1245 219.85 41.8172 223.563 48.2484C227.276 54.6795 228.283 62.3223 226.36 69.4953C226.245 69.9266 226.119 70.3542 225.984 70.7775C225.025 67.316 223.408 64.0647 221.213 61.2049C218.599 57.7976 215.236 55.0374 211.384 53.1378C207.834 51.3874 203.957 50.411 200.01 50.2685C199.704 50.2507 199.398 50.2447 199.092 50.2504C199.061 50.2503 199.03 50.2502 199 50.2502V50.2525C197.018 50.3046 195.062 50.8472 193.315 51.8561C192.408 52.3797 189.305 55.012 184.474 62.8341C182.445 66.1193 180.296 70.0111 178.03 74.5368C183.083 74.8376 187.528 74.9221 191.387 74.8076C200.577 74.5349 204.408 73.1643 205.315 72.6407C208.071 71.0494 210.082 68.4283 210.906 65.3542C211.441 63.3561 211.446 61.2731 210.947 59.3028C213.182 60.7118 215.155 62.5085 216.771 64.614C218.862 67.3399 220.299 70.5104 220.969 73.8802C221.338 75.7372 221.47 77.6273 221.364 79.5055C219.174 82.3035 216.451 84.6861 213.315 86.4971C206.131 90.6445 191.987 91.8328 170.88 90.0613Z"/>
<line className="object-stroke-2" x1="104" y1="156" x2="216" y2="156" stroke-width="8" stroke-linecap="round"/>
<path className="object-fill-2" d="M124 156H140V176C140 180.418 136.418 184 132 184V184C127.582 184 124 180.418 124 176V156Z"/>
<path className="object-fill-2" d="M192.773 164.188L189.811 154.436C189.226 152.521 186.526 152.521 185.962 154.436L182.98 164.188H174.014C172.06 164.188 171.254 166.706 172.845 167.834L180.18 173.073L177.298 182.362C176.714 184.236 178.89 185.747 180.441 184.558L187.876 178.916L195.311 184.578C196.863 185.767 199.039 184.256 198.454 182.382L195.573 173.093L202.907 167.855C204.499 166.706 203.693 164.208 201.739 164.208H192.773V164.188Z"/>
<path className="object-fill-1" fillRule="evenodd" clipRule="evenodd" d="M193.635 153.268L193.637 153.273L195.743 160.208H201.737C207.602 160.208 209.963 167.695 205.247 171.098L205.239 171.104L200.249 174.668L202.272 181.191C202.272 181.192 202.273 181.193 202.273 181.194C204.02 186.806 197.517 191.302 192.882 187.757C192.881 187.756 192.879 187.754 192.877 187.753L187.871 183.941L182.873 187.733C182.87 187.735 182.867 187.737 182.864 187.74C178.23 191.279 171.731 186.785 173.477 181.174C173.478 181.173 173.478 181.172 173.478 181.171L175.502 174.648L170.531 171.098C170.529 171.096 170.526 171.094 170.524 171.092C165.738 167.691 168.191 160.188 174.013 160.188H180.019L182.131 153.281C183.857 147.499 191.921 147.652 193.635 153.268ZM180.178 173.073L177.297 182.362C176.713 184.236 178.889 185.747 180.44 184.558L187.875 178.916L195.31 184.578C196.861 185.767 199.038 184.256 198.453 182.382L195.572 173.093L202.906 167.855C204.498 166.706 203.692 164.208 201.737 164.208H192.771V164.188L189.809 154.436C189.225 152.521 186.525 152.521 185.961 154.436L182.979 164.188H174.013C172.058 164.188 171.252 166.706 172.844 167.834L180.178 173.073Z"/>
</svg>
